<svg width="249" height="166" viewBox="0 0 249 166" fill="none" xmlns="http://www.w3.org/2000/svg">
<g clip-path="url(#clip0_448_12807)">
<path fill-rule="evenodd" clip-rule="evenodd" d="M196.193 133.791L201.795 127.698L201.828 127.662L201.836 127.615L201.997 126.708L202.031 126.514H201.835L190.383 126.592H190.318L190.271 126.636L183.349 133.046L183.173 133.21L183.39 133.314L184.453 133.826L184.486 133.842H184.524L196.073 133.843H196.146L196.194 133.791H196.193ZM201.52 127.51L195.999 133.515H184.562L183.749 133.122L190.447 126.919L201.637 126.843L201.519 127.509L201.52 127.51Z" fill="#303030"/>
<path fill-rule="evenodd" clip-rule="evenodd" d="M201.672 127.422L190.906 127.44H190.84L190.793 127.485L184.408 133.559L184.634 133.796L190.972 127.768L201.672 127.75V127.422Z" fill="#303030"/>
<path fill-rule="evenodd" clip-rule="evenodd" d="M191.047 127.518L190.522 126.67L190.242 126.843L190.767 127.691L191.047 127.518Z" fill="#303030"/>
<path fill-rule="evenodd" clip-rule="evenodd" d="M220.158 133.062L225.76 126.969L225.793 126.934L225.801 126.886L225.962 125.979L225.996 125.785H225.799L214.348 125.865H214.283L214.236 125.909L207.314 132.319L207.138 132.482L207.355 132.587L208.418 133.098L208.451 133.114H208.489L220.038 133.116H220.11L220.159 133.063L220.158 133.062ZM225.485 126.782L219.964 132.786H208.527L207.714 132.394L214.412 126.192L225.602 126.115L225.484 126.782H225.485Z" fill="#303030"/>
<path fill-rule="evenodd" clip-rule="evenodd" d="M225.641 126.693L214.875 126.711H214.809L214.761 126.757L208.377 132.831L208.604 133.068L214.941 127.039L225.641 127.021V126.693Z" fill="#303030"/>
<path fill-rule="evenodd" clip-rule="evenodd" d="M215.012 126.79L214.487 125.942L214.207 126.114L214.732 126.962L215.012 126.79Z" fill="#303030"/>
<path fill-rule="evenodd" clip-rule="evenodd" d="M45.0108 141.996C46.2836 148.836 48.7781 154.089 52.0249 157.885C55.6513 162.125 60.2118 164.547 65.0656 165.337C70.2273 166.178 75.1493 166.017 79.9951 165.326C84.8147 164.638 89.5526 163.425 94.379 162.155C101.908 160.176 104.022 154.108 106.367 147.377C106.932 145.754 107.512 144.092 108.191 142.434L116.153 141.518C117.476 141.366 118.248 141.018 118.721 140.406C119.085 139.935 119.226 139.365 119.279 138.649L137.901 138.726C138.112 138.857 138.436 139.059 138.739 139.248C141.73 141.115 141.761 141.135 145.843 141.013L175.156 140.142C176.678 140.287 178.126 140.399 179.559 140.491C180.866 140.575 182.199 140.644 183.59 140.707C185.214 144.421 186.817 147.238 188.694 149.6C190.637 152.049 192.861 153.993 195.69 155.923C205.704 162.759 213.076 161.346 223.349 159.375L224.48 159.159C230.81 157.952 235.548 154.475 239.011 149.845C243.195 144.25 245.504 136.969 246.506 130.001C246.984 129.37 247.34 128.676 247.606 127.943C247.886 127.169 248.067 126.354 248.186 125.524C248.997 119.936 249.225 113.597 248.933 107.209C248.635 100.7 247.797 94.1367 246.484 88.2695C245.9 85.6576 245.208 83.9482 244.23 81.5316L244.213 81.4885C243.746 79.1616 243.136 76.3602 242.42 73.6644C241.698 70.9436 240.872 68.3465 239.985 66.4839C239.405 65.2671 238.557 64.2466 237.571 63.3681C236.615 62.5156 235.537 61.8016 234.454 61.1683C230.781 58.3453 227.096 57.2091 222.949 55.9321C222.502 55.7937 222.063 55.6586 221.289 55.4145C212.536 50.6007 205.115 48.5064 195.968 45.9264L194.176 45.4202L192.063 41.0013C191.201 39.1965 190.474 37.89 189.408 36.9581C188.319 36.0069 186.939 35.4984 184.807 35.3338C183.609 35.2419 182.376 35.2737 181.158 35.3043L180.667 35.3168C176.952 31.0466 173.35 27.2316 169.591 23.6391C165.765 19.9819 161.791 16.5698 157.388 13.1623C154.128 10.639 150.5 8.85126 146.676 7.60267C142.88 6.3643 138.887 5.65715 134.864 5.29051C118.721 3.12137 100.167 1.58901 81.8975 0.940884C64.6099 0.326805 47.5803 0.502747 33.0918 1.67642C28.8642 2.01922 24.8946 2.5073 20.9659 3.10208C17.0656 3.69232 13.1722 4.39607 9.09119 5.1702C8.79117 5.22695 8.59912 5.26213 8.41615 5.29505C6.5251 5.64125 5.07954 5.90573 3.36011 7.11913C0.751968 7.75591 -1.13678 8.639 -2.64711 9.77862C-4.18472 10.9387 -5.31549 12.3518 -6.40762 14.0352C-10.5784 20.4734 -14.1093 28.092 -17.4891 35.3838C-18.3687 37.2816 -19.2381 39.1568 -20.0995 40.9695L-20.1018 40.974L-20.104 40.982C-20.5143 41.8458 -20.7029 42.2431 -20.895 42.3611C-21.0598 42.4621 -21.4121 42.478 -22.0656 42.5075C-22.2701 42.5166 -22.4963 42.5268 -22.7008 42.5382C-24.7419 42.6517 -27.1989 42.7289 -29.6138 42.8038C-32.647 42.898 -35.6142 42.9911 -37.5326 43.1443C-38.9997 43.2612 -40.3021 43.5688 -41.3408 44.2465C-42.417 44.9502 -43.1841 46.0229 -43.5182 47.6461L-43.6784 48.4247L-43.3227 48.4281C-44.5842 49.9537 -45.4979 51.3419 -46.1456 52.8527C-46.8275 54.4429 -47.2071 56.1489 -47.3776 58.2727C-47.9412 59.1183 -48.2697 59.7278 -48.4685 60.4044C-48.6765 61.1081 -48.7265 61.8334 -48.7447 62.9356L-49.0277 79.1253C-49.0402 79.8596 -49.0106 80.4215 -48.8845 80.8926C-48.7697 81.3216 -48.5845 81.6678 -48.2981 81.9754L-48.4765 84.829L-49.2572 87.5986C-50.6062 87.8756 -50.5914 88.2048 -50.5312 89.5249C-50.5244 89.6894 -50.5153 89.8801 -50.5119 90.0561C-50.4641 92.6043 -50.1891 95.9085 -49.2845 98.8439C-48.6072 101.043 -47.5753 103.043 -46.0206 104.397C-45.3683 104.964 -44.6364 105.224 -43.9102 105.262C-43.4943 105.283 -43.0841 105.232 -42.6943 105.123C-42.825 107.069 -42.9375 109.064 -42.9943 111.09C-43.0613 113.482 -43.0477 115.875 -42.8886 118.207L-42.8704 118.481C-42.7352 120.519 -42.6693 121.483 -40.8862 122.67L-40.7726 123.502C-39.9407 129.6 -39.4384 133.284 -36.6722 138.062C-35.3267 140.386 -33.5357 141.697 -31.4628 142.354C-29.4377 142.995 -27.1648 142.997 -24.7896 142.707C-22.8247 142.467 -20.7916 142.028 -18.7721 141.592C-17.7527 141.372 -16.7368 141.153 -15.781 140.969C-8.06683 139.488 -7.36792 135.339 -6.26784 128.811C-6.14282 128.065 -6.01099 127.288 -5.86212 126.474L44.8676 138.741L45.1767 137.465L-6.22691 125.036L-6.89743 124.874L-7.02811 125.55C-7.23267 126.614 -7.40427 127.632 -7.56677 128.595C-8.57367 134.571 -9.21347 138.369 -16.0287 139.677C-17.0549 139.875 -18.0516 140.09 -19.0505 140.306C-21.0382 140.735 -23.0384 141.166 -24.9487 141.4C-27.1557 141.669 -29.2467 141.675 -31.0662 141.098C-32.8379 140.537 -34.3732 139.408 -35.5335 137.404C-38.1701 132.849 -38.6599 129.263 -39.469 123.328L-39.6236 122.194L-39.6656 121.886L-39.927 121.724C-41.3942 120.811 -41.4442 120.064 -41.5555 118.397V118.394L-41.5737 118.121C-41.7317 115.816 -41.7453 113.466 -41.6794 111.128C-41.6135 108.8 -41.4669 106.44 -41.3055 104.138L-41.2158 102.863L-42.3068 103.534C-42.7568 103.811 -43.2989 103.98 -43.8409 103.952C-44.2899 103.928 -44.7444 103.766 -45.1524 103.41C-46.5013 102.237 -47.4128 100.447 -48.0242 98.4591C-48.8856 95.6611 -49.1481 92.4874 -49.1947 90.0368C-49.1993 89.7973 -49.2072 89.6236 -49.214 89.4692C-49.2356 89.0084 -49.239 88.9255 -48.6208 88.82L-48.2106 88.7496L-48.0981 88.3489L-47.1878 85.1185L-47.1696 85.0526L-47.165 84.9789L-46.9628 81.7496L-46.9423 81.4227L-47.1946 81.2093C-47.4082 81.0288 -47.5367 80.8245 -47.6094 80.552C-47.7014 80.2092 -47.7219 79.7552 -47.7117 79.1445L-47.4287 62.9549C-47.4116 61.9742 -47.3707 61.3397 -47.2037 60.7733C-47.0389 60.2171 -46.7343 59.6734 -46.1854 58.8629L-46.0877 58.7188L-46.0752 58.5406C-45.9229 56.4838 -45.5729 54.8583 -44.9319 53.3657C-44.2898 51.8697 -43.3454 50.4826 -42.0044 48.906L-41.9124 48.7982L-41.8737 48.6619L-41.6715 47.9616L-41.4328 47.1341L-42.0056 47.1285C-41.7033 46.318 -41.226 45.7448 -40.6169 45.3464C-39.7884 44.8061 -38.6894 44.5552 -37.4268 44.4542C-35.4653 44.2987 -32.5515 44.2068 -29.5729 44.1137H-29.5706C-27.1216 44.0376 -24.6282 43.9593 -22.6269 43.8481C-22.3656 43.8333 -22.1758 43.8242 -22.0064 43.8174C-21.1302 43.7777 -20.6575 43.7573 -20.2075 43.4814C-19.6813 43.1591 -19.4381 42.6506 -18.9153 41.5495L-18.9131 41.545L-18.9108 41.537C-18.038 39.7005 -17.1709 37.8276 -16.2924 35.9332C-12.9297 28.6777 -9.41693 21.0999 -5.30299 14.7491C-4.28929 13.185 -3.24829 11.8797 -1.85161 10.8263C-0.453781 9.77181 1.31793 8.95455 3.79765 8.36204L3.9306 8.33026L4.03288 8.25648C5.56026 7.15091 6.89674 6.90687 8.65709 6.58451C8.91278 6.53797 9.17189 6.49029 9.33669 6.45965C13.3688 5.69574 17.2327 4.99766 21.1648 4.40174C25.0685 3.81037 29.0085 3.32569 33.1974 2.9863C47.6553 1.8149 64.6303 1.63896 81.8531 2.25077C100.077 2.89777 118.585 4.42672 134.691 6.59018L134.719 6.59245C138.654 6.95001 142.56 7.63899 146.27 8.85012C149.96 10.0544 153.455 11.7752 156.586 14.1986C160.967 17.5891 164.906 20.9705 168.685 24.5835C172.465 28.1964 176.102 32.0569 179.876 36.4065L180.078 36.6392L180.386 36.6324C180.667 36.6267 180.927 36.6199 181.19 36.6131C182.36 36.5836 183.543 36.5529 184.71 36.6426C186.534 36.7822 187.682 37.1897 188.545 37.9422C189.43 38.7152 190.081 39.9037 190.876 41.5632L193.117 46.2499L193.245 46.5178L193.534 46.5995C194.238 46.7993 194.932 46.9945 195.615 47.1875C204.7 49.7505 212.068 51.8288 220.719 56.5962L220.779 56.6291L220.838 56.6472C221.196 56.7596 221.895 56.9753 222.566 57.183C226.607 58.4282 230.194 59.5337 233.691 62.2318L233.727 62.2602L233.764 62.2807C234.797 62.8822 235.817 63.5542 236.699 64.3408C237.562 65.1104 238.301 65.9946 238.798 67.04C239.648 68.8244 240.447 71.3431 241.151 73.9935C241.855 76.6485 242.466 79.4556 242.934 81.7938L242.944 81.8472L242.969 81.9096L243.012 82.0152C243.969 84.3807 244.646 86.0549 245.203 88.5476C246.499 94.3387 247.327 100.823 247.622 107.262C247.91 113.565 247.685 119.821 246.885 125.334C246.776 126.084 246.616 126.812 246.37 127.491C246.131 128.153 245.807 128.771 245.368 129.32L245.254 129.462L245.229 129.641C244.27 136.468 242.031 143.607 237.957 149.054C234.679 153.438 230.203 156.727 224.238 157.864H224.236L223.105 158.08C213.144 159.991 205.997 161.362 196.435 154.834C193.716 152.977 191.582 151.114 189.728 148.778C187.869 146.437 186.276 143.601 184.641 139.806L184.479 139.428L184.065 139.409C182.574 139.344 181.125 139.27 179.648 139.176C178.18 139.081 176.729 138.969 175.246 138.827L175.207 138.824H175.167L145.812 139.698C142.13 139.807 142.103 139.79 139.44 138.128C139.239 138.002 139.009 137.859 138.441 137.509L138.283 137.412H138.098L118.655 137.33L118.003 137.328L117.995 137.979C117.985 138.743 117.931 139.283 117.686 139.6C117.447 139.911 116.944 140.101 116.01 140.208L107.663 141.169L107.279 141.213L107.13 141.571C106.382 143.358 105.749 145.173 105.133 146.942C102.908 153.325 100.903 159.079 94.0506 160.882C89.265 162.141 84.5704 163.343 79.8166 164.02C75.089 164.694 70.2955 164.853 65.2838 164.037C60.7278 163.295 56.4434 161.017 53.0307 157.028C49.9259 153.399 47.5371 148.353 46.3097 141.757L45.0165 141.993L45.0108 141.996Z" fill="#303030"/>
<path fill-rule="evenodd" clip-rule="evenodd" d="M50.4751 12.7036C51.9797 17.3483 53.3514 22.1225 54.7231 26.9023C55.7015 30.3098 56.6812 33.7207 57.7267 37.1396C59.3654 42.4949 61.6951 42.4767 66.1432 42.4393C66.5784 42.4359 67.0353 42.4325 67.5126 42.4336C71.0617 42.4427 74.6063 42.4518 78.1452 42.4597C113.782 42.5403 148.943 42.6209 184.807 44.1964L185.164 44.2123L184.944 43.9319C180.234 37.9251 175.275 32.0601 169.92 26.6049C164.561 21.1463 158.807 16.0952 152.509 11.7195L152.48 11.699L152.444 11.6922C137.611 9.14169 120.905 7.60252 104.078 7.01228C86.4753 6.39366 68.7445 6.81365 52.8911 8.19617C50.3216 8.41978 49.6409 8.94078 49.742 10.1122C49.7875 10.6275 49.9989 11.2643 50.2671 12.0691C50.3296 12.2575 50.3955 12.4573 50.4762 12.7047L50.4751 12.7036ZM55.0401 26.8126C53.6696 22.0373 52.3002 17.2677 50.7876 12.6037C50.7228 12.405 50.6489 12.1803 50.5773 11.9658C50.3171 11.1848 50.1114 10.5651 50.0693 10.0838C49.9875 9.14736 50.6057 8.72512 52.9173 8.52421C68.7638 7.14168 86.4821 6.72283 104.065 7.34032C120.861 7.92942 137.538 9.46519 152.349 12.01C158.618 16.3688 164.348 21.3983 169.683 26.8342C174.947 32.1963 179.827 37.9546 184.463 43.8525C148.724 42.2917 113.669 42.2111 78.144 42.1305C74.6052 42.1226 71.0606 42.1147 67.5115 42.1044C67.0319 42.1033 66.575 42.1067 66.1386 42.1101C61.8509 42.1453 59.6052 42.1646 58.0381 37.0431C57.0119 33.6889 56.0243 30.2474 55.0379 26.8104L55.0401 26.8126Z" fill="#303030"/>
<path fill-rule="evenodd" clip-rule="evenodd" d="M193.91 45.3453C187.477 43.276 186.815 42.4905 184.029 39.1761C183.21 38.2033 182.216 37.0206 180.858 35.5359L179.884 36.4213C181.223 37.8844 182.208 39.0569 183.018 40.0206C186.002 43.5689 186.71 44.4099 193.508 46.5961L193.909 45.3453H193.91Z" fill="#303030"/>
<path fill-rule="evenodd" clip-rule="evenodd" d="M35.7093 2.35734L36.8048 2.41068C40.4244 2.58548 44.369 2.77618 48.0068 3.4595C50.099 3.85223 51.5627 4.2586 52.7332 4.95213C53.8981 5.64226 54.7834 6.6241 55.7232 8.16894L56.0039 7.99868C55.0334 6.40389 54.1163 5.388 52.9003 4.66836C51.6911 3.95212 50.1956 3.53555 48.067 3.136C44.4088 2.44928 40.4517 2.25858 36.8207 2.08264L35.7252 2.0293L35.7093 2.35734Z" fill="#303030"/>
<path fill-rule="evenodd" clip-rule="evenodd" d="M32.5858 2.54028C33.395 2.60839 34.328 2.67536 35.3281 2.748C38.842 2.99999 43.1855 3.31214 46.53 4.02156C48.429 4.42452 49.7029 4.94098 50.6564 5.64813C51.6053 6.35188 52.2463 7.25313 52.8782 8.42454L53.168 8.26903C52.5145 7.0579 51.8485 6.12373 50.853 5.38479C49.8598 4.64926 48.546 4.1135 46.5993 3.70033C43.2332 2.98637 38.8761 2.67309 35.3519 2.4211C34.3655 2.35073 33.445 2.28375 32.6131 2.21338L32.5858 2.54142V2.54028Z" fill="#303030"/>
<path fill-rule="evenodd" clip-rule="evenodd" d="M136.617 6.29626C137.373 6.52101 138.104 6.72533 138.8 6.91943C142.264 7.88765 144.86 8.61296 147.948 11.2293L148.16 10.9785C145.018 8.31557 142.393 7.58231 138.888 6.60273C138.207 6.41204 137.491 6.21227 136.712 5.98071L136.617 6.29626Z" fill="#303030"/>
<path fill-rule="evenodd" clip-rule="evenodd" d="M146.002 8.24727C146.217 8.35396 146.506 8.49699 146.765 8.62411C148.731 9.59234 149.299 9.87157 150.945 11.7308L151.191 11.5129C149.503 9.60596 148.922 9.31879 146.912 8.329C146.705 8.22684 146.487 8.12014 146.15 7.95215L146.004 8.24613L146.002 8.24727Z" fill="#303030"/>
<path fill-rule="evenodd" clip-rule="evenodd" d="M21.0807 6.74219C19.3658 6.80689 17.1656 7.0078 14.9746 7.26319C12.3585 7.56853 9.74807 7.94991 7.98772 8.26774C6.14895 8.59804 4.88751 9.03959 3.90448 9.65821C2.91805 10.2791 2.21913 11.0737 1.50885 12.11C0.0144272 14.2882 -1.39817 16.9091 -2.72554 19.8092C-4.05177 22.706 -5.29276 25.8819 -6.44398 29.1725C-7.97591 33.5517 -9.63057 38.6255 -11.0261 43.7594C-12.4228 48.8991 -13.5638 54.1068 -14.0673 58.7527C-14.89 66.3317 -14.1672 72.5417 -13.3331 79.6995C-12.9512 82.9753 -12.5467 86.451 -12.2569 90.3443C-12.6239 92.2433 -12.8444 93.4022 -12.9172 94.3398C-12.9899 95.2921 -12.9092 96.0117 -12.6717 97.0288C-12.1023 99.4692 -11.483 101.701 -10.7625 103.856C-10.0431 106.01 -9.22257 108.086 -8.25091 110.214C-7.08492 112.77 -6.30418 114.146 -5.15069 115.018C-3.99606 115.889 -2.49484 116.239 0.117847 116.746L44.0675 125.287L44.1289 124.963L0.179218 116.423C-2.38346 115.924 -3.85287 115.585 -4.95295 114.754C-6.05303 113.923 -6.80992 112.582 -7.95318 110.077C-8.91916 107.96 -9.73512 105.895 -10.4511 103.751C-11.167 101.609 -11.783 99.3863 -12.3512 96.9527C-12.5808 95.9697 -12.6581 95.2762 -12.5887 94.3636C-12.5183 93.4408 -12.2967 92.2841 -11.9296 90.384L-11.925 90.3624V90.3409C-12.2171 86.4305 -12.6228 82.9447 -13.0058 79.6609C-13.8377 72.5213 -14.5582 66.3283 -13.7399 58.7868C-13.2376 54.1636 -12.1012 48.9717 -10.7068 43.8446C-9.31123 38.7106 -7.66111 33.647 -6.1326 29.2804C-4.98365 25.9977 -3.74605 22.8308 -2.4255 19.9454C-1.10609 17.0623 0.297421 14.4585 1.78162 12.295C2.46803 11.2939 3.13966 10.5288 4.08064 9.93631C5.0273 9.34152 6.25237 8.9136 8.04682 8.59124C9.79467 8.27682 12.3983 7.89543 15.0132 7.59123C17.2009 7.33697 19.3931 7.13493 21.0932 7.07136L21.0818 6.74332L21.0807 6.74219Z" fill="#303030"/>
<path fill-rule="evenodd" clip-rule="evenodd" d="M44.8666 116.366L44.62 115.289C43.3063 109.571 42.8835 107.729 43.9665 101.092L43.9688 101.077V101.066C43.9688 96.9074 43.8324 93.0606 43.7029 89.4136C43.2278 76.0344 42.8483 65.3476 49.7079 50.6256L49.7181 50.604L49.7215 50.5791C50.159 47.6085 50.4704 44.5756 50.5704 41.5381C50.6715 38.5007 50.5602 35.4598 50.1545 32.4722C49.7601 29.5698 49.276 26.6743 48.6544 23.8161C48.0316 20.9535 47.2702 18.1214 46.3212 15.3496C45.5951 13.2292 44.7154 11.4653 43.2415 10.0975C41.7675 8.72977 39.706 7.76381 36.6206 7.24281C31.6884 6.40966 27.262 6.54814 22.0923 6.71046L20.9308 6.74678L20.9399 7.07482L22.1013 7.0385C27.2528 6.87732 31.6634 6.73883 36.566 7.56631C39.5821 8.07596 41.5891 9.0124 43.0165 10.3382C44.4438 11.6628 45.2996 13.3825 46.0087 15.4551C46.9531 18.2134 47.7111 21.0329 48.3316 23.8865C48.9532 26.7435 49.4351 29.63 49.8283 32.5177C50.2318 35.487 50.3408 38.5097 50.2408 41.5291C50.1408 44.5404 49.8317 47.5529 49.3976 50.5087C42.5164 65.2886 42.8971 76.0071 43.3733 89.4249C43.5017 93.0515 43.6381 96.8767 43.6381 101.056C42.5482 107.743 42.9744 109.603 44.2984 115.362L44.545 116.439L44.8655 116.365L44.8666 116.366Z" fill="#303030"/>
<path fill-rule="evenodd" clip-rule="evenodd" d="M3.24898 15.3168C1.4534 19.0319 0.0248795 22.8015 -1.19452 26.646C-2.41279 30.4905 -3.42309 34.41 -4.3777 38.4281L-4.39019 38.4792C-5.26298 42.1501 -6.40055 46.9356 -3.41966 47.8686L-3.40149 47.8743H-3.38332L10.8859 49.006L10.9609 49.0116L11.0143 48.9583C11.3655 48.6087 11.5791 48.25 11.7302 47.8391C11.878 47.4373 11.9644 46.9889 12.0644 46.4429C13.1917 40.3237 14.5509 34.5643 16.1942 28.8969C17.8375 23.2305 19.7661 17.6528 22.0333 11.8968L22.0526 11.848C22.4094 10.941 22.6435 10.3474 22.6003 9.95691C22.5367 9.38369 22.0049 9.27813 20.6695 9.42455L9.59942 10.6448C7.55268 10.8706 6.42081 11.1033 5.56166 11.7572C4.70364 12.4087 4.14791 13.4575 3.25126 15.3156L3.24898 15.3168ZM-0.879726 26.7448C0.335131 22.9116 1.75912 19.1567 3.54561 15.4598C4.42067 13.6471 4.95934 12.6278 5.7594 12.0194C6.55832 11.4121 7.64928 11.1919 9.63465 10.9728L20.7048 9.75259C21.8037 9.63114 22.2367 9.67541 22.2719 9.99437C22.306 10.3031 22.0844 10.8672 21.7446 11.7288L21.7253 11.7776C19.457 17.5381 17.525 23.125 15.8772 28.8061C14.2305 34.486 12.8678 40.2556 11.7393 46.3839C11.6428 46.9117 11.5586 47.3465 11.42 47.7256C11.2927 48.0729 11.1166 48.3771 10.8336 48.6722L-3.33898 47.5496C-6.00508 46.6949 -4.91067 42.091 -4.0697 38.5553L-4.05722 38.5042C-3.10374 34.4928 -2.09572 30.5791 -0.880865 26.7459L-0.879726 26.7448Z" fill="#303030"/>
<path fill-rule="evenodd" clip-rule="evenodd" d="M22.2807 10.6162L9.94799 11.8671C6.59889 12.2065 6.30568 12.8046 4.96808 15.5425C4.86353 15.7581 4.75102 15.9863 4.68397 16.1225C3.05772 19.4188 1.44626 23.9046 0.0938892 28.3973C-1.48463 33.6425 -2.71084 38.9024 -3.1927 42.2929C-3.42567 43.9331 -3.49272 44.8786 -3.07905 45.4757C-2.66198 46.0784 -1.79828 46.2759 -0.177708 46.411L11.7356 47.4042L11.7629 47.0761L-0.150434 46.0829C-1.66759 45.9569 -2.46425 45.7867 -2.80859 45.2895C-3.15748 44.7855 -3.08816 43.8956 -2.86655 42.3383C-2.38697 38.9649 -1.16415 33.7231 0.409824 28.4915C1.75765 24.0136 3.3623 19.5459 4.97946 16.2678C5.11356 15.9965 5.19084 15.8376 5.26471 15.6866C6.53639 13.0827 6.81482 12.5141 9.97981 12.194L22.3125 10.9431L22.2807 10.6162Z" fill="#303030"/>
<path fill-rule="evenodd" clip-rule="evenodd" d="M7.97069 12.2246C5.7194 18.0056 3.81359 23.4086 2.20779 28.8989C0.601996 34.3916 -0.702652 39.9694 -1.75273 46.0988L-1.42769 46.1544C-0.379889 40.0341 0.92134 34.4676 2.52373 28.9909C4.12611 23.5118 6.0285 18.1168 8.27753 12.3427L7.97069 12.2246Z" fill="#303030"/>
<path fill-rule="evenodd" clip-rule="evenodd" d="M89.5301 85.9279C86.8799 66.3738 82.5558 65.6689 67.3706 63.1933L66.0421 62.9765C53.6787 60.9481 31.1237 58.4612 11.2757 56.2716C4.70708 55.5474 -1.5638 54.855 -7.09374 54.2217C-9.23821 53.9674 -9.97804 52.3011 -10.078 50.2977C-10.1803 48.2398 -9.6155 45.8289 -9.18137 44.1819C-7.79037 38.9049 -6.29483 33.5984 -4.42879 28.4462C-2.56388 23.2975 -0.328491 18.2998 2.5433 13.6323C3.11494 12.7038 3.69452 11.9694 4.52753 11.3973C5.36509 10.8218 6.46745 10.4007 8.08575 10.0988C12.3849 9.29402 16.8625 8.79913 21.3526 8.60276C25.9381 8.40185 30.5384 8.51309 34.9751 8.92285C37.4423 9.151 39.2107 9.55396 40.5528 10.2645C41.8836 10.9683 42.7996 11.9808 43.5723 13.4303C44.7929 15.7197 45.7975 19.0376 46.6214 22.6108C47.4465 26.1897 48.0897 30.0251 48.5852 33.3407C49.1204 36.9208 49.1886 40.5349 48.9272 43.7222C48.6397 47.2307 47.9556 50.2171 47.0589 52.0639L47.3556 52.2069C48.2693 50.3249 48.9659 47.2977 49.2568 43.7483C49.5194 40.5394 49.4512 36.8992 48.9125 33.293C48.4159 29.9718 47.7715 26.1284 46.943 22.537C46.1134 18.9399 45.0997 15.5937 43.8632 13.2748C43.0586 11.7651 42.1018 10.7095 40.7074 9.97167C39.3255 9.23954 37.5173 8.82524 35.0058 8.59368C30.5532 8.18278 25.9381 8.07154 21.3389 8.27245C16.8318 8.46996 12.3383 8.96599 8.02551 9.77416C6.35835 10.0863 5.21736 10.5233 4.34116 11.126C3.46156 11.731 2.85696 12.495 2.2626 13.4586C-0.621689 18.1454 -2.86617 23.1636 -4.7379 28.3327C-6.60848 33.4973 -8.10631 38.8118 -9.49959 44.0967C-9.93939 45.7642 -10.511 48.2091 -10.4065 50.3113C-10.2996 52.4691 -9.48824 54.2671 -7.13239 54.5463C-1.63541 55.1763 4.65369 55.8698 11.2394 56.5962C31.0874 58.7847 53.6412 61.2728 65.9898 63.2978L67.3183 63.5146C82.316 65.9595 86.5867 66.6565 89.2051 85.9699L89.5312 85.9256L89.5301 85.9279Z" fill="#303030"/>
<path fill-rule="evenodd" clip-rule="evenodd" d="M25.1124 6.71061C23.1168 11.0205 20.9099 17.8582 18.9165 25.1806C16.6311 33.5734 14.6253 42.6109 13.5411 49.2092L13.865 49.2614C14.9469 42.6779 16.9505 33.654 19.2336 25.2658C21.2235 17.9581 23.4237 11.1386 25.4102 6.84682L25.1113 6.70947L25.1124 6.71061ZM12.8706 49.0661C6.73269 61.3455 7.77595 76.3773 8.71919 89.9608C8.81466 91.332 8.909 92.6896 8.99423 94.0153C8.88059 95.1992 8.52487 96.2571 8.1578 97.3491C7.99188 97.844 7.82255 98.3457 7.67481 98.8621L7.66574 98.8928L7.66912 98.9257C8.0646 102.329 8.68513 105.687 9.31358 109.09C9.89544 112.242 10.4852 115.433 10.908 118.727L11.2342 118.686C10.8091 115.375 10.2193 112.183 9.63631 109.031C9.01127 105.648 8.39419 102.307 7.99984 98.9212C8.14644 98.4115 8.30894 97.9291 8.46918 97.4535C8.84307 96.3389 9.20673 95.2605 9.32265 94.0312V94.0165V94.0051C9.23628 92.6589 9.14197 91.3059 9.04764 89.9381C8.1078 76.3978 7.06682 61.4124 13.165 49.2126L12.8706 49.0661Z" fill="#303030"/>
<path fill-rule="evenodd" clip-rule="evenodd" d="M-3.43163 121.224L43.9695 131.32L44.2422 130.033L-3.15773 119.938L-3.43163 121.224Z" fill="#303030"/>
<path fill-rule="evenodd" clip-rule="evenodd" d="M3.5276 7.60944C1.81498 9.33136 -0.131735 12.5312 -2.1171 16.5051C-4.45136 21.1793 -6.84585 26.9365 -8.97555 32.6255C-13.252 44.0467 -15.1339 52.5916 -15.5896 61.2C-16.0442 69.8005 -15.076 78.4555 -13.652 90.1048C-13.7475 90.543 -13.8054 90.8029 -13.86 91.0458C-14.2464 92.7757 -14.4782 93.8109 -14.3964 94.9142C-14.1509 98.2366 -12.5213 103.425 -10.4007 108.403C-8.26869 113.409 -5.6378 118.208 -3.41719 120.69L-3.17286 120.471C-5.36847 118.016 -7.97888 113.251 -10.0983 108.274C-12.2053 103.326 -13.8259 98.1775 -14.0679 94.8903C-14.1463 93.8313 -13.9191 92.8143 -13.5395 91.1151C-13.4611 90.7632 -13.3759 90.3841 -13.3236 90.1457L-13.3179 90.1185L-13.3213 90.0912C-14.7464 78.443 -15.7158 69.7926 -15.2612 61.2148C-14.8078 52.6392 -12.9315 44.1239 -8.66758 32.7379C-6.54243 27.0636 -4.1536 21.319 -1.82162 16.6504C0.148978 12.7037 2.07637 9.53341 3.76172 7.83873L3.52874 7.60718L3.5276 7.60944Z" fill="#303030"/>
<path fill-rule="evenodd" clip-rule="evenodd" d="M18.612 35.7038C19.5188 31.7072 20.4485 27.6617 21.527 23.6538C22.6032 19.6526 23.8248 15.6968 25.3124 11.8841L25.3431 11.8047C26.1727 9.67751 26.2227 9.55038 28.5297 9.63551C30.3685 9.70362 32.4334 9.80351 34.271 9.96923C36.1007 10.1338 37.7065 10.3642 38.6406 10.6934C39.9987 11.1713 41.009 11.8977 41.8204 12.925C42.6386 13.9613 43.2591 15.3098 43.833 17.0215C44.6365 19.4199 45.3104 21.9262 45.8912 24.4744C46.4719 27.0238 46.9605 29.6186 47.3947 32.1907C47.9868 35.6992 48.2345 38.4575 48.2584 41.2157C48.2811 43.966 48.08 46.7277 47.7754 50.2407C47.6833 50.4882 47.6117 50.705 47.5458 50.9059C47.3106 51.6221 47.1356 52.1534 46.4696 52.7209C44.9366 52.0989 42.7659 51.6551 40.568 51.3327C38.3304 51.0035 36.0655 50.7981 34.4165 50.6562L34.3892 50.9842C36.0348 51.1261 38.2952 51.3304 40.5203 51.6585C42.7398 51.9854 44.9275 52.4337 46.4355 53.0626L46.5264 53.1L46.6026 53.0376C47.406 52.3861 47.597 51.8038 47.8595 51.0081C47.9288 50.7958 48.005 50.5677 48.0925 50.3327L48.1015 50.31V50.2896C48.4095 46.7663 48.6118 43.9944 48.5879 41.2134C48.5652 38.4359 48.3152 35.6618 47.7208 32.1374C47.2856 29.5619 46.7958 26.9614 46.2128 24.404C45.6298 21.8444 44.9536 19.3268 44.1456 16.9182C43.5592 15.1702 42.9228 13.791 42.0795 12.7229C41.2295 11.6446 40.1714 10.8841 38.7509 10.3847C37.7906 10.0464 36.1564 9.81145 34.3006 9.64459C32.4527 9.47773 30.3833 9.37785 28.5411 9.30975C26.0011 9.21667 25.9466 9.35628 25.0374 11.6889L25.0067 11.7683C23.5123 15.597 22.2884 19.5629 21.2099 23.572C20.1337 27.5732 19.2006 31.6288 18.2926 35.6357L18.6131 35.7072L18.612 35.7038ZM16.5777 49.2328C16.5198 48.9876 16.4743 48.5835 16.4686 48.1295C16.463 47.7493 16.4845 47.3349 16.5459 46.9524L16.222 46.9013C16.1572 47.3032 16.1345 47.7368 16.1402 48.134C16.147 48.6153 16.1948 49.0466 16.2573 49.3088L16.5777 49.2328Z" fill="#303030"/>
<path fill-rule="evenodd" clip-rule="evenodd" d="M20.9258 49.4564L10.908 48.6777L10.8842 49.0058L20.9008 49.7844L20.9258 49.4564Z" fill="#303030"/>
<path fill-rule="evenodd" clip-rule="evenodd" d="M17.3255 37.1725C16.9243 37.9285 16.6516 38.6016 16.4493 39.3019C16.2481 40 16.1174 40.7208 15.9992 41.5778C15.6572 44.0534 15.6719 45.7435 16.2208 46.9546C16.7777 48.1839 17.8664 48.9081 19.6665 49.4382C22.8327 50.3701 27.6671 50.6232 31.8117 50.84C32.6413 50.8832 33.4437 50.9252 34.2107 50.9717C35.1426 51.0273 35.837 50.9717 36.4336 50.8173C37.0337 50.6607 37.5292 50.4064 38.0633 50.0636C39.443 49.1771 40.4953 48.2407 41.3942 47.1692C42.2909 46.1011 43.033 44.9024 43.7967 43.4904L43.9023 43.2951L43.6842 43.2509C42.8739 43.0886 42.3125 42.8048 41.892 42.4223C41.4704 42.0375 41.184 41.5483 40.9283 40.9796C40.3101 39.6016 39.7702 38.4858 39.1759 37.504C38.5781 36.5176 37.9246 35.6663 37.0803 34.8229C35.9597 33.7037 34.9199 33.0306 33.8766 32.6424C32.8322 32.2542 31.7901 32.1532 30.6628 32.1804C29.5036 32.2077 28.3251 32.2973 27.1455 32.4233C25.9602 32.5505 24.7783 32.7151 23.6157 32.8944C21.9963 33.143 20.8235 33.4642 19.8518 34.0987C18.8779 34.7344 18.1165 35.6788 17.3255 37.1714V37.1725ZM16.7652 39.3927C16.9607 38.7174 17.2243 38.0636 17.6164 37.3258C18.3801 35.8853 19.1085 34.9795 20.0325 34.3757C20.9575 33.7707 22.0917 33.4631 23.6657 33.2213C24.8317 33.042 26.0113 32.8774 27.1796 32.7525C28.3547 32.6265 29.5241 32.538 30.6696 32.5107C31.7583 32.4846 32.7629 32.58 33.7607 32.9523C34.7608 33.3246 35.762 33.975 36.8473 35.059C37.6701 35.8797 38.3088 36.7117 38.8929 37.6765C39.4804 38.647 40.0146 39.7526 40.6271 41.1158C40.8999 41.7219 41.2078 42.2475 41.6692 42.6686C42.0931 43.0545 42.6409 43.3485 43.4012 43.5301C42.6841 44.8411 41.9795 45.9614 41.1408 46.9615C40.2634 48.0069 39.2338 48.9229 37.8837 49.7901C37.3769 50.1147 36.9087 50.3565 36.3495 50.5018C35.787 50.6482 35.1245 50.7004 34.2278 50.6459C33.4766 50.6005 32.6652 50.5574 31.8254 50.5143C27.6989 50.2986 22.8861 50.0477 19.7563 49.1261C18.0539 48.6243 17.03 47.9524 16.5186 46.823C15.9981 45.6754 15.989 44.0398 16.3231 41.6266C16.4402 40.7821 16.5675 40.0738 16.7629 39.3961L16.7652 39.3927Z" fill="#303030"/>
<path fill-rule="evenodd" clip-rule="evenodd" d="M43.5577 43.3885C43.635 42.914 43.7236 42.3658 43.8111 41.822C44.518 37.4418 45.1873 33.2908 46.5215 28.9877L46.5352 28.9446L46.5238 28.9003C46.3136 28.0456 46.0988 27.133 45.8806 26.2067C45.151 23.108 44.3827 19.8458 43.3588 16.9922C42.9656 15.8957 42.4849 14.8389 41.8587 13.966C41.2234 13.0807 40.437 12.3826 39.4381 12.0194C38.0289 11.5074 36.0492 11.176 33.8775 10.9649C31.7148 10.7549 29.3589 10.6629 27.1883 10.6278L27.0679 10.6255L27.0292 10.739C25.7007 14.6528 24.5518 18.3804 23.5267 22.1397C22.5016 25.8969 21.6004 29.6812 20.7663 33.7108L21.0879 33.7766C21.9221 29.7505 22.821 25.9729 23.8427 22.226C24.8541 18.5177 25.9883 14.8321 27.302 10.9581C29.4305 10.9933 31.7307 11.0852 33.8456 11.2918C35.9912 11.5006 37.9425 11.8264 39.3244 12.3281C40.2529 12.6652 40.9905 13.3224 41.5894 14.1579C42.1974 15.0058 42.6656 16.0341 43.0486 17.1034C44.0634 19.932 44.8305 23.1886 45.559 26.2828C45.7692 27.1772 45.9772 28.0581 46.1931 28.9355C44.8612 33.2431 44.1918 37.393 43.4861 41.771C43.4065 42.2636 43.327 42.7596 43.2327 43.3362L43.5565 43.3885H43.5577Z" fill="#303030"/>
<path fill-rule="evenodd" clip-rule="evenodd" d="M43.6984 43.5713L43.7598 43.5531C44.569 43.3113 45.5338 43.023 46.3532 42.9924C46.6009 42.9833 46.7896 43.0253 46.9191 43.1717C47.0646 43.3363 47.1589 43.6326 47.2078 44.1275C47.3464 45.5202 47.2817 46.7824 46.8896 47.8891C46.5009 48.9867 45.7861 49.9357 44.6224 50.7109C44.2019 50.9913 43.9121 51.1718 43.6541 51.1967C43.4075 51.2206 43.1564 51.0991 42.7927 50.7802L42.7495 50.7416L42.6916 50.7393L36.4127 50.4873L36.4002 50.8154L42.6222 51.0651C43.0393 51.4204 43.353 51.5554 43.6871 51.5236C44.0212 51.4919 44.3451 51.2921 44.8076 50.9845C46.035 50.1661 46.7896 49.1627 47.2021 47.9992C47.6112 46.8437 47.6805 45.535 47.5374 44.0968C47.4805 43.5281 47.3601 43.1729 47.168 42.9561C46.96 42.7211 46.6896 42.653 46.3452 42.6655C45.4804 42.6973 44.4962 42.9924 43.6689 43.2398L43.6075 43.258L43.7019 43.5735L43.6984 43.5713Z" fill="#303030"/>
<path fill-rule="evenodd" clip-rule="evenodd" d="M42.5664 45.2692L30.0201 44.8855L19.4352 44.4814L15.8327 44.2192L15.81 44.5473L19.4114 44.8095H19.4171L30.0076 45.2136H30.0098L42.5573 45.5972L42.5664 45.2692Z" fill="#303030"/>
<path fill-rule="evenodd" clip-rule="evenodd" d="M59.4304 40.218L50.4366 40.8684L50.4604 41.1965L59.4531 40.5461L59.4304 40.218Z" fill="#303030"/>
<path fill-rule="evenodd" clip-rule="evenodd" d="M15.1476 64.2692C15.3544 62.5371 15.0612 61.4701 14.5771 60.965C14.3657 60.7448 14.1179 60.6267 13.8566 60.6017C13.5986 60.5768 13.3315 60.6449 13.0758 60.7947C12.444 61.1681 11.8723 62.0751 11.7257 63.3702L12.053 63.4065C12.1871 62.2215 12.6906 61.4054 13.244 61.0773C13.4395 60.9616 13.6395 60.9093 13.8259 60.9275C14.01 60.9445 14.1861 61.0308 14.3407 61.192C14.7646 61.6335 15.0157 62.6086 14.8214 64.2306L15.1487 64.2692H15.1476ZM11.4257 66.0229C11.2643 67.4497 11.5882 68.4304 12.0917 68.9105C12.303 69.1114 12.5451 69.2283 12.8008 69.2579C13.0565 69.2874 13.3202 69.2284 13.5725 69.0785C14.1782 68.7198 14.7237 67.8209 14.901 66.3407L14.5736 66.3021C14.41 67.6676 13.9316 68.4826 13.4043 68.7948C13.2156 68.9071 13.0213 68.9514 12.8383 68.9298C12.6542 68.9094 12.4758 68.822 12.319 68.6722C11.8814 68.2556 11.6041 67.3725 11.753 66.0581L11.4257 66.0217V66.0229Z" fill="#303030"/>
<path fill-rule="evenodd" clip-rule="evenodd" d="M11.9653 62.762C11.8687 62.7597 11.7574 62.7552 11.6426 62.7506C10.6027 62.7098 9.27195 62.6587 9.09352 63.8539L8.99126 64.5373V64.5407C8.85034 65.6735 9.57312 65.9368 10.6482 66.0708C10.8357 66.0935 11.0619 66.115 11.2994 66.1377L11.5733 66.1638L14.7462 66.4737C14.786 66.4771 14.8576 66.4862 14.9235 66.493C15.544 66.5634 16.0281 66.6179 16.194 65.779L16.3634 64.9186C16.5338 64.0537 15.8736 63.7983 15.2633 63.5622L15.1167 63.5043L14.9189 63.4271L14.8939 63.6383L14.8292 64.1797C14.8132 64.2558 14.5973 64.2853 14.3007 64.2807C14.0882 64.2773 13.8405 64.249 13.5848 64.199C13.3302 64.1502 13.0722 64.0798 12.8404 63.9958C12.3722 63.8256 12.0119 63.6099 12.054 63.4135V63.4045L12.1256 62.9516L12.1551 62.7665L11.9676 62.762H11.9653ZM11.6289 63.0787L11.771 63.0844L11.7301 63.3454C11.646 63.7416 12.1096 64.081 12.7267 64.3046C12.9767 64.3954 13.2518 64.4703 13.5222 64.5225C13.7916 64.5747 14.0598 64.6054 14.2939 64.6088C14.7655 64.6167 15.1144 64.5009 15.1542 64.2228V64.2183L15.194 63.8869C15.6656 64.0696 16.1531 64.2796 16.0395 64.854L15.8702 65.7143C15.7633 66.2558 15.4099 66.2149 14.9587 66.165C14.9076 66.1593 14.8587 66.1536 14.7757 66.1457L11.6028 65.8358L11.3278 65.8097C11.1119 65.7892 10.905 65.77 10.6868 65.7427C9.80608 65.6337 9.21171 65.4294 9.31626 64.5793L9.41856 63.9005C9.5538 62.997 10.7186 63.0424 11.6301 63.0775L11.6289 63.0787Z" fill="#303030"/>
<path fill-rule="evenodd" clip-rule="evenodd" d="M226.898 66.2647L131.455 65.8606C127.846 65.5179 124.315 65.1399 120.815 64.7664C113.492 63.9844 106.306 63.2159 98.571 62.7812C96.0117 62.637 95.148 63.175 95.0809 64.3737C95.0378 65.1421 95.3492 66.1705 95.7435 67.4736L95.8605 67.8607L98.8198 77.6973V77.6995C99.7733 80.7064 101.401 82.51 103.63 83.6474C105.843 84.7756 108.642 85.2387 111.962 85.5725L139.88 88.3114H139.885H139.894C147.678 88.3477 155.256 88.4578 162.688 88.5668C184.758 88.8869 205.554 89.1888 226.714 87.5055H226.716L227.224 87.4601C227.915 87.3988 228.707 87.3284 229.447 87.2115C231.467 86.8914 233.649 86.4158 235.568 85.9164C237.664 85.3727 239.452 84.7995 240.384 84.3693C241.454 83.8755 242.009 83.123 242.256 82.2296C242.498 81.3545 242.438 80.3511 242.277 79.3306C241.919 77.0707 241.459 74.922 240.88 72.8085C240.299 70.6915 239.599 68.6109 238.763 66.4895L238.751 66.4611L238.732 66.4395L236.105 63.5326L236.034 63.4554L235.934 63.4861L226.898 66.2636V66.2647ZM131.446 66.1887L226.922 66.5928H226.947L226.971 66.586L235.93 63.8323L238.467 66.6393C239.297 68.7449 239.99 70.8051 240.563 72.8959C241.139 74.9992 241.597 77.1354 241.953 79.3829C242.108 80.3647 242.167 81.3238 241.94 82.1445C241.719 82.947 241.216 83.6258 240.247 84.073C239.33 84.4964 237.561 85.0617 235.486 85.6008C233.575 86.0969 231.404 86.5702 229.396 86.8892C228.684 87.0015 227.889 87.073 227.197 87.1332C227.068 87.1445 226.953 87.1548 226.689 87.1797C205.533 88.8631 184.751 88.5611 162.694 88.241C155.264 88.1332 147.689 88.0231 139.906 87.9856L111.995 85.2478C108.713 84.9175 105.949 84.4612 103.78 83.3556C101.629 82.2592 100.057 80.5145 99.1358 77.6019L96.1776 67.7676L96.0606 67.3794C95.6753 66.1058 95.3707 65.1001 95.4105 64.3918C95.4651 63.4134 96.2435 62.9787 98.5539 63.1092C106.278 63.5439 113.463 64.3113 120.78 65.0933C124.267 65.4656 127.784 65.8413 131.432 66.1887H131.439H131.447H131.446Z" fill="#303030"/>
<path fill-rule="evenodd" clip-rule="evenodd" d="M131.307 66.1127L140.19 79.9857C140.897 81.089 141.365 82.1185 141.33 83.0254C141.296 83.9096 140.768 84.6951 139.49 85.3432L135.147 87.5453L135.295 87.8382L139.637 85.6361C141.04 84.9244 141.618 84.0424 141.658 83.0368C141.697 82.0526 141.206 80.9652 140.466 79.8097L131.583 65.9368L131.306 66.1127H131.307Z" fill="#303030"/>
<path fill-rule="evenodd" clip-rule="evenodd" d="M129.796 65.9686L138.665 79.6679C138.736 79.7825 138.83 79.9335 138.918 80.0754C139.199 80.5294 139.458 80.946 139.657 81.3262C140.335 82.6191 140.359 83.5919 138.365 84.6327L133.158 87.3524L133.31 87.6429L138.518 84.9233C140.756 83.7542 140.721 82.6486 139.949 81.1741C139.74 80.7746 139.48 80.3569 139.198 79.9028C139.122 79.7791 139.046 79.6588 138.946 79.4965L138.944 79.4931L130.074 65.7915L129.798 65.9709L129.796 65.9686Z" fill="#303030"/>
<path fill-rule="evenodd" clip-rule="evenodd" d="M130.706 69.2614L95.5287 66.1047L95.2775 66.082L95.3582 66.3204L98.4448 75.3988C99.3562 78.081 100.237 79.8006 101.579 80.9346C102.924 82.0708 104.715 82.6077 107.445 82.9244L133.461 85.9323L133.511 85.938L133.555 85.9153L137.458 83.8903C138.956 83.1128 139.247 82.879 138.802 82.0242C138.692 81.8131 138.534 81.5668 138.335 81.2581C138.24 81.1105 138.135 80.9471 138.034 80.787L130.83 69.3374L130.787 69.2693L130.705 69.2625L130.706 69.2614ZM95.7514 66.4532L130.596 69.5803L137.757 80.9618C137.873 81.1468 137.97 81.2978 138.059 81.4351C138.254 81.7393 138.41 81.9811 138.511 82.1752C138.815 82.7598 138.566 82.9448 137.308 83.5975L133.45 85.5986L107.483 82.5963C104.818 82.2887 103.078 81.7711 101.792 80.6826C100.503 79.5929 99.6494 77.9164 98.7562 75.2921L95.7503 66.4532H95.7514Z" fill="#303030"/>
<path fill-rule="evenodd" clip-rule="evenodd" d="M130.984 67.3148C128.46 67.0696 125.928 66.8188 123.413 66.5691C114.518 65.6871 105.85 64.8267 96.6263 64.1661L96.599 64.1638L96.5706 64.1718L95.1978 64.5543L95.2853 64.871L96.6297 64.4964C105.859 65.1582 114.507 66.0163 123.38 66.8971C125.866 67.1434 128.371 67.392 130.953 67.6428L130.983 67.3159L130.984 67.3148Z" fill="#303030"/>
<path fill-rule="evenodd" clip-rule="evenodd" d="M224.999 66.4725L225.028 66.5599C225.708 68.611 225.891 69.1615 225.789 71.3023L225.324 81.0833C225.274 82.1264 225.291 82.7813 225.456 83.3285C225.623 83.8835 225.934 84.3126 226.471 84.8994L226.478 84.9062L226.489 84.9153L229.26 87.1877L229.469 86.9346L226.708 84.6713C226.209 84.1242 225.921 83.7291 225.772 83.2342C225.62 82.7291 225.605 82.1026 225.653 81.0992L226.117 71.3182C226.222 69.1173 226.034 68.5543 225.339 66.4578L225.31 66.3704L224.999 66.4736V66.4725Z" fill="#303030"/>
<path fill-rule="evenodd" clip-rule="evenodd" d="M226.019 66.4793C226.37 67.4884 226.553 68.1422 226.639 68.8006C226.726 69.46 226.717 70.1354 226.683 71.1842L226.343 81.7212L226.338 81.8551C226.301 82.9652 226.292 83.2433 227.219 84.0265L229.908 86.2978L229.968 86.3489L230.046 86.333C231.418 86.0549 233.565 85.4953 235.613 84.8597C237.298 84.3364 238.923 83.7587 240.003 83.2399C241.012 82.7552 241.435 82.022 241.548 81.1309C241.66 80.2683 241.476 79.2717 241.268 78.2138C241.198 77.8608 241.14 77.5634 241.084 77.2717C240.39 73.7007 239.67 69.9924 237.92 66.8142L237.906 66.7903L237.885 66.771L234.695 63.9492L234.477 64.1955L237.645 66.998C239.361 70.1263 240.073 73.7983 240.761 77.3352C240.827 77.6735 240.892 78.0072 240.945 78.2785C241.148 79.3114 241.327 80.2819 241.223 81.0912C241.123 81.8733 240.752 82.518 239.862 82.9448C238.801 83.4545 237.191 84.0254 235.516 84.5464C233.513 85.1684 231.422 85.7155 230.06 85.9959L227.432 83.7757C226.625 83.0946 226.634 82.8495 226.667 81.8653L226.671 81.7314L227.011 71.1944C227.045 70.1286 227.054 69.4407 226.964 68.7574C226.875 68.073 226.687 67.4021 226.329 66.3715L226.019 66.4782V66.4793Z" fill="#303030"/>
<path fill-rule="evenodd" clip-rule="evenodd" d="M235.144 65.7131L228.03 68.3L227.927 68.3374L227.922 68.4475L227.458 79.8346C227.354 82.4011 227.626 82.6848 228.432 83.5259C228.521 83.6179 228.615 83.7166 228.699 83.8074V83.8097L229.836 84.9958L229.902 85.0651L229.994 85.0424C231.683 84.6292 233.124 84.2535 234.532 83.8437C235.944 83.4317 237.318 82.9867 238.871 82.4351C239.781 82.1127 240.238 81.863 240.45 81.4271C240.659 80.9981 240.606 80.434 240.504 79.4657C240.307 77.6099 239.888 75.6417 239.345 73.7177C238.715 71.4895 237.919 69.3181 237.111 67.4464L237.098 67.4146L237.072 67.3908L235.312 65.7483L235.239 65.6802L235.144 65.7142V65.7131ZM228.246 68.5701L235.162 66.0559L236.823 67.6064C237.622 69.46 238.407 71.6064 239.029 73.8051C239.567 75.7132 239.983 77.6632 240.178 79.4975C240.274 80.4067 240.324 80.9345 240.155 81.2819C239.989 81.6213 239.583 81.8335 238.762 82.1241C237.207 82.6757 235.839 83.1196 234.441 83.527C233.066 83.9277 231.655 84.2966 230.009 84.6996L228.939 83.5815C228.832 83.4669 228.748 83.3784 228.67 83.2966C227.936 82.5305 227.688 82.2728 227.788 79.846L228.247 68.569L228.246 68.5701Z" fill="#303030"/>
<path d="M134.418 70.5405H225.98V70.8686H134.418V70.5405Z" fill="#303030"/>
<path d="M136.985 74.4783H225.797V74.8063H136.985V74.4783Z" fill="#303030"/>
<path fill-rule="evenodd" clip-rule="evenodd" d="M225.887 72.5417L135.633 72.3987V72.7267L225.887 72.8697V72.5417Z" fill="#303030"/>
<path d="M136.258 73.3433H225.852V73.6713H136.258V73.3433Z" fill="#303030"/>
<path fill-rule="evenodd" clip-rule="evenodd" d="M225.598 78.6042L139.867 78.77V79.098L225.598 78.9323V78.6042Z" fill="#303030"/>
<path d="M225.425 82.4312L225.426 82.7593L141.507 83.0811L141.506 82.7531L225.425 82.4312Z" fill="#303030"/>
<path d="M225.514 80.2652L225.516 80.5933L140.955 80.9765L140.953 80.6485L225.514 80.2652Z" fill="#303030"/>
<path d="M225.475 81.1668L225.477 81.4949L141.262 81.8766L141.261 81.5485L225.475 81.1668Z" fill="#303030"/>
<path fill-rule="evenodd" clip-rule="evenodd" d="M214.141 68.1026C214.228 68.5385 214.312 68.9846 214.39 69.4375C214.467 69.8813 214.537 70.3262 214.603 70.7723L214.929 70.7247C214.864 70.2786 214.792 69.8313 214.715 69.3819C214.639 68.9426 214.554 68.4942 214.462 68.0391L214.141 68.1038V68.1026ZM215.05 74.6384C215.11 75.3376 215.16 76.0266 215.202 76.7088C215.245 77.4057 215.279 78.097 215.309 78.7837L215.637 78.7713C215.608 78.072 215.574 77.3774 215.531 76.6895C215.487 75.9869 215.437 75.2934 215.378 74.61L215.05 74.6384ZM215.424 82.6782C215.441 83.5102 215.455 84.3411 215.468 85.1731L215.482 85.996L215.81 85.9904L215.797 85.1674C215.783 84.332 215.769 83.4989 215.752 82.6714L215.424 82.6782ZM217.027 85.9609L217.008 84.8099C216.997 84.0902 216.984 83.3729 216.971 82.6578L216.642 82.6634C216.656 83.3797 216.668 84.0971 216.68 84.8156L216.699 85.9665L217.027 85.9609ZM216.864 78.7826C216.836 78.0811 216.802 77.3853 216.761 76.6963C216.721 75.9937 216.672 75.2979 216.614 74.6112L216.285 74.6384C216.344 75.3376 216.392 76.03 216.433 76.7156C216.474 77.4137 216.508 78.1072 216.535 78.7962L216.864 78.7837V78.7826ZM216.174 70.7247C216.109 70.2774 216.039 69.8314 215.962 69.3864C215.885 68.9358 215.803 68.4886 215.715 68.047L215.391 68.1094C215.481 68.5578 215.562 69.0016 215.637 69.442C215.714 69.887 215.784 70.3308 215.848 70.7723L216.174 70.7258V70.7247Z" fill="#303030"/>
<path fill-rule="evenodd" clip-rule="evenodd" d="M227.477 85.3806C212.466 86.0503 197.701 86.3681 182.933 86.4294C168.164 86.4907 153.387 86.2966 138.353 85.9425L138.345 86.2705C153.379 86.6258 168.158 86.8199 182.934 86.7575C197.712 86.6962 212.481 86.3772 227.492 85.7087L227.477 85.3806Z" fill="#303030"/>
<path fill-rule="evenodd" clip-rule="evenodd" d="M225.886 67.8244C210.372 67.9413 194.871 68.0264 179.371 68.0684C163.87 68.1104 148.37 68.1116 132.855 68.0571V68.3851C148.37 68.4385 163.871 68.4385 179.371 68.3953C194.872 68.3522 210.373 68.2671 225.887 68.1513V67.8232L225.886 67.8244Z" fill="#303030"/>
<path fill-rule="evenodd" clip-rule="evenodd" d="M205.53 68.2422C205.591 68.6781 205.648 69.0969 205.702 69.4976C205.758 69.9233 205.813 70.341 205.864 70.7485L206.19 70.7076C206.137 70.2819 206.082 69.8654 206.028 69.4545C205.97 69.0186 205.913 68.5998 205.856 68.1968L205.53 68.2422ZM206.32 74.6588C206.396 75.3648 206.466 76.0572 206.532 76.7337C206.601 77.4352 206.665 78.1276 206.727 78.8109L207.054 78.7826C206.991 78.0799 206.927 77.3864 206.86 76.7031C206.79 75.9959 206.72 75.3024 206.647 74.6236L206.32 74.6588ZM207.044 82.7031C207.088 83.2968 207.13 83.887 207.17 84.4727C207.211 85.0686 207.251 85.6623 207.287 86.2514L207.615 86.231C207.578 85.6305 207.538 85.0368 207.498 84.4511C207.457 83.8541 207.415 83.2639 207.372 82.6804L207.044 82.7031ZM208.836 86.1992C208.798 85.6021 208.759 85.0107 208.719 84.4262C208.678 83.8314 208.636 83.2423 208.593 82.66L208.264 82.6827C208.309 83.2752 208.351 83.8632 208.39 84.4466C208.431 85.0414 208.47 85.6316 208.508 86.2185L208.836 86.198V86.1992ZM208.279 78.7826C208.221 78.1288 208.156 77.4363 208.086 76.7031C208.018 75.9959 207.946 75.3024 207.875 74.6236L207.547 74.6588C207.622 75.3648 207.693 76.0561 207.759 76.7337C207.822 77.3853 207.886 78.0788 207.951 78.8109L208.279 78.7826ZM207.42 70.7065C207.37 70.3046 207.312 69.8597 207.247 69.3693C207.186 68.9074 207.126 68.4601 207.065 68.0288L206.739 68.0742C206.804 68.5362 206.864 68.9834 206.922 69.4125C206.976 69.8143 207.032 70.2592 207.094 70.7473L207.421 70.7076L207.42 70.7065Z" fill="#303030"/>
<path fill-rule="evenodd" clip-rule="evenodd" d="M196.204 68.1979C196.282 68.6383 196.356 69.0662 196.427 69.4816C196.503 69.9288 196.575 70.3534 196.64 70.7563L196.964 70.7041C196.892 70.2592 196.82 69.8335 196.751 69.4271C196.676 68.989 196.602 68.5599 196.528 68.1422L196.204 68.199V68.1979ZM197.239 74.6655C197.34 75.3806 197.437 76.0787 197.526 76.7609C197.614 77.4351 197.702 78.1332 197.788 78.8574L198.116 78.8188C198.035 78.1423 197.946 77.4419 197.852 76.7189C197.758 76.0038 197.662 75.3035 197.566 74.6201L197.239 74.6667V74.6655ZM198.217 82.7541C198.278 83.3716 198.337 83.9834 198.393 84.5873C198.445 85.1571 198.499 85.7746 198.554 86.4397L198.883 86.4125C198.835 85.8347 198.78 85.2173 198.72 84.5578C198.663 83.9335 198.604 83.3217 198.544 82.7223L198.217 82.7541ZM200.105 86.3909C200.058 85.82 200.004 85.207 199.944 84.5464C199.887 83.9244 199.829 83.3126 199.77 82.7133L199.443 82.7451C199.504 83.3625 199.562 83.9732 199.617 84.5748C199.668 85.1389 199.721 85.7553 199.777 86.417L200.105 86.3898V86.3909ZM199.345 78.8086C199.266 78.1389 199.179 77.4397 199.085 76.711C198.993 75.9959 198.897 75.2978 198.802 74.6145L198.476 74.6599C198.576 75.3727 198.67 76.0708 198.759 76.7518C198.845 77.4204 198.932 78.1185 199.018 78.846L199.345 78.8075V78.8086ZM198.209 70.7041C198.135 70.2489 198.062 69.8108 197.991 69.3908C197.912 68.9311 197.836 68.493 197.762 68.073L197.438 68.1298C197.52 68.5883 197.596 69.0287 197.667 69.4453C197.744 69.9016 197.817 70.3386 197.885 70.7563L198.21 70.7052L198.209 70.7041Z" fill="#303030"/>
<path fill-rule="evenodd" clip-rule="evenodd" d="M166.841 68.3034C166.956 68.7006 167.07 69.1047 167.182 69.5134C167.291 69.9118 167.401 70.3193 167.509 70.7347L167.828 70.6518C167.723 70.2512 167.613 69.8425 167.498 69.426C167.388 69.0253 167.273 68.6212 167.156 68.2114L166.84 68.3011L166.841 68.3034ZM168.466 74.6905C168.622 75.3885 168.772 76.0923 168.916 76.8006C169.06 77.5032 169.198 78.2092 169.33 78.9186L169.654 78.8596C169.522 78.1525 169.383 77.4442 169.239 76.7359C169.096 76.0333 168.946 75.3272 168.788 74.6201L168.467 74.6905H168.466ZM170.01 82.8585C170.105 83.4601 170.202 84.0867 170.297 84.7325C170.393 85.375 170.481 86.0015 170.565 86.6099L170.891 86.5657C170.803 85.9209 170.714 85.2921 170.623 84.6837C170.533 84.0787 170.438 83.4533 170.335 82.8063L170.01 82.8574V82.8585ZM172.121 86.5725C172.032 85.9289 171.944 85.3012 171.854 84.6917C171.765 84.0912 171.67 83.4624 171.565 82.8029L171.24 82.8528C171.336 83.4533 171.431 84.0833 171.528 84.7382C171.623 85.3841 171.712 86.0095 171.795 86.6156L172.121 86.5714V86.5725ZM170.889 78.8494C170.76 78.1502 170.624 77.4453 170.481 76.7336C170.336 76.0094 170.188 75.3057 170.039 74.6258L169.718 74.695C169.875 75.4146 170.022 76.115 170.16 76.7972C170.299 77.4918 170.435 78.1967 170.566 78.9073L170.89 78.8483L170.889 78.8494ZM169.094 70.6575C168.982 70.2251 168.873 69.8176 168.77 69.4362C168.661 69.0355 168.547 68.6303 168.431 68.2228L168.114 68.3124C168.228 68.7086 168.34 69.1127 168.452 69.5213C168.569 69.9504 168.677 70.3567 168.775 70.7393L169.094 70.6564V70.6575Z" fill="#303030"/>
<path fill-rule="evenodd" clip-rule="evenodd" d="M156.406 68.3181C156.54 68.7052 156.676 69.1093 156.813 69.5281C156.95 69.9492 157.077 70.3533 157.197 70.7404L157.51 70.645C157.381 70.2205 157.252 69.8142 157.125 69.426C156.998 69.0355 156.861 68.6303 156.716 68.2114L156.406 68.3181ZM158.299 74.7052C158.479 75.4124 158.648 76.1173 158.812 76.8199C158.974 77.5225 159.132 78.2308 159.284 78.9447L159.606 78.8766C159.454 78.1695 159.297 77.4589 159.131 76.7472C158.966 76.0344 158.795 75.3272 158.617 74.6258L158.298 74.7052H158.299ZM160.09 82.905C160.313 84.0515 160.524 85.1695 160.737 86.2887L160.784 86.5407L161.108 86.4805L161.061 86.2286C160.845 85.0855 160.629 83.9459 160.414 82.8426L160.09 82.9039V82.905ZM162.352 86.5033L162.267 86.0606C162.063 84.9788 161.857 83.8914 161.654 82.8392L161.33 82.9005C161.544 84.0027 161.745 85.0651 161.944 86.1207L162.028 86.5634L162.352 86.5033ZM160.853 78.8687L160.531 78.9368C160.379 78.2183 160.223 77.5089 160.064 76.8142C159.903 76.1071 159.734 75.4022 159.56 74.7018L159.88 74.6235C160.055 75.3284 160.223 76.0344 160.384 76.7416C160.548 77.4612 160.705 78.1695 160.853 78.8687ZM158.785 70.6303C158.665 70.2319 158.54 69.8289 158.409 69.4237C158.276 69.0116 158.144 68.6121 158.012 68.2273L157.7 68.334C157.84 68.7404 157.972 69.1365 158.097 69.5236C158.223 69.9163 158.348 70.317 158.471 70.7245L158.787 70.6303H158.785Z" fill="#303030"/>
<path fill-rule="evenodd" clip-rule="evenodd" d="M145.089 68.3113C145.252 68.7574 145.4 69.1627 145.531 69.5259C145.672 69.9163 145.815 70.3216 145.963 70.7416L146.273 70.6337C146.135 70.2421 145.991 69.8346 145.84 69.4158C145.679 68.9674 145.532 68.5633 145.398 68.199L145.089 68.3125V68.3113ZM147.309 74.7234C147.54 75.4328 147.764 76.1389 147.982 76.8415C148.2 77.5452 148.414 78.2535 148.624 78.9686L148.94 78.8755C148.732 78.1684 148.517 77.4578 148.296 76.745C148.075 76.0322 147.85 75.3239 147.623 74.6224L147.309 74.7223V74.7234ZM149.737 82.9482C149.886 83.5112 150.035 84.0867 150.181 84.6713C150.324 85.2377 150.465 85.8154 150.605 86.4023L150.926 86.3262C150.789 85.7553 150.647 85.1764 150.501 84.5918C150.357 84.0243 150.208 83.4488 150.054 82.8653L149.736 82.9493L149.737 82.9482ZM152.184 86.3455C152.049 85.7814 151.907 85.2002 151.759 84.6032C151.617 84.0322 151.468 83.4556 151.315 82.871L150.997 82.9539C151.145 83.5192 151.293 84.0958 151.439 84.6815C151.579 85.2411 151.72 85.8211 151.862 86.4216L152.182 86.3455H152.184ZM150.21 78.8744L149.894 78.9663C149.686 78.2512 149.473 77.5418 149.258 76.8392C149.046 76.1457 148.824 75.4397 148.594 74.7223L148.906 74.6224C149.129 75.3159 149.352 76.0231 149.572 76.745C149.79 77.4578 150.003 78.1684 150.208 78.8755L150.21 78.8744ZM147.567 70.6314C147.414 70.1899 147.272 69.7892 147.139 69.4192C147.007 69.0526 146.86 68.6462 146.7 68.2069L146.391 68.3193C146.526 68.6882 146.672 69.09 146.829 69.5304C146.986 69.9674 147.13 70.3738 147.257 70.7404L147.567 70.6326V70.6314Z" fill="#303030"/>
<path fill-rule="evenodd" clip-rule="evenodd" d="M220.934 56.1545C223.124 57.7959 224.446 59.0445 225.284 60.5394C226.121 62.0343 226.485 63.7891 226.759 66.4452L227.086 66.4123C226.808 63.7119 226.435 61.9196 225.571 60.3793C224.707 58.839 223.36 57.5632 221.131 55.8923L220.934 56.1545Z" fill="#303030"/>
<path fill-rule="evenodd" clip-rule="evenodd" d="M62.3984 42.2736C71.5752 45.6312 81.3793 47.4609 90.8572 49.2282C97.7747 50.5188 104.517 51.7765 110.705 53.571C115.391 54.9297 118.988 56.2646 122.19 58.1624C125.39 60.058 128.203 62.5189 131.321 66.1318L131.57 65.9173C128.426 62.276 125.589 59.7936 122.357 57.8798C119.129 55.9672 115.509 54.6233 110.796 53.2566C104.59 51.4564 97.8407 50.1976 90.9163 48.9059C81.4543 47.1408 71.665 45.3145 62.512 41.9648L62.3984 42.2736Z" fill="#303030"/>
<path fill-rule="evenodd" clip-rule="evenodd" d="M61.7677 42.0465C60.9075 45.8252 62.0428 48.1476 64.1259 49.6663C66.184 51.1669 69.1614 51.8661 72.0412 52.4178L73.2663 52.6505C81.9339 54.2963 94.3223 56.6482 98.9556 63.0331L99.2227 62.8401C94.5132 56.3497 82.0487 53.9831 73.3277 52.327L72.1037 52.0943C69.2603 51.5494 66.3226 50.8627 64.319 49.4007C62.3405 47.9569 61.2643 45.7401 62.0894 42.1169L61.7689 42.0454L61.7677 42.0465Z" fill="#303030"/>
<path fill-rule="evenodd" clip-rule="evenodd" d="M46.479 53.0717C53.5306 53.9162 62.8279 55.1614 70.9875 56.6097C76.9629 57.6699 82.3258 58.8379 85.7442 60.0365C88.2092 60.9003 89.8854 62.1251 91.1503 63.7108C92.4197 65.3022 93.2823 67.2659 94.1153 69.5962C94.5506 70.8141 94.9324 71.9594 95.2995 73.0605C97.7314 80.3579 99.5532 85.8244 107.867 86.9788H107.869L139.663 91.1343H139.672L139.683 91.1355C155.212 91.2535 170.622 91.266 186.031 91.1502C201.442 91.0356 216.851 90.795 232.375 90.409H232.394L232.414 90.4034C233.794 90.0265 235.17 89.6236 236.519 89.1661C237.874 88.7053 239.211 88.1865 240.51 87.5747C241.468 87.1241 242.209 86.6122 242.773 85.7927C243.334 84.9799 243.713 83.8721 243.953 82.2251L243.627 82.1786C243.395 83.7722 243.034 84.8358 242.503 85.6054C241.977 86.3681 241.278 86.8494 240.37 87.2762C239.085 87.8812 237.76 88.3965 236.414 88.8528C235.068 89.3103 233.708 89.7076 232.348 90.0799C216.83 90.4658 201.429 90.7064 186.03 90.8211C170.625 90.9357 155.22 90.9244 139.696 90.8063L107.912 86.6519C99.7998 85.5259 98.0053 80.1422 95.6097 72.956C95.2335 71.8255 94.8415 70.6518 94.4244 69.4838C93.5812 67.1229 92.705 65.1319 91.4071 63.5042C90.1048 61.8708 88.3819 60.6109 85.8511 59.7244C82.4122 58.5189 77.0311 57.3464 71.0421 56.284C62.8767 54.8356 53.5726 53.5893 46.5153 52.7437L46.4767 53.0706L46.479 53.0717Z" fill="#303030"/>
<path fill-rule="evenodd" clip-rule="evenodd" d="M247.082 94.0685C246.816 93.6122 246.605 93.1911 246.416 92.8142C245.58 91.1457 245.148 90.2864 242.909 91.3443L239.322 93.0401C237.247 94.0208 236.693 94.5883 235.66 95.6451C235.486 95.8233 235.298 96.0152 235.088 96.224L234.777 96.535L235.215 96.5044C237.257 96.3636 239.217 96.14 241.166 95.8369C243.115 95.5339 245.048 95.1513 247.039 94.695L246.965 94.375C244.975 94.8324 243.049 95.2126 241.116 95.5134C239.32 95.7927 237.511 96.0049 235.63 96.1457L235.896 95.8744C236.902 94.846 237.442 94.2932 239.463 93.3375L243.05 91.6417C244.999 90.72 245.382 91.4816 246.123 92.9606C246.316 93.3454 246.532 93.7768 246.798 94.2319L247.082 94.0674V94.0685Z" fill="#303030"/>
<path fill-rule="evenodd" clip-rule="evenodd" d="M232.211 90.2592C232.363 91.955 232.436 93.6587 232.419 95.3841C232.403 97.1071 232.296 98.8551 232.092 100.643L232.419 100.68C232.625 98.8869 232.731 97.1264 232.748 95.3875C232.765 93.6519 232.692 91.938 232.538 90.2319L232.211 90.2603V90.2592Z" fill="#303030"/>
<path fill-rule="evenodd" clip-rule="evenodd" d="M136.882 97.7531L106.519 93.0209C103.656 92.5748 101.186 92.2207 98.8967 92.4352C96.5932 92.652 94.4828 93.442 92.3667 95.2877L92.0815 95.5362L92.4588 95.5737C99.9059 96.3172 107.268 96.8359 114.638 97.2207C122.001 97.6066 129.378 97.8609 136.855 98.0765L139.461 98.1515L136.885 97.7496L136.882 97.7531ZM106.468 93.3455L134.241 97.6736C127.668 97.4738 121.16 97.2354 114.651 96.8949C107.413 96.5158 100.181 96.0096 92.8736 95.2865C94.8339 93.669 96.7943 92.9619 98.924 92.7621C101.175 92.551 103.627 92.9028 106.467 93.3455H106.468Z" fill="#303030"/>
<path fill-rule="evenodd" clip-rule="evenodd" d="M139.525 91.0153C140.137 93.1924 140.521 94.7656 140.75 96.3536C140.98 97.9393 141.057 99.5466 141.057 101.792H141.387C141.387 99.5329 141.308 97.9132 141.075 96.307C140.842 94.702 140.457 93.1175 139.841 90.9268L139.524 91.0153H139.525Z" fill="#303030"/>
<path fill-rule="evenodd" clip-rule="evenodd" d="M43.9647 101.082C44.0295 100.401 44.0977 99.6373 44.1693 98.8382C45.1921 87.4148 46.9161 68.157 57.993 67.1786C61.3489 66.8823 64.7787 66.9447 68.163 67.3409C71.5758 67.7416 74.9453 68.4839 78.1501 69.5441C79.2093 69.8948 80.2366 70.3159 81.1412 70.8608C82.0401 71.4022 82.8197 72.0662 83.3948 72.9062C84.6028 74.6746 85.8609 77.3705 86.97 80.2842C88.2178 83.5612 89.277 87.1094 89.8736 89.9279C91.4465 97.366 92.5954 104.836 93.7466 112.317C94.7399 118.771 95.7343 125.236 97.0037 131.699L97.0094 131.729L97.0276 131.757L97.1889 132.005C99.0629 134.896 99.7334 135.929 103.544 136.11L103.593 136.112L103.635 136.088C107.152 134.046 110.216 132.18 113.196 130.18C116.175 128.18 119.07 126.046 122.249 123.467L122.587 123.193L122.151 123.177L110.632 122.743H110.626C108.465 122.729 106.512 122.618 104.905 121.958C103.314 121.304 102.051 120.104 101.237 117.91C100.693 116.443 100.211 114.144 99.8505 111.585C99.4732 108.897 99.2289 105.927 99.1891 103.335C99.1698 102.075 99.4323 101.363 99.9937 100.984C100.569 100.595 101.477 100.528 102.725 100.574L141.217 101.956H141.223C156.442 102.039 171.595 101.929 186.745 101.712C201.897 101.495 217.046 101.172 232.256 100.826H232.267L232.275 100.825L246.828 98.8587C247.18 103.331 247.3 107.465 247.185 111.57C247.068 115.732 246.709 119.868 246.104 124.3C245.599 127.994 245.264 128.407 243.113 131.055L242.773 131.473L243.028 131.68L243.367 131.262C245.57 128.552 245.913 128.129 246.429 124.344C247.035 119.901 247.395 115.753 247.512 111.578C247.629 107.402 247.505 103.203 247.142 98.6578L247.128 98.4852L246.955 98.5091L232.238 100.498C217.029 100.843 201.884 101.167 186.741 101.383C171.593 101.6 156.444 101.71 141.228 101.627L102.736 100.245C101.422 100.198 100.456 100.274 99.8084 100.711C99.1482 101.158 98.8391 101.955 98.8595 103.339C98.8993 105.946 99.1436 108.931 99.5232 111.629C99.8869 114.213 100.374 116.538 100.926 118.023C101.776 120.315 103.104 121.572 104.778 122.261C106.435 122.942 108.422 123.057 110.617 123.071L121.699 123.489C118.66 125.938 115.874 127.986 113.01 129.909C110.052 131.895 107.007 133.75 103.51 135.782C99.9107 135.602 99.2618 134.602 97.4628 131.828L97.3196 131.607C96.0536 125.158 95.0615 118.71 94.0705 112.27C92.9193 104.788 91.7704 97.3172 90.1941 89.862C89.5952 87.0277 88.5292 83.4613 87.2769 80.1696C86.1586 77.2331 84.8892 74.5123 83.6653 72.7212C83.0618 71.8381 82.2458 71.1423 81.3105 70.5793C80.3809 70.0197 79.332 69.5895 78.2524 69.2319C75.0283 68.165 71.6371 67.4181 68.2005 67.0151C64.7923 66.6156 61.341 66.5531 57.9646 66.8505C46.6138 67.8517 44.8739 87.2842 43.842 98.8099C43.7727 99.5851 43.7068 100.323 43.6374 101.052L43.9647 101.082Z" fill="#303030"/>
<path fill-rule="evenodd" clip-rule="evenodd" d="M90.2137 89.9368C90.0796 89.1866 89.9557 88.4442 89.8285 87.6871C88.5249 79.905 86.9544 70.5372 78.2276 67.897C75.9673 67.2137 73.0966 66.5848 70.2384 66.0718C66.8507 65.4634 63.4812 65.0184 61.1651 64.8345C51.1076 64.0354 48.9165 72.0082 47.4357 77.3965C47.2596 78.0367 47.0936 78.6405 46.9243 79.1944L47.238 79.2909C47.4062 78.7438 47.5744 78.132 47.7528 77.4827C49.204 72.2001 51.353 64.385 61.1389 65.1626C63.4504 65.3465 66.8075 65.7903 70.1805 66.3953C73.0227 66.9049 75.8798 67.5303 78.1333 68.2125C86.6657 70.7926 88.217 80.0503 89.5046 87.7416C89.6353 88.5202 89.7637 89.2853 89.8898 89.9936L90.2148 89.9368H90.2137Z" fill="#303030"/>
<path fill-rule="evenodd" clip-rule="evenodd" d="M47.1374 67.5405C47.3215 67.5746 47.5704 67.6211 47.8341 67.6688C48.0341 67.7051 48.2227 67.738 48.3648 67.7619C49.0421 67.8765 49.5603 67.3862 49.858 66.7108C49.9796 66.4361 50.0649 66.1285 50.1092 65.8209C50.1535 65.5121 50.1569 65.2023 50.1149 64.9219C50.0217 64.3056 49.7115 63.8254 49.1353 63.7732L47.8636 63.6574C47.2613 63.6029 46.7863 64.0672 46.5044 64.696C46.3862 64.9605 46.301 65.2556 46.2555 65.5496C46.2101 65.8447 46.2044 66.1433 46.2442 66.4145C46.3271 66.9855 46.6078 67.4406 47.1363 67.5383L47.1374 67.5405ZM47.892 67.3453C47.6602 67.3033 47.4011 67.2556 47.1965 67.217C46.8317 67.1489 46.634 66.805 46.5715 66.3691C46.5374 66.1308 46.5431 65.8652 46.5828 65.5995C46.6237 65.3328 46.6999 65.0672 46.8067 64.83C47.034 64.3226 47.3977 63.9446 47.8363 63.9843L49.108 64.1001C49.5024 64.1353 49.7206 64.5008 49.791 64.9707C49.8285 65.2193 49.8251 65.4974 49.7853 65.7743C49.7456 66.0524 49.6683 66.3294 49.558 66.578C49.3171 67.1228 48.9194 67.5212 48.4193 67.4372C48.2523 67.4089 48.0693 67.3759 47.892 67.3442V67.3453Z" fill="#303030"/>
<path fill-rule="evenodd" clip-rule="evenodd" d="M118.706 137.345L94.5474 136.56L93.7848 136.45C89.38 135.819 89.2686 135.802 86.0263 133.599C83.2829 124.793 81.5885 115.872 79.8838 106.888C79.1792 103.178 78.4724 99.4557 77.6905 95.7281C76.8961 91.9415 76.3086 89.2967 75.3165 87.3103C74.2835 85.2411 72.847 83.913 70.3798 82.8517C68.1012 81.8722 65.6658 81.2921 63.1849 80.9913C60.7279 80.6928 58.2209 80.6701 55.773 80.7995C46.1462 81.3126 46.1383 99.1413 46.1349 107.771C46.1349 108.338 46.1349 108.863 46.1315 109.341C44.3711 113.788 43.5858 118.854 43.4324 124.009C43.2404 130.468 44.0393 137.067 45.1541 142.757L46.4474 142.505C45.3462 136.887 44.5575 130.386 44.7461 124.045C44.8961 118.99 45.6678 114.036 47.3986 109.715L47.444 109.601V109.473C47.4486 108.962 47.4486 108.39 47.4497 107.771C47.4531 99.5465 47.4611 82.5577 55.8412 82.1117C58.213 81.9857 60.645 82.0084 63.0315 82.2978C65.3931 82.5839 67.7057 83.1332 69.8615 84.0606C72.0117 84.9857 73.255 86.1276 74.1391 87.896C75.0642 89.7485 75.6324 92.3138 76.4052 95.9948C77.1871 99.7168 77.8917 103.428 78.594 107.129C80.3214 116.232 82.0374 125.27 84.841 134.207L84.9092 134.426L85.0978 134.555C88.7811 137.059 88.8118 137.063 93.6019 137.75L94.3894 137.863L94.4144 137.867H94.461L118.666 138.655L118.707 137.342L118.706 137.345Z" fill="#303030"/>
<path fill-rule="evenodd" clip-rule="evenodd" d="M89.2227 136.147C87.1748 129.45 85.6474 120.876 84.128 112.335C82.1472 101.205 80.1754 90.1309 77.0604 83.2989C76.5502 82.1786 75.9308 81.149 75.0898 80.241C74.2477 79.3318 73.1863 78.5463 71.793 77.9186C69.744 76.9958 67.2336 76.4067 64.5164 76.0491C61.8071 75.6927 58.891 75.5656 56.0237 75.5645C47.247 75.5645 45.4832 86.7019 44.4127 93.4669C44.3559 93.8279 44.3002 94.1775 44.2456 94.5112L44.5695 94.5623C44.6241 94.2286 44.6786 93.8801 44.7366 93.518C45.7912 86.8574 47.5265 75.8914 56.0237 75.8925C58.8785 75.8925 61.7798 76.0196 64.4743 76.3738C67.1597 76.7279 69.6395 77.3079 71.6578 78.2183C73.009 78.8267 74.0375 79.586 74.8489 80.4635C75.6626 81.342 76.2638 82.3443 76.7615 83.4351C79.8572 90.2252 81.8255 101.28 83.8029 112.391C85.3235 120.937 86.852 129.518 88.9079 136.241L89.2215 136.146L89.2227 136.147Z" fill="#303030"/>
<path fill-rule="evenodd" clip-rule="evenodd" d="M99.3555 77.4045L87.5456 77.2751L87.508 77.2739L87.474 77.2898L76.4925 82.5044L76.4482 82.5259L76.4232 82.5657L73.9741 86.4613L74.2514 86.6361L76.6766 82.7813L87.5819 77.6031L99.3532 77.7325L99.3555 77.4045Z" fill="#303030"/>
<path fill-rule="evenodd" clip-rule="evenodd" d="M245.455 129.23C242.876 131.384 240.623 131.678 237.455 132.093C236.571 132.208 235.617 132.333 234.591 132.502L234.573 132.506L234.534 132.516L229.251 133.876C205.125 136.037 180.396 136.537 155.932 137.03C149.954 137.151 143.991 137.271 138.076 137.415L138.107 138.727C144.046 138.583 149.994 138.463 155.958 138.342C180.461 137.848 205.23 137.347 229.419 135.178L229.473 135.173L229.525 135.16L234.82 133.796C235.85 133.626 236.771 133.506 237.625 133.395C241.019 132.952 243.43 132.636 246.301 130.239L245.456 129.23H245.455Z" fill="#303030"/>
<path fill-rule="evenodd" clip-rule="evenodd" d="M230.925 100.785L236.555 108.461C237.096 109.199 237.476 109.61 237.956 109.799C238.437 109.988 238.991 109.944 239.879 109.771L246.129 108.564L246.204 108.549L246.241 108.482C247.01 107.099 246.468 106.646 245.482 105.821L245.293 105.663L245.452 100.049L245.458 99.8552L245.266 99.8825L235.241 101.296L234.973 101.333L235.13 101.553L238.172 105.829C238.953 106.926 239.226 106.879 240.329 106.688C240.443 106.669 240.563 106.648 240.661 106.632L245.077 105.912L245.269 106.073C246.105 106.772 246.571 107.162 245.989 108.256L239.816 109.449C238.988 109.609 238.483 109.653 238.075 109.493C237.667 109.333 237.322 108.954 236.819 108.267L231.189 100.591L230.924 100.785H230.925ZM244.968 105.598L240.611 106.307C240.47 106.33 240.369 106.348 240.276 106.364C239.335 106.526 239.103 106.566 238.442 105.638L235.556 101.583L245.121 100.234L244.968 105.598Z" fill="#303030"/>
<path fill-rule="evenodd" clip-rule="evenodd" d="M245.415 108.492C245.327 109.236 245.246 110.023 245.163 110.817C244.982 112.551 244.798 114.316 244.515 115.97C244.4 116.641 244.26 117.015 243.985 117.249C243.705 117.489 243.259 117.607 242.54 117.757L242.531 117.759L238.352 118.872L238.437 119.19L242.615 118.077C243.382 117.917 243.864 117.785 244.2 117.499C244.543 117.206 244.711 116.777 244.84 116.026C245.124 114.366 245.309 112.592 245.49 110.85C245.571 110.073 245.651 109.304 245.742 108.528L245.415 108.491V108.492Z" fill="#303030"/>
<path fill-rule="evenodd" clip-rule="evenodd" d="M243.061 131.547C242.397 127.868 241.354 124.783 239.984 121.827C238.616 118.873 236.921 116.052 234.948 112.892C233.955 111.3 233.2 110.455 232.196 110.012C231.198 109.573 229.977 109.545 228.043 109.586L146.815 111.062C144.702 111.107 143.313 111.171 141.985 111.502C140.653 111.834 139.392 112.432 137.538 113.544L124.256 121.516L108.727 121.149C107.26 121.114 106.069 120.844 105.114 120.231C104.163 119.62 103.439 118.663 102.901 117.255C102.065 115.058 101.479 112.833 101.11 110.564C100.741 108.292 100.589 105.977 100.618 103.604L100.621 103.402C100.638 101.833 100.642 101.474 101.99 100.511L101.799 100.243C100.315 101.304 100.31 101.693 100.291 103.399L100.289 103.601C100.259 105.993 100.413 108.327 100.785 110.617C101.158 112.909 101.749 115.157 102.594 117.373C103.157 118.851 103.923 119.859 104.936 120.509C105.945 121.156 107.192 121.442 108.719 121.479L124.296 121.846H124.344L124.385 121.824L137.706 113.827C139.53 112.733 140.767 112.145 142.063 111.822C143.362 111.499 144.734 111.436 146.82 111.391L228.05 109.915C229.938 109.876 231.124 109.901 232.064 110.314C232.998 110.725 233.713 111.534 234.67 113.065C236.637 116.215 238.326 119.029 239.686 121.964C241.045 124.897 242.079 127.956 242.739 131.605L243.062 131.547H243.061Z" fill="#303030"/>
<path fill-rule="evenodd" clip-rule="evenodd" d="M141.744 101.658L127.821 110.895L126.113 111.331L123.349 111.811L101.138 110.889L101.125 111.217L123.355 112.14L123.373 112.141L123.389 112.138L126.178 111.653L126.192 111.651L127.929 111.207L127.955 111.2L127.979 111.184L141.926 101.931L141.744 101.658Z" fill="#303030"/>
<path fill-rule="evenodd" clip-rule="evenodd" d="M101.614 102.331L101.775 108.266L101.779 108.419L101.933 108.426L116.517 109.03C116.734 109.039 116.946 109.048 117.146 109.057C119.362 109.157 120.13 109.192 122.516 108.095C124.815 107.037 126.619 105.58 128.736 103.869C128.969 103.679 129.214 103.482 129.488 103.262L129.836 102.982L129.39 102.97L101.782 102.163L101.608 102.157L101.612 102.33L101.614 102.331ZM102.1 108.104L101.948 102.495L128.937 103.284L128.53 103.614C126.429 105.31 124.639 106.757 122.38 107.796C120.065 108.861 119.319 108.827 117.162 108.729C116.968 108.72 116.76 108.711 116.53 108.702L102.1 108.104Z" fill="#303030"/>
<path fill-rule="evenodd" clip-rule="evenodd" d="M131.484 123.929C143.527 124.146 171.822 124.049 196.651 123.373C213.736 122.906 229.183 122.165 236.569 121.062L236.781 121.03L236.695 120.834C236.488 120.362 236.299 119.921 236.122 119.505C234.464 115.625 233.713 113.869 229.682 113.872C211.061 113.896 192.3 114.35 173.575 114.803C164.583 115.021 155.601 115.239 146.653 115.408C143.343 115.471 143.241 115.54 140.69 117.286L140.322 117.537L131.395 123.629L130.969 123.92L131.485 123.929H131.484ZM196.643 123.045C172.165 123.712 144.32 123.816 132.006 123.61L140.506 117.809L140.874 117.557C143.349 115.864 143.447 115.796 146.658 115.736C155.615 115.567 164.594 115.349 173.581 115.131C192.308 114.677 211.069 114.223 229.681 114.2C233.495 114.197 234.219 115.892 235.818 119.633C235.972 119.994 236.133 120.373 236.305 120.767C228.849 121.852 213.549 122.583 196.641 123.044L196.643 123.045Z" fill="#303030"/>
<path fill-rule="evenodd" clip-rule="evenodd" d="M236.254 115.011C235.964 114.692 235.695 114.389 235.447 114.111C233.225 111.615 232.777 111.109 228.589 111.296C213.562 111.962 198.564 112.108 183.581 112.256C170.956 112.38 158.342 112.503 145.734 112.937C142.153 113.06 141.636 113.351 138.769 114.969L138.198 115.29C133.496 117.931 129.068 120.753 124.644 123.57C117.908 127.861 111.182 132.145 103.482 135.797L103.622 136.095C111.336 132.435 118.073 128.144 124.82 123.846C129.234 121.035 133.653 118.221 138.359 115.576L138.929 115.254C141.737 113.669 142.243 113.383 145.743 113.264C158.353 112.83 170.963 112.707 183.582 112.583C198.572 112.435 213.577 112.289 228.601 111.623C232.632 111.444 233.064 111.929 235.199 114.329C235.442 114.601 235.706 114.897 236.01 115.231L236.253 115.01L236.254 115.011Z" fill="#303030"/>
<path fill-rule="evenodd" clip-rule="evenodd" d="M234.501 132.152L221.177 132.561L221.117 132.564L221.072 132.603L219.79 133.738L205.62 134.159L204.405 133.121L204.358 133.08L204.294 133.082L197.639 133.287L197.57 133.289L197.523 133.339L196.494 134.431L182.799 134.837L181.663 133.823L181.614 133.779L181.549 133.782L174.646 133.994L174.585 133.996L174.541 134.037L173.343 135.119L158.883 135.549L157.903 134.562L157.853 134.512L157.783 134.515L150.284 134.745H150.231L150.189 134.778L148.79 135.848L133.28 136.29L131.955 135.318L131.909 135.285L131.852 135.288L124.887 135.511H124.853L124.824 135.526L121.752 136.951C118.789 136.797 115.444 136.658 111.96 136.514C104.105 136.187 95.5271 135.83 88.8482 135.204L88.8187 135.531C95.5101 136.159 104.089 136.516 111.946 136.842C115.439 136.987 118.788 137.127 121.776 137.281L121.816 137.283L121.853 137.266L124.933 135.839L131.807 135.618L133.132 136.59L133.178 136.623H133.234L148.855 136.177H148.908L148.95 136.144L150.349 135.073L157.722 134.846L158.702 135.833L158.752 135.883L158.824 135.88L173.416 135.447L173.476 135.444L173.521 135.404L174.719 134.322L181.497 134.113L182.632 135.127L182.681 135.17L182.746 135.167L196.575 134.757L196.643 134.754L196.69 134.704L197.718 133.612L204.242 133.411L205.456 134.45L205.504 134.491L205.568 134.489L219.862 134.064L219.922 134.062L219.967 134.022L221.248 132.887L234.512 132.478L234.503 132.15L234.501 132.152Z" fill="#303030"/>
<path fill-rule="evenodd" clip-rule="evenodd" d="M234.855 133.114C234.663 132.287 234.49 131.485 234.328 130.742C234.019 129.315 233.754 128.095 233.441 127.079C232.333 123.479 230.573 123.553 227.337 123.691L227.084 123.701C214.018 124.247 200.95 124.694 187.884 125.076C174.81 125.457 161.739 125.773 148.67 126.056C145.48 126.126 143.731 126.177 140.64 127.383C137.566 128.584 133.168 130.93 124.681 135.59L124.839 135.878C133.314 131.225 137.703 128.883 140.759 127.69C143.798 126.502 145.525 126.452 148.676 126.384C161.751 126.101 174.825 125.785 187.893 125.404C200.968 125.022 214.037 124.575 227.098 124.029L227.35 124.019C230.423 123.888 232.094 123.818 233.127 127.176C233.433 128.169 233.697 129.388 234.007 130.812C234.165 131.541 234.335 132.325 234.535 133.189L234.855 133.115V133.114Z" fill="#303030"/>
<path fill-rule="evenodd" clip-rule="evenodd" d="M246.896 117.041C246.702 117.82 246.502 118.282 246.152 118.592C245.798 118.906 245.27 119.086 244.427 119.297L239.254 120.604L239.334 120.923L244.507 119.616C245.4 119.392 245.965 119.196 246.369 118.837C246.778 118.475 247.005 117.965 247.215 117.119L246.896 117.04V117.041Z" fill="#303030"/>
<path fill-rule="evenodd" clip-rule="evenodd" d="M223.815 134.686C221.807 139.4 218.971 142.632 215.765 144.531C213.59 145.819 211.242 146.497 208.868 146.608C206.489 146.72 204.076 146.264 201.78 145.289C198.002 143.683 194.537 140.669 192.033 136.452L190.9 137.121C193.552 141.587 197.237 144.786 201.267 146.498C203.743 147.55 206.351 148.04 208.932 147.919C211.518 147.798 214.074 147.061 216.437 145.661C219.874 143.625 222.902 140.189 225.027 135.199L223.817 134.685L223.815 134.686Z" fill="#303030"/>
<path d="M183.496 136.707L184.649 139.848L183.412 140.301L182.26 137.16L183.496 136.707Z" fill="#303030"/>
<path d="M108.157 137.72L109.43 138.06L108.373 142.005L107.1 141.665L108.157 137.72Z" fill="#303030"/>
<path fill-rule="evenodd" clip-rule="evenodd" d="M75.0297 87.7358C72.0307 87.9946 69.4453 88.4373 67.1758 89.0185C64.9006 89.6019 62.9585 90.3204 61.247 91.132C58.1661 92.5928 55.3079 95.0594 52.8316 98.0378C50.0837 101.342 47.7994 105.281 46.205 109.168L47.421 109.668C48.97 105.894 51.1826 102.074 53.8419 98.8778C56.2023 96.0412 58.9104 93.6973 61.8095 92.3227C63.4585 91.5406 65.3245 90.8482 67.5008 90.2909C69.6839 89.7313 72.1977 89.3034 75.1445 89.0491L75.0309 87.737L75.0297 87.7358Z" fill="#303030"/>
<path fill-rule="evenodd" clip-rule="evenodd" d="M-14.2622 95.0448L43.1725 105.516L43.2305 105.194L-14.2043 94.7224L-14.2622 95.0448Z" fill="#303030"/>
<path fill-rule="evenodd" clip-rule="evenodd" d="M43.6445 102.846L28.773 97.2388L28.7583 97.2331L28.7424 97.2308L-13.4572 89.9504L-13.5129 90.2751L28.6719 97.5521L43.5286 103.154L43.6445 102.846Z" fill="#303030"/>
<path fill-rule="evenodd" clip-rule="evenodd" d="M43.732 131.195C42.3546 132.444 41.5296 133.525 41.4159 134.678C41.2977 135.874 41.9284 137.017 43.4774 138.329L44.3275 137.325C43.1433 136.323 42.6524 135.535 42.724 134.807C42.8001 134.037 43.4774 133.202 44.6173 132.166L43.7308 131.194L43.732 131.195Z" fill="#303030"/>
<path fill-rule="evenodd" clip-rule="evenodd" d="M80.0567 110.478C78.41 107.726 76.3576 105.062 73.8313 103.129C71.2947 101.188 68.2809 99.9834 64.7215 100.161C62.0725 100.292 59.6609 101.574 57.5926 103.394C54.964 105.709 52.8866 108.898 51.582 111.699C50.5092 114.004 49.717 116.468 49.1761 119.003C48.5988 121.705 48.3067 124.492 48.2613 127.253C48.192 131.425 48.9022 136.812 50.5921 141.846C51.9684 145.946 53.9958 149.815 56.7835 152.611C58.1211 153.954 59.6348 155.05 61.3349 155.806C62.9146 156.508 64.6545 156.917 66.5637 156.958C68.4059 156.997 70.2594 156.675 72.0061 155.999C73.704 155.342 75.303 154.353 76.6951 153.042C79.4305 150.465 81.2625 146.85 82.5114 142.976C83.757 139.113 84.4252 134.99 84.832 131.387L84.5047 131.35C84.099 134.938 83.4353 139.038 82.1977 142.876C80.9636 146.702 79.1589 150.27 76.4689 152.803C75.1075 154.086 73.546 155.053 71.8868 155.694C70.1799 156.355 68.3684 156.671 66.5694 156.631C64.7068 156.59 63.0089 156.191 61.4679 155.507C59.8064 154.768 58.3256 153.695 57.0153 152.381C54.2663 149.624 52.2638 145.799 50.9024 141.743C49.2238 136.745 48.5192 131.399 48.5886 127.259C48.634 124.522 48.9238 121.757 49.4977 119.072C50.0341 116.56 50.8183 114.119 51.8808 111.837C53.1684 109.072 55.2186 105.924 57.8097 103.643C59.8269 101.867 62.1725 100.617 64.7363 100.49C68.2093 100.317 71.1515 101.494 73.6312 103.391C76.12 105.296 78.1463 107.927 79.7737 110.649L80.0556 110.48L80.0567 110.478Z" fill="#303030"/>
<path fill-rule="evenodd" clip-rule="evenodd" d="M184.423 68.2648C184.55 68.6848 184.668 69.0968 184.778 69.4975C184.89 69.905 184.999 70.3249 185.107 70.7574L185.426 70.6791C185.323 70.2614 185.213 69.838 185.095 69.4112C184.977 68.9787 184.858 68.5633 184.739 68.1694L184.423 68.2648ZM185.956 74.6768C186.088 75.3738 186.213 76.0741 186.33 76.7745C186.446 77.4703 186.557 78.1752 186.663 78.8846L186.989 78.8369C186.884 78.1377 186.773 77.4317 186.654 76.7211C186.535 76.0162 186.411 75.3136 186.279 74.6167L185.955 74.6768H185.956ZM187.204 82.804C187.357 84.0027 187.515 85.2967 187.667 86.5532L187.671 86.5827L187.998 86.5441L187.995 86.5146C187.85 85.3296 187.702 84.1128 187.53 82.762L187.204 82.8029V82.804ZM189.226 86.5339L189.164 86.0174C189.04 84.997 188.914 83.9539 188.762 82.7552L188.435 82.7961C188.563 83.804 188.701 84.9425 188.837 86.0549L188.899 86.5714L189.226 86.5328V86.5339ZM188.23 78.8267C188.129 78.1332 188.02 77.4294 187.903 76.7155C187.787 76.0117 187.665 75.3102 187.535 74.6144L187.212 74.6734C187.341 75.3692 187.463 76.0685 187.577 76.7677C187.691 77.4578 187.799 78.1615 187.904 78.8732L188.23 78.8256V78.8267ZM186.694 70.6757C186.589 70.2432 186.481 69.8232 186.372 69.4157C186.26 69.0049 186.144 68.5917 186.022 68.1796L185.706 68.2727C185.825 68.6723 185.941 69.0832 186.054 69.5009C186.167 69.9231 186.275 70.3408 186.375 70.754L186.694 70.6768V70.6757Z" fill="#303030"/>
<path fill-rule="evenodd" clip-rule="evenodd" d="M61.2671 154.607C62.8547 155.255 64.0741 155.642 65.3231 155.801C66.572 155.96 67.8448 155.891 69.5393 155.626L69.7461 155.593L69.6654 155.4L66.4868 147.761L66.8902 135.847L66.8959 135.67L66.7175 135.678L66.2924 135.699L66.1788 135.704L66.1436 135.811L62.3649 147.278L62.3615 147.288L62.3592 147.297C62.1183 148.5 61.9035 149.67 61.7057 150.852C61.5103 152.024 61.3319 153.202 61.1637 154.432L61.1466 154.557L61.2648 154.606L61.2671 154.607ZM65.364 155.475C64.1787 155.324 63.0127 154.96 61.5091 154.352C61.6716 153.174 61.8433 152.041 62.0331 150.908C62.2262 149.749 62.4399 148.585 62.6831 147.372L66.4231 136.022L66.5561 136.017L66.1572 147.789V147.825L66.1697 147.858L69.2813 155.336C67.721 155.57 66.5277 155.626 65.3628 155.478L65.364 155.475Z" fill="#303030"/>
<path fill-rule="evenodd" clip-rule="evenodd" d="M83.397 126.681C81.1673 127.253 78.9183 127.773 76.6568 128.255C74.3941 128.738 72.1303 129.18 69.8654 129.598L69.7824 129.613L69.7461 129.689L69.4028 130.415L69.3744 130.475L69.396 130.538C70.1063 132.637 70.7495 134.517 71.4575 136.369C72.1667 138.226 72.944 140.062 73.9213 142.072L73.9282 142.085L73.935 142.094L78.3342 148.418C77.5046 149.562 76.717 150.554 75.8476 151.466C74.9953 152.361 74.0634 153.179 72.936 153.99L69.1562 146.675C68.863 144.316 68.6096 142.045 68.3857 139.78C68.1607 137.501 67.9641 135.21 67.7868 132.824L67.7755 132.679L67.63 132.672L66.7811 132.632L66.6822 132.627L66.6311 132.714C65.3662 134.858 64.1877 137.003 63.0558 139.17C61.9205 141.343 60.8341 143.532 59.7522 145.765L59.7431 145.783L59.7385 145.803L58.4191 152.159C57.2952 151.229 56.4019 150.269 55.6178 149.222C54.7973 148.127 54.0938 146.935 53.3699 145.583L55.4473 140.29C56.9997 138.48 58.4964 136.848 60.0261 135.255C61.5625 133.656 63.1365 132.094 64.8377 130.431L64.8991 130.371L64.8855 130.287L64.7241 129.318L64.7059 129.211L64.6002 129.185L53.0551 126.374L49.4537 124.148C49.564 122.394 49.8037 120.837 50.1503 119.304C50.5038 117.739 50.9686 116.193 51.5209 114.476L51.2072 114.376C50.6527 116.101 50.1856 117.655 49.8288 119.232C49.4719 120.812 49.2264 122.413 49.1185 124.227L49.1128 124.324L49.1969 124.377L52.9051 126.667L52.9278 126.681L52.9528 126.688L64.4184 129.479L64.5479 130.256C62.8694 131.898 61.3136 133.442 59.7908 135.028C58.2487 136.632 56.7429 138.276 55.1803 140.099L55.1621 140.12L55.1518 140.146L53.0358 145.534L53.0085 145.605L53.0437 145.672C53.7881 147.063 54.5086 148.29 55.3553 149.42C56.2042 150.553 57.177 151.586 58.4214 152.587L58.6305 152.755L58.6851 152.491L60.0545 145.891C61.1364 143.659 62.2194 141.475 63.3445 139.322C64.4593 137.188 65.6185 135.076 66.8618 132.966L67.4664 132.994C67.6402 135.318 67.8334 137.565 68.0562 139.814C68.2835 142.113 68.538 144.396 68.8301 146.746L68.8335 146.774L68.8471 146.801L72.7281 154.311L72.8145 154.479L72.9679 154.37C74.1827 153.512 75.176 152.646 76.0829 151.695C76.9863 150.746 77.8034 149.713 78.666 148.517L78.7342 148.423L78.6683 148.328L74.2089 141.918C73.2406 139.925 72.469 138.101 71.7632 136.253C71.0609 134.413 70.4245 132.559 69.7267 130.497L70.0063 129.907C72.2565 129.491 74.4975 129.053 76.7227 128.579C78.9763 128.098 81.2275 127.577 83.4766 127L83.3959 126.682L83.397 126.681Z" fill="#303030"/>
<path fill-rule="evenodd" clip-rule="evenodd" d="M80.9773 116.177L75.4223 118.924L75.3973 118.936L75.378 118.955L69.173 125.213L68.7446 124.9C68.6525 122.272 68.5298 119.664 68.4071 117.055C68.298 114.736 68.1889 112.416 68.1014 110.104L69.9163 102.251L69.9447 102.128L69.831 102.069C68.8912 101.584 67.6843 101.351 66.499 101.303C65.1068 101.245 63.7374 101.441 62.8658 101.779L62.7714 101.816L62.7623 101.917L61.9941 110.031L61.9918 110.06L61.9986 110.088L65.7182 124.547L65.3773 125.001L54.5811 117.266L51.4763 114.309L51.2502 114.548L54.3652 117.515L54.3754 117.525L54.3822 117.53L65.3159 125.362L65.4466 125.455L65.5432 125.325L66.0285 124.68L66.0762 124.617L66.0569 124.541L62.3248 110.035L63.0805 102.051C63.917 101.749 65.1886 101.577 66.4876 101.632C67.582 101.677 68.6912 101.883 69.5685 102.305L67.7786 110.052L67.7741 110.072V110.095C67.8627 112.429 67.9718 114.75 68.0809 117.072C68.2048 119.715 68.3286 122.358 68.4218 124.993L68.4252 125.073L68.4889 125.12L69.0957 125.564L69.2105 125.648L69.3094 125.548L75.5951 119.208L81.125 116.474L80.9795 116.18L80.9773 116.177Z" fill="#303030"/>
<path fill-rule="evenodd" clip-rule="evenodd" d="M80.848 144.359C81.6333 142.204 82.189 140.307 82.6084 138.382C83.0266 136.459 83.3084 134.503 83.546 132.228L83.5664 132.031L83.3698 132.047L76.7341 132.569L71.311 130.684L71.1951 130.643L71.1235 130.743L70.7189 131.308L70.6519 131.401L70.7178 131.497L75.7295 138.763L75.7352 138.771L75.7397 138.777L80.5696 144.409L80.7526 144.623L80.8492 144.358L80.848 144.359ZM82.2868 138.313C81.8879 140.147 81.364 141.952 80.6355 143.983L75.9931 138.57L71.0519 131.406L71.3178 131.035L76.658 132.892L76.6909 132.903L76.7239 132.901L83.1971 132.391C82.9664 134.567 82.6902 136.454 82.2856 138.313H82.2868Z" fill="#303030"/>
<path fill-rule="evenodd" clip-rule="evenodd" d="M79.642 111.861C78.6567 110.193 77.7714 108.791 76.7622 107.481C75.7519 106.171 74.62 104.956 73.1427 103.664L72.9495 103.495L72.8767 103.742L70.6129 111.453L70.6095 111.466V111.476L68.9503 122.741L68.939 122.822L68.9969 122.88L69.4015 123.284L69.5617 123.444L69.6651 123.245C70.3618 121.892 71.0573 120.662 71.7812 119.456C72.4926 118.268 73.2415 117.083 74.0461 115.817L79.5943 112.081L79.7227 111.995L79.6442 111.861H79.642ZM76.502 107.682C77.4725 108.941 78.3317 110.293 79.2806 111.895L73.8313 115.562L73.8029 115.582L73.7847 115.611C72.9813 116.876 72.2312 118.061 71.4971 119.287C70.8061 120.441 70.139 121.615 69.4742 122.894L69.2878 122.708L70.9311 111.535L73.1188 104.083C74.4848 105.296 75.5485 106.447 76.502 107.683V107.682Z" fill="#303030"/>
<path fill-rule="evenodd" clip-rule="evenodd" d="M59.7215 103.121C58.1566 104.174 57.0327 105.189 56.0463 106.33C55.0621 107.467 54.2189 108.726 53.2086 110.273L53.1461 110.37L53.2154 110.461L56.0452 114.216L56.0531 114.228L63.7741 122.908L63.8741 123.02L63.9957 122.929L64.3196 122.687L64.4219 122.611L64.373 122.494L59.8181 111.463L59.9784 103.261L59.9841 102.944L59.7215 103.121ZM56.2952 106.544C57.2066 105.491 58.2396 104.545 59.6431 103.573L59.4886 111.49V111.524L59.5011 111.556L64.0207 122.501L63.9207 122.576L56.3009 114.009L53.5484 110.356C54.5246 108.863 55.3474 107.642 56.2963 106.544H56.2952Z" fill="#303030"/>
<path fill-rule="evenodd" clip-rule="evenodd" d="M49.1407 129.062C49.2316 131.58 49.3691 133.414 49.6634 135.231C49.9578 137.051 50.409 138.849 51.1272 141.295L51.2431 141.689L51.4317 141.324L53.9581 136.437L62.3712 130.888L62.4609 130.829L62.4428 130.724L62.3212 130.037L62.2962 129.893L62.1507 129.901L52.5307 130.423L49.3759 128.908L49.1316 128.79L49.1418 129.061L49.1407 129.062ZM49.9885 135.18C49.7066 133.443 49.5703 131.689 49.4793 129.322L52.4273 130.738L52.4659 130.757L52.5068 130.754L62.0223 130.238L62.0996 130.675L53.741 136.187L53.7058 136.211L53.6853 136.249L51.3272 140.81C50.6794 138.574 50.2635 136.884 49.9873 135.182L49.9885 135.18Z" fill="#303030"/>
<path fill-rule="evenodd" clip-rule="evenodd" d="M172.998 134.446L178.6 128.353L178.633 128.317L178.64 128.27L178.802 127.363L178.836 127.169H178.638L167.186 127.248H167.121L167.075 127.292L160.153 133.702L159.977 133.866L160.194 133.97L161.256 134.482L161.289 134.498H161.328L172.876 134.499H172.949L172.998 134.447V134.446ZM178.325 128.165L172.804 134.17H161.367L160.554 133.777L167.252 127.575L178.442 127.499L178.323 128.165H178.325Z" fill="#303030"/>
<path fill-rule="evenodd" clip-rule="evenodd" d="M178.477 128.078L167.711 128.096H167.645L167.599 128.141L161.213 134.214L161.44 134.452L167.777 128.424L178.477 128.406V128.078Z" fill="#303030"/>
<path fill-rule="evenodd" clip-rule="evenodd" d="M167.852 128.173L167.327 127.325L167.047 127.498L167.572 128.346L167.852 128.173Z" fill="#303030"/>
<path fill-rule="evenodd" clip-rule="evenodd" d="M148.804 135.1L154.405 129.006L154.438 128.971L154.446 128.924L154.606 128.017L154.641 127.823H154.443L142.991 127.902H142.926L142.879 127.946L135.957 134.356L135.781 134.519L135.998 134.624L137.061 135.136L137.094 135.152H137.132L148.681 135.153H148.754L148.803 135.101L148.804 135.1ZM154.13 128.819L148.609 134.824H137.172L136.361 134.431L143.059 128.229L154.248 128.153L154.13 128.819Z" fill="#303030"/>
<path fill-rule="evenodd" clip-rule="evenodd" d="M154.285 128.73L143.52 128.749H143.454L143.407 128.794L137.023 134.867L137.249 135.105L143.587 129.077L154.285 129.058V128.73Z" fill="#303030"/>
<path fill-rule="evenodd" clip-rule="evenodd" d="M143.656 128.827L143.131 127.979L142.852 128.152L143.377 128.999L143.656 128.827Z" fill="#303030"/>
</g>
<defs>
<clipPath id="clip0_448_12807">
<rect width="300" height="166" fill="white" transform="matrix(-1 0 0 1 249 0)"/>
</clipPath>
</defs>
</svg>
