<svg width="235" height="249" viewBox="0 0 235 249" fill="none" xmlns="http://www.w3.org/2000/svg">
<g clip-path="url(#clip0_2991_3916)">
<path d="M280.759 117.811C280.643 128.279 280.516 138.743 280.129 149.211C279.949 154.12 279.862 159.03 279.247 163.915C279.077 165.267 278.878 166.59 278.437 167.874C278.001 169.154 277.482 170.419 277.172 171.727C276.353 175.212 274.86 178.275 272.059 180.611C271.458 181.11 270.973 181.755 270.745 182.53C270.454 183.514 270.493 184.74 268.879 184.565C268.496 184.527 268.443 185.089 268.409 185.418C268.123 188.191 267.033 190.793 266.79 193.575C266.669 194.99 266.335 196.386 265.869 197.738C265.317 199.347 264.202 200.161 262.486 200.142C259.995 200.113 257.499 200.132 255.008 200.04C253.99 200.001 253.258 200.326 252.57 201.053C248.062 205.812 243.521 210.537 239.008 215.292C237.952 216.406 237.389 217.797 237.098 219.285C236.929 220.143 236.686 220.773 235.63 220.715C234.738 220.666 234.355 220.24 234.345 219.372C234.341 219.048 234.384 218.539 233.885 218.578C233.323 218.616 233.395 219.193 233.328 219.581C232.378 225.188 231.442 230.8 230.492 236.412C230.148 238.457 229.474 240.411 228.675 242.315C227.647 244.753 225.786 245.906 223.12 245.785C219.635 245.63 216.146 245.519 212.661 245.373C212.171 245.354 211.599 245.364 211.207 245.126C209.68 244.196 208.449 244.641 207.116 245.611C204.552 247.472 201.469 247.893 198.445 248.349C193.002 249.173 187.51 249.047 182.033 249.057C175.408 249.066 168.782 249.12 162.161 249.023C154.043 248.906 145.929 248.674 137.811 248.465C131.83 248.31 125.854 248.15 119.873 247.937C113.751 247.719 107.634 247.438 101.518 247.181C96.0408 246.948 90.5639 246.725 85.0869 246.473C77.5452 246.124 70.0181 245.63 62.491 245.039C57.2418 244.627 51.9927 244.215 46.7436 243.725C41.349 243.226 38.5475 239.771 36.7833 235.269C35.7267 232.569 35.3874 229.627 35.2953 226.676C35.1935 223.337 34.8058 220.002 34.6361 216.663C34.3938 211.904 34.1854 207.14 34.0545 202.376C33.7443 191.346 33.376 180.32 33.2306 169.285C33.09 158.317 33.1191 147.345 33.216 136.378C33.2936 127.761 33.5214 119.149 33.8219 110.537C34.0206 104.847 34.481 99.1671 34.7961 93.4822C35.0724 88.505 35.2614 83.5277 35.7121 78.565C36.2259 72.8947 36.7057 67.2196 37.2195 61.5493C37.4182 59.3345 37.2777 59.7416 35.494 59.2327C32.0382 58.2441 28.946 58.8305 25.8731 60.5122C23.944 61.5687 21.9035 62.4507 19.8484 63.2553C17.488 64.1761 15.4523 65.567 13.5088 67.1469C12.2147 68.1986 11.5264 69.4683 11.5361 71.1888C11.57 79.0254 11.5458 86.8621 11.5458 94.6987C11.5458 97.8246 11.5458 97.8392 8.50197 97.8682C6.36451 97.8876 4.22705 97.907 2.0896 97.8489C0.446516 97.8052 0.281723 97.6259 0.150858 95.9781C0.0490745 94.7035 0.0199913 93.4193 0.0199913 92.1349C0.00545079 85.7232 0.0684626 79.3114 -0.0187806 72.8996C-0.0430148 71.1161 0.519216 69.7446 1.71639 68.5039C2.65667 67.5298 3.63574 66.5702 4.40154 65.4652C6.97521 61.7286 10.2614 58.7142 13.7511 55.8645C17.8903 52.4865 21.8793 48.9341 26.096 45.6434C27.6518 44.4318 29.1931 44.078 31.0592 44.4318C33.2257 44.8389 35.4213 45.0909 37.5927 45.4787C38.6784 45.6725 39.1001 45.3526 39.2746 44.2331C39.8513 40.5062 40.3312 36.7648 41.2812 33.1009C42.0179 30.261 43.0648 27.5421 44.3347 24.9105C45.9002 21.6586 48.3818 19.3662 51.6389 17.733C56.9753 15.053 62.7284 14.2242 68.5253 13.4973C76.0136 12.5571 83.5408 12.0046 91.0679 11.4618C93.3411 11.297 95.7403 11.5684 97.8535 10.9093C99.8844 10.2792 101.59 8.64116 103.5 7.55557C105.987 6.14527 108.672 5.18083 111.415 4.41026C119.955 2.01129 128.684 0.828766 137.53 0.431361C146.923 0.00972379 156.306 -0.0484327 165.709 0.56706C171.4 0.940233 177.065 1.44426 182.702 2.22938C193.661 3.75599 203.801 7.44895 212.898 13.8559C217.091 16.8073 221.303 19.7346 225.427 22.7878C227.797 24.5471 229.848 26.6019 231.612 28.9476C232.324 29.8926 233.245 30.5178 234.181 31.1575C247.403 40.2106 260.615 49.2831 273.867 58.3022C276.363 60.0033 277.889 62.1987 278.515 65.155C279.44 69.5653 279.814 74.0336 280.046 78.5069C280.735 91.597 280.822 104.702 280.759 117.811ZM218.055 20.8735C217.246 21.0576 217.328 21.5326 217.561 22.1578C218.298 24.1593 219.088 26.1706 219.252 28.3127C219.374 29.9266 220.168 30.8134 221.516 31.6083C238.916 41.8923 256.064 52.5932 273.266 63.2068C274.477 63.9531 275.689 64.6946 276.91 65.4264C277.085 65.5282 277.347 65.6494 277.492 65.5912C277.802 65.4604 277.744 65.126 277.681 64.8594C277.109 62.4798 275.859 60.5946 273.808 59.194C260.407 50.044 247.015 40.8746 233.638 31.6906C232.009 30.5711 230.308 29.5195 229.009 27.9783C229.591 27.8814 229.484 27.5857 229.208 27.261C228.379 26.2821 227.507 25.3516 226.484 24.5664C222.194 21.2709 217.813 18.111 213.3 15.1305C212.588 14.6604 211.866 14.2048 211.124 13.7832C210.926 13.6717 210.678 13.3228 210.431 13.6814C210.388 13.7444 210.62 14.0255 210.746 14.1854C212.525 16.4051 214.309 18.6151 216.95 19.8994C217.391 20.1126 217.803 20.4131 218.05 20.8735H218.055ZM108.512 165.95C108.512 166.004 108.512 166.052 108.512 166.106C111.076 166.106 113.64 166.076 116.204 166.11C123.542 166.202 130.875 166.333 138.213 166.425C142.561 166.479 146.904 166.498 151.251 166.522C151.513 166.522 151.872 166.619 151.978 166.265C152.075 165.946 151.779 165.761 151.571 165.592C149.366 163.789 146.879 162.592 144.005 162.461C141.02 162.325 138.024 162.296 135.034 162.258C127.128 162.151 119.223 162.064 111.318 161.972C110.387 161.962 109.433 162.006 108.58 161.613C107.63 161.177 106.651 161.177 105.657 161.172C98.4594 161.109 91.2667 161.041 84.0691 160.968C83.502 160.964 82.9301 160.939 82.363 160.901C81.6699 160.857 81.3791 160.445 81.3355 159.781C81.2628 158.628 81.6554 158.254 83.061 158.283C87.4037 158.376 91.7465 158.535 96.0893 158.584C101.702 158.647 107.315 158.734 112.932 158.477C116.412 158.317 119.912 158.545 123.401 158.594C129.881 158.686 136.367 158.739 142.847 158.884C146.017 158.952 149.051 159.611 151.76 161.429C153.481 162.587 155.061 163.92 156.602 165.287C157.63 166.198 158.696 166.561 160.068 166.556C170.396 166.513 180.73 166.556 191.058 166.508C193.831 166.493 196.603 166.212 199.38 166.11C200.355 166.076 200.844 165.728 200.791 164.719C200.767 164.293 200.791 163.867 200.796 163.435C200.975 155.744 201.145 148.053 201.338 140.366C201.576 130.969 201.828 121.572 202.075 112.17C202.255 105.264 202.414 98.3577 202.623 91.4516C202.909 81.9818 203.229 72.5167 203.529 63.0517C203.553 62.2714 203.592 61.4766 203.219 60.7448C201.445 57.2748 201.387 53.6982 202.269 49.9616C203.069 46.5836 204.397 43.3269 204.47 39.7647C204.528 36.8036 204.659 36.8036 201.92 35.844C201.717 35.7713 201.518 35.6938 201.314 35.6356C195.546 33.9588 189.638 33.0379 183.677 32.5C176.372 31.8409 169.058 31.3369 161.745 30.8134C152.507 30.1543 143.249 29.9847 133.992 29.9459C129.935 29.9314 125.873 30.1349 121.816 30.1737C110.562 30.2803 99.3124 30.479 88.0823 31.2205C83.8219 31.5016 79.5567 31.7876 75.3109 32.2383C70.0036 32.8005 64.706 33.4984 59.4132 34.1914C54.3337 34.8602 49.2348 35.4611 44.3395 37.0992C41.1164 38.1751 40.7771 38.6307 40.5445 41.9214C40.5202 42.2752 40.496 42.629 40.4524 42.9828C39.7399 48.9148 38.7753 54.8177 38.2519 60.7787C37.6654 67.4474 36.9045 74.1015 36.4683 80.7798C35.8188 90.7247 35.3244 100.674 34.8882 110.629C34.5828 117.671 34.515 124.722 34.2823 131.769C33.9624 141.592 34.2484 151.421 34.0448 161.249C33.9964 163.585 34.2048 163.833 36.4973 164.007C43.7434 164.555 51.0088 164.681 58.2694 164.904C59.389 164.938 60.1402 164.56 60.7946 163.673C62.2389 161.729 63.7511 159.834 65.2537 157.939C66.2715 156.66 67.1585 155.274 68.4041 154.179C68.913 153.733 69.926 153.495 69.0827 152.429C68.85 152.133 69.3832 151.818 69.737 151.838C72.5336 151.969 75.2236 151.038 78.0105 151.067C83.2839 151.125 88.5524 151.135 93.8258 151.15C101.367 151.174 108.899 151.537 116.431 151.852C123.12 152.129 129.823 151.964 136.522 151.998C137.094 151.998 137.661 152.017 138.233 152.022C139.037 152.032 139.352 152.463 139.367 153.238C139.381 154.038 139.023 154.44 138.252 154.479C137.472 154.518 136.686 154.547 135.906 154.547C126.881 154.576 117.866 153.931 108.822 154.649C103.447 155.075 98.0038 154.76 92.5898 154.59C87.4667 154.431 82.3339 154.426 77.206 154.411C73.7841 154.402 70.9778 155.686 69.0197 158.608C68.5059 159.374 67.8758 160.067 67.3087 160.799C66.4799 161.87 65.6559 162.941 64.832 164.017C64.3037 164.71 64.5799 165.049 65.3409 165.136C65.7626 165.185 66.1939 165.19 66.6205 165.199C73.028 165.34 79.4404 165.5 85.8479 165.611C93.3993 165.742 100.946 165.834 108.497 165.941L108.512 165.95ZM136.11 247.627C136.11 247.714 136.11 247.801 136.11 247.889C139.386 247.889 142.658 247.855 145.934 247.898C151.203 247.961 156.466 248.33 161.735 248.184C162.845 248.155 162.908 248.044 162.341 247.128C160.984 244.932 160.475 242.601 160.736 240.003C161.056 236.805 161.788 233.689 162.312 230.534C163.843 221.267 165.356 212.001 166.877 202.735C167.1 201.368 167.115 201.329 165.637 201.305C157.45 201.189 149.259 201.034 141.073 201.019C136.803 201.009 132.533 200.971 128.263 200.854C127.274 200.83 126.135 200.345 125.33 200.893C124.317 201.586 125.006 202.861 124.943 203.874C124.787 206.399 123.532 207.838 121.026 208.041C119.679 208.148 118.322 208.104 116.969 208.158C111.478 208.361 106.006 208.085 100.544 207.61C98.4836 207.431 96.6806 206.995 95.9245 204.649C95.5997 203.636 95.6434 202.706 95.7403 201.727C95.9051 200.132 95.8082 199.982 94.262 199.958C92.1245 199.929 89.9871 200.021 87.8545 199.933C79.959 199.604 72.0683 199.211 64.1777 198.862C62.3262 198.78 60.4747 198.751 58.6232 198.736C57.0431 198.727 57.0334 198.751 57.2176 200.253C57.3824 201.596 57.5569 202.933 57.7556 204.271C59.2048 214.124 60.6249 223.986 62.1371 233.829C62.7527 237.832 64.4782 241.249 67.9436 243.643C68.9809 244.36 69.989 244.816 71.254 244.879C76.3723 245.126 81.4857 245.456 86.604 245.708C95.1344 246.124 103.665 246.556 112.2 246.885C120.168 247.196 128.141 247.385 136.11 247.627ZM154.203 187.483V187.246C156.621 187.246 159.045 187.27 161.463 187.241C167.091 187.173 172.718 187.139 178.345 186.974C182.993 186.838 187.603 186.349 191.756 183.965C197.534 180.64 200.611 175.687 200.704 168.97C200.723 167.69 200.578 167.579 199.191 167.569C198.765 167.569 198.333 167.569 197.912 167.618C193.937 168.097 189.948 168.005 185.959 168.015C178.049 168.034 170.144 168.025 162.234 168.039C161.764 168.039 161.1 167.763 160.867 168.272C160.606 168.839 161.304 169.076 161.653 169.377C163.276 170.768 164.856 172.222 166.582 173.472C169.131 175.323 170.988 178.12 174.298 178.973C175.311 179.234 175.8 180.635 175.548 181.663C175.301 182.675 174.768 183.509 173.678 183.8C172.631 184.076 171.802 183.688 171.109 182.399C170.682 181.609 170.086 181.052 169.432 180.504C165.225 176.986 160.959 173.535 156.835 169.92C155.23 168.514 153.607 167.947 151.464 167.942C133.725 167.942 115.99 167.787 98.2558 167.409C87.1468 167.172 76.0379 166.92 64.9338 166.61C63.4264 166.566 62.4086 166.992 61.5167 168.223C59.7573 170.642 57.8428 172.944 56.0204 175.319C54.9493 176.714 53.6842 177.979 53.5001 179.913C53.4128 180.843 52.5937 181.357 51.6825 181.464C50.7374 181.575 50.0443 181.057 49.5547 180.301C48.9053 179.302 49.0749 178.033 50.1121 176.995C52.899 174.218 55.0171 170.899 57.5036 167.884C57.7944 167.53 58.3421 167.167 58.0222 166.61C57.7798 166.188 57.2515 166.343 56.8444 166.333C55.2061 166.29 53.5631 166.348 51.9297 166.217C46.6757 165.791 41.3926 166.038 36.1387 165.476C34.2193 165.272 34.0545 165.461 34.0642 167.433C34.0788 170.065 34.1369 172.687 34.5634 175.309C35.1838 179.123 37.2728 181.629 40.8304 182.971C42.3669 183.553 43.9663 183.911 45.6045 184.066C54.6827 184.939 63.7948 185.273 72.8971 185.772C79.1544 186.116 85.4068 186.606 91.6689 186.746C95.4204 186.829 97.7614 190.192 97.2961 193.304C97.1701 194.147 97.1604 195.009 97.1265 195.862C97.0522 197.685 97.8988 198.633 99.6662 198.707C101.019 198.761 102.371 198.833 103.723 198.858C109.704 198.974 115.69 199.105 121.671 199.177C123.256 199.197 123.396 199.008 123.382 197.452C123.367 195.814 123.164 194.176 123.207 192.543C123.28 190.008 125.214 187.939 127.715 187.687C129.343 187.527 130.987 187.498 132.625 187.493C139.817 187.473 147.015 187.483 154.208 187.483H154.203ZM142.59 10.4586C130.618 10.5216 118.656 10.856 106.699 11.3939C100.296 11.6847 93.8888 11.9706 87.5007 12.4844C80.5503 13.0417 73.5902 13.5796 66.6738 14.5102C61.3568 15.2274 56.1416 16.2258 51.3238 18.7362C50.432 19.2015 49.6323 19.7443 48.8568 20.3888C46.5448 22.3226 45.0956 24.7991 43.9857 27.5518C42.9436 30.135 42.0857 32.7714 41.5332 35.4951C41.3054 36.6194 41.5574 36.7697 42.614 36.3771C43.2781 36.1299 43.9372 35.8586 44.6158 35.655C50.1654 33.9685 55.9235 33.4208 61.6428 32.7326C71.4722 31.5549 81.3549 30.9055 91.2327 30.2319C94.7806 29.9896 98.3382 29.7569 101.905 29.7521C107.814 29.7472 113.727 29.7375 119.63 29.5485C128.461 29.2674 137.287 29.0494 146.118 29.3208C157.227 29.6649 168.331 30.0332 179.416 30.9346C187.588 31.5986 195.75 32.2189 203.544 35.054C204.242 35.3061 204.654 35.1413 204.76 34.3998C204.823 33.9781 204.823 33.5468 204.867 33.1203C205.221 29.4322 205.613 25.7393 206.772 22.2014C207.615 19.6328 209.554 17.5004 212.53 18.9155C212.782 19.0367 213.078 19.0658 213.354 19.1336C213.548 19.1821 213.809 19.3178 213.882 19.0561C213.916 18.9495 213.679 18.712 213.519 18.6005C212.995 18.2322 212.467 17.8639 211.909 17.5537C207.63 15.179 202.991 13.7396 198.241 12.8091C189.546 11.1031 180.681 10.9723 171.86 10.696C162.108 10.3859 152.347 10.3374 142.59 10.4489V10.4586ZM279.067 120.85C279.067 120.85 279.111 120.85 279.135 120.85C279.135 117.36 279.15 113.876 279.13 110.386C279.116 108.08 278.961 107.939 276.731 107.978C264.992 108.186 253.248 108.395 241.509 108.622C237.525 108.7 233.541 108.816 229.557 108.952C227.531 109.02 227.487 109.049 227.24 111.118C226.872 114.225 226.532 117.336 226.242 120.452C225.224 131.294 223.644 142.053 221.676 152.763C221.419 154.164 221.148 155.56 220.895 156.956C220.784 157.571 220.925 157.978 221.676 157.692C222.209 157.494 222.742 157.295 223.266 157.072C227.259 155.38 231.258 153.694 235.247 151.983C249.167 146.008 263.078 139.993 277.022 134.071C278.583 133.407 279.164 132.564 279.101 130.887C278.985 127.548 279.067 124.199 279.067 120.855V120.85ZM204.251 219.178C204.474 212.733 204.644 207.896 204.799 203.059C204.828 202.134 204.814 201.208 204.78 200.282C204.746 199.458 204.3 199.168 203.49 199.366C202.453 199.623 201.416 199.88 200.369 200.079C194.882 201.101 189.328 201.16 183.769 201.184C179.353 201.203 174.938 201.252 170.522 201.3C168.71 201.32 168.7 201.334 168.341 203.151C168.109 204.339 167.852 205.521 167.682 206.723C166.582 214.618 165.268 222.479 163.95 230.34C163.325 234.052 162.384 237.721 162.35 241.525C162.336 243.352 162.729 245.024 163.654 246.614C164.338 247.792 165.191 248.247 166.587 248.233C172.068 248.175 177.555 248.296 183.037 248.247C187.661 248.208 192.294 248.373 196.904 247.772C199.375 247.448 201.843 247.079 204.203 246.246C206.437 245.456 206.568 245.228 205.87 243.018C204.94 240.081 204.407 237.067 204.237 234.013C203.927 228.537 204.193 223.056 204.237 219.183L204.251 219.178ZM161.633 199.458C171.598 199.851 181.568 199.9 191.538 199.638C195.469 199.536 199.356 199.308 203.166 198.305C204.906 197.845 204.92 197.806 205.022 195.988C205.061 195.276 205.056 194.564 205.071 193.851C205.192 188.656 205.323 183.461 205.434 178.265C205.507 174.921 205.565 171.572 205.594 168.228C205.604 166.871 205.4 166.731 204.116 166.92C202.623 167.143 201.854 168.017 201.809 169.542C201.799 169.828 201.799 170.114 201.784 170.395C201.377 178.546 195.052 185.53 187.564 187.449C184.001 188.36 180.313 188.879 176.581 188.893C162.695 188.956 148.808 189.087 134.922 189.199C132.857 189.213 130.793 189.252 128.728 189.315C126.222 189.393 124.938 190.657 124.86 193.158C124.817 194.51 124.855 195.862 124.884 197.215C124.928 199.047 124.972 199.08 126.823 199.221C130.521 199.507 134.224 199.434 137.927 199.449C145.832 199.473 153.738 199.458 161.638 199.458H161.633ZM220.028 112.456C220.086 112.456 220.139 112.456 220.198 112.456C220.198 123.137 220.207 133.814 220.188 144.495C220.183 147.486 220.081 150.476 220.042 153.466C220.042 153.738 220.149 154.009 220.207 154.28C220.566 154.179 220.517 153.844 220.58 153.592C220.702 153.112 220.794 152.618 220.886 152.129C222.771 141.84 224.177 131.483 225.369 121.087C226.547 110.828 227.284 100.539 227.671 90.2303C228.185 76.6362 228.098 63.042 226.44 49.506C225.859 44.7759 225.156 40.0604 223.663 35.5048C223.392 34.6809 223.183 33.8667 222.34 33.4111C220.401 32.3691 218.608 31.0606 216.495 30.3385C213.64 29.3644 212.452 29.9169 211.468 32.7665C211.376 33.0331 211.323 33.319 211.236 33.5856C210.407 36.1251 210.46 38.7809 210.174 41.3931C210.072 42.3091 210.363 42.8664 211.25 43.196C212.142 43.5256 212.825 44.049 212.966 45.1539C213.383 48.4398 213.228 51.6821 212.54 54.9146C212.37 55.7046 211.987 56.3443 211.347 56.8725C210.921 57.2263 210.024 57.0034 210.019 57.711C210.019 58.2247 210.431 58.7433 210.673 59.2521C211.313 60.5994 211.909 61.9758 212.627 63.2892C213.625 65.1308 214.793 66.8028 217.115 67.1857C217.876 67.3117 218.627 67.6219 218.966 68.4603C219.529 69.8367 220.057 71.1743 220.052 72.7348C220.008 85.9752 220.028 99.2204 220.028 112.461V112.456ZM205.802 202.046C205.802 202.046 205.778 202.046 205.764 202.046C205.647 205.962 205.536 209.878 205.41 213.789C205.192 220.695 204.823 227.597 205.26 234.503C205.444 237.425 205.991 240.294 206.956 243.066C207.416 244.394 207.538 244.433 208.72 243.6C210.93 242.034 213.044 240.343 215.099 238.579C215.855 237.929 216.175 237.188 216.218 236.175C216.451 230.626 216.785 225.081 217.023 219.532C217.372 211.492 217.721 203.457 217.983 195.412C218.302 185.448 218.54 175.479 218.792 165.514C218.836 163.881 218.719 163.842 217.066 164.395C214.299 165.316 211.531 166.251 208.749 167.118C206.563 167.802 206.578 167.763 206.529 170.002C206.297 180.684 206.045 191.36 205.798 202.042L205.802 202.046ZM219.141 118.96C219.601 104.997 219.073 91.0445 219.092 77.082C219.092 76.7961 219.078 76.515 219.068 76.2291C219.054 76.4811 219.034 76.7379 219.029 76.99C219.025 77.4164 219.029 77.8429 219.029 78.2742C219.029 83.6877 219.029 89.1011 219.02 94.5145C219.015 97.4272 219.005 97.4418 216 97.4224C214.008 97.4127 212.011 97.3497 210.019 97.34C208.468 97.3303 208.308 97.4708 208.265 99.0265C207.969 110.275 207.673 121.519 207.407 132.767C207.203 141.311 207.043 149.856 206.859 158.395C206.815 160.46 206.762 162.524 206.728 164.589C206.718 165.064 206.496 165.684 207.082 165.917C207.61 166.125 207.693 165.485 207.979 165.219C209.118 164.167 211.148 163.847 213.102 164.337C213.359 164.4 213.674 164.351 213.935 164.264C215.016 163.915 216.078 163.503 217.163 163.164C218.433 162.766 218.937 161.933 218.942 160.619C218.957 158.269 219.131 155.923 219.136 153.573C219.16 142.033 219.146 130.499 219.146 118.96H219.141ZM210.79 15.5424C210.678 15.3825 210.577 15.1935 210.441 15.0384C208.197 12.3923 205.434 10.3568 202.41 8.75748C196.288 5.52008 189.575 4.11463 182.824 3.03872C175.863 1.92405 168.826 1.5218 161.783 1.15832C154.591 0.789994 147.417 0.765762 140.225 1.08078C130.667 1.49757 121.21 2.52016 111.963 5.07421C108.168 6.12104 104.557 7.58949 101.275 9.79945C100.897 10.0563 100.214 10.1387 100.364 10.7736C100.393 10.9093 101.145 10.948 101.547 10.9044C104.881 10.5555 108.231 10.604 111.57 10.4343C120.246 9.99331 128.931 9.76553 137.612 9.68314C153.418 9.53775 169.228 9.46505 185.014 10.5167C191.475 10.948 197.951 11.3697 204.125 13.5942C206.132 14.3163 208.24 14.7379 210.155 15.7266C210.378 15.8429 210.678 16.0416 210.78 15.5424H210.79ZM64.0565 244.336C64.5557 244.375 65.0501 244.433 65.5493 244.443C65.8207 244.443 66.2521 244.457 66.3393 244.307C66.5768 243.89 66.1358 243.696 65.874 243.498C62.8011 241.162 61.2647 237.915 60.6685 234.246C59.3357 226.026 58.0706 217.797 57.0722 209.529C56.7038 206.495 56.4276 203.447 55.8459 200.433C55.623 199.289 55.2255 198.581 53.9654 198.596C53.5437 198.601 53.1172 198.494 52.6906 198.455C47.0925 197.927 41.4508 197.946 35.8721 197.147C35.0384 197.026 34.6458 197.36 34.6895 198.184C34.7428 199.25 34.8009 200.316 34.8882 201.383C35.0627 203.447 35.179 203.573 37.2437 203.966C37.7333 204.058 38.2277 204.116 38.7269 204.15C41.7804 204.373 44.8339 204.571 47.8874 204.804C50.4465 204.998 52.0945 206.462 52.5646 208.987C52.7343 209.893 52.8506 210.823 52.8554 211.744C52.8748 214.628 51.3965 216.14 48.7259 215.902C44.7564 215.549 40.7626 215.466 36.8318 214.768C36.3568 214.686 35.8042 214.414 35.557 215.083C35.3244 215.723 35.6152 216.217 36.2308 216.445C36.8269 216.663 37.4473 216.867 38.0726 216.954C39.5508 217.153 41.0388 217.308 42.5268 217.419C45.7403 217.662 47.6499 220.017 47.204 223.24C46.8793 225.61 45.7354 226.627 43.3556 226.574C41.286 226.526 39.2503 226.211 37.2244 225.779C36.0854 225.537 35.9933 225.634 36.0757 226.812C36.1532 227.878 36.2356 228.944 36.381 230.001C36.9287 233.945 38.0338 237.619 41.0582 240.498C42.3087 241.69 43.6658 242.398 45.338 242.664C51.5371 243.653 57.8138 243.793 64.0516 244.336H64.0565ZM245.164 83.7168C245.164 79.8057 245.256 75.8898 245.139 71.9836C244.979 66.5799 244.674 61.1858 244.398 55.7869C244.267 53.228 244.097 50.674 243.884 48.1248C243.811 47.2282 243.773 46.2977 242.798 45.721C240.045 44.0926 237.341 42.377 234.583 40.7486C233.638 40.1912 233.323 40.4142 233.391 41.5579C233.56 44.4706 233.783 47.3736 233.992 50.2814C234.593 58.7239 234.966 67.1808 235.16 75.6426C235.383 85.5293 235.455 95.416 235.596 105.307C235.601 105.734 235.62 106.16 235.64 106.587C235.664 107.183 235.979 107.503 236.575 107.503C239.28 107.522 241.984 107.585 244.674 107.265C245.338 107.188 245.682 106.805 245.677 106.122C245.677 105.622 245.687 105.128 245.692 104.629C245.731 97.655 245.697 90.6859 245.164 83.7168ZM71.9035 197.782C71.9035 197.757 71.9035 197.728 71.9035 197.704C74.8165 197.82 77.7343 197.951 80.6472 198.053C85.0579 198.213 89.4636 198.373 93.8743 198.494C95.5222 198.543 95.561 198.475 95.6046 196.846C95.6385 195.421 95.6627 193.997 95.6337 192.577C95.5803 190.023 94.2329 188.724 91.7223 188.486C87.8205 188.123 83.9043 188.084 79.9978 187.871C72.965 187.488 65.9225 187.241 58.8946 186.775C53.0881 186.393 47.2234 186.538 41.5429 184.881C38.6881 184.047 36.3035 182.729 34.9997 179.918C34.8833 179.671 34.7912 179.297 34.481 179.336C34.0981 179.385 34.2339 179.787 34.2387 180.034C34.3696 184.798 34.5295 189.567 34.6507 194.331C34.6749 195.203 35.116 195.649 35.8915 195.809C36.444 195.921 37.0159 195.95 37.583 195.984C43.4041 196.337 49.23 196.72 55.0559 197.026C60.6685 197.321 66.286 197.534 71.9035 197.786V197.782ZM246.298 80.4939C246.298 82.5585 246.278 84.623 246.298 86.6876C246.37 92.8086 246.448 98.9296 246.545 105.051C246.579 107.096 246.729 107.27 248.731 107.28C250.936 107.29 253.146 107.246 255.347 107.154C256.772 107.096 256.874 106.936 256.971 105.487C257.009 104.92 256.995 104.348 256.985 103.781C256.84 94.815 256.937 85.8443 256.554 76.8833C256.243 69.5604 256.054 62.2327 255.541 54.9194C255.483 54.1004 255.41 53.3977 254.615 52.9227C251.62 51.1344 248.653 49.2976 245.653 47.5238C244.819 47.0295 244.577 47.2331 244.65 48.3041C244.723 49.3703 244.926 50.422 244.979 51.4882C245.459 61.1519 245.997 70.8156 246.293 80.4939H246.298ZM249.749 174.582C249.947 168.684 250.166 162.781 250.335 156.883C250.403 154.537 250.369 152.187 250.384 149.841C250.389 148.949 250.006 148.697 249.177 149.07C247.102 150.006 245.042 150.985 242.929 151.818C241.587 152.347 241.15 153.19 241.16 154.586C241.189 157.998 241.131 161.414 241.029 164.831C240.821 171.868 240.52 178.905 240.331 185.942C240.191 191.278 239.885 196.599 239.585 201.925C239.386 205.478 239.202 209.025 239.028 212.578C239.013 212.898 238.843 213.358 239.289 213.499C239.677 213.62 239.9 213.227 240.137 212.98C242.546 210.46 244.931 207.915 247.364 205.42C248.072 204.693 248.222 203.878 248.29 202.919C248.964 193.483 249.409 184.032 249.744 174.577L249.749 174.582ZM218.816 199.454C218.302 210.324 217.784 221.199 217.28 232.07C217.226 233.209 217.231 234.348 217.226 235.487C217.226 235.685 217.246 235.966 217.372 236.068C217.667 236.311 217.9 236.029 218.089 235.836C219.693 234.222 221.288 232.593 222.888 230.975C223.319 230.538 223.426 230.01 223.464 229.419C223.576 227.713 223.779 226.017 223.857 224.311C224.303 214.72 224.894 205.134 225.238 195.533C225.631 184.58 225.907 173.627 226.193 162.674C226.208 162.035 226.193 161.395 226.183 160.755C226.179 159.883 225.776 159.592 224.962 159.946C223.789 160.455 222.645 161.056 221.438 161.468C220.144 161.909 219.781 162.708 219.752 164.031C219.475 175.837 219.136 187.643 218.811 199.454H218.816ZM234.404 78.1095C234.234 73.4133 234.093 68.7171 233.89 64.0258C233.551 56.3491 233.192 48.6724 232.484 41.0151C232.373 39.8035 231.98 39.0523 230.928 38.4805C229.179 37.5306 227.492 36.4643 225.762 35.4708C225.427 35.277 225.069 34.802 224.652 35.1946C224.376 35.4563 224.628 35.8586 224.72 36.193C225.272 38.18 225.868 40.1476 226.217 42.1928C227.444 49.3606 228.03 56.5818 228.418 63.8368C228.985 74.4456 228.83 85.0398 228.234 95.6341C228.04 99.1138 227.836 102.598 227.667 106.083C227.599 107.464 227.681 107.542 229.062 107.566C230.415 107.59 231.767 107.571 233.119 107.522C234.525 107.474 234.651 107.328 234.724 105.874C234.753 105.307 234.733 104.736 234.714 104.169C234.428 95.4887 234.762 86.7942 234.394 78.1143L234.404 78.1095ZM239.75 182.603C239.774 182.603 239.798 182.603 239.822 182.603C239.822 180.892 239.784 179.186 239.827 177.475C240.036 169.929 240.278 162.388 240.486 154.843C240.535 153.108 240.394 153.001 238.887 153.67C235.373 155.23 231.893 156.863 228.374 158.405C227.366 158.846 227.027 159.5 227.041 160.552C227.07 162.616 227.051 164.681 226.988 166.745C226.736 175.212 226.498 183.683 226.188 192.15C225.912 199.764 225.573 207.373 225.219 214.982C225.015 219.392 224.715 223.792 224.472 228.202C224.443 228.697 224.458 229.196 224.506 229.69C224.526 229.884 224.676 230.068 224.928 230.107C225.258 230.156 225.49 230.01 225.592 229.729C225.689 229.467 225.733 229.177 225.747 228.896C225.98 225.13 226.242 221.364 226.431 217.599C226.949 207.218 227.521 196.841 229.048 186.548C229.634 182.608 230.26 178.667 231.525 174.868C231.883 173.782 232.271 172.711 232.988 171.8C233.395 171.286 233.9 170.845 234.622 171.005C235.475 171.194 235.896 171.858 236.168 172.629C236.207 172.735 236.129 172.886 236.105 173.017C235.979 172.978 235.824 172.978 235.737 172.9C235.523 172.716 235.378 172.43 235.14 172.309C234.564 172.008 233.783 172.411 233.715 173.099C233.633 173.928 234.278 173.409 234.583 173.453C235.305 173.559 235.703 174.039 236.018 174.606C236.468 175.42 236.72 176.312 236.929 177.218C237.593 180.146 237.796 183.131 237.995 186.116C238.519 194.026 237.918 201.916 237.433 209.801C237.326 211.507 237.244 213.213 237.181 214.919C237.171 215.146 237.108 215.568 237.564 215.476C237.714 215.447 237.884 215.195 237.927 215.015C238.01 214.671 238.015 214.313 238.039 213.954C238.204 211.395 238.393 208.841 238.528 206.282C238.95 198.392 239.352 190.497 239.759 182.608L239.75 182.603ZM250.476 177.606C250.316 180.659 250.044 185.704 249.783 190.754C249.589 194.452 249.409 198.145 249.23 201.843C249.216 202.172 249.06 202.613 249.477 202.778C249.884 202.938 250.103 202.531 250.33 202.289C252.104 200.437 253.835 198.547 255.647 196.735C256.496 195.882 256.971 194.98 257.038 193.749C257.353 187.638 257.809 181.532 258.071 175.42C258.405 167.671 258.618 159.912 258.861 152.158C258.924 150.093 258.914 148.028 258.924 145.964C258.924 145.082 258.526 144.815 257.702 145.188C256.21 145.867 254.741 146.599 253.209 147.166C251.731 147.713 251.227 148.615 251.198 150.205C251.043 158.676 250.767 167.143 250.476 177.606ZM257.586 83.5181C257.668 90.6374 257.751 97.7519 257.833 104.871C257.838 105.298 257.848 105.724 257.862 106.151C257.882 106.747 258.187 107.081 258.783 107.081C260.635 107.091 262.486 107.081 264.338 107.081C265.041 107.081 265.385 106.713 265.414 106.039C265.438 105.54 265.438 105.041 265.423 104.547C265.23 97.7859 265.423 91.0251 265.147 84.2644C264.813 76.2291 264.638 68.1889 264.105 60.1632C264.037 59.1213 263.708 58.4379 262.811 57.9194C261.144 56.9598 259.525 55.9275 257.867 54.9534C257.465 54.7159 257.034 54.1973 256.544 54.556C256.205 54.808 256.374 55.3556 256.394 55.7773C256.869 65.0145 257.402 74.2517 257.586 83.5084V83.5181ZM203.117 114.7C203.117 114.7 203.161 114.7 203.18 114.7C203.011 120.462 202.826 126.225 202.681 131.987C202.477 140.027 202.308 148.067 202.114 156.107C202.051 158.812 201.939 161.511 201.876 164.215C201.867 164.686 201.721 165.243 202.259 165.563C203.345 166.217 205.579 165.098 205.652 163.813C205.783 161.468 205.856 159.122 205.914 156.771C206.113 148.305 206.287 139.838 206.476 131.371C206.714 120.913 206.951 110.454 207.203 99.9958C207.286 96.5791 207.416 93.1672 207.513 89.7505C207.702 83.1303 207.731 76.515 207.547 69.8948C207.489 67.8448 207.048 65.945 205.565 64.4135C205.376 64.2197 205.289 63.8223 204.993 63.8804C204.528 63.9725 204.692 64.4426 204.654 64.7625C204.62 65.0436 204.644 65.3295 204.634 65.6154C204.373 73.8689 204.101 82.1174 203.844 90.3709C203.592 98.4789 203.36 106.592 203.117 114.7ZM266.204 91.2141C266.204 95.0573 266.16 98.9005 266.213 102.744C266.286 107.774 265.535 107.105 270.687 107.023C272.519 106.994 272.616 106.878 272.597 105.036C272.558 101.333 272.417 97.6356 272.383 93.933C272.301 84.182 271.942 74.4408 271.341 64.7043C271.298 63.9919 271.322 63.2213 270.629 62.7851C269.005 61.7626 267.357 60.7739 265.709 59.7852C265.176 59.4654 264.919 59.7077 264.905 60.2747C264.9 60.5607 264.929 60.8417 264.944 61.1277C265.448 71.15 266.039 81.1675 266.199 91.2093L266.204 91.2141ZM208.236 81.8267H208.328C208.328 82.4664 208.328 83.1061 208.328 83.7458C208.328 87.3031 208.313 90.8652 208.347 94.4225C208.362 96.3077 208.468 96.3949 210.257 96.4095C212.249 96.4289 214.246 96.4289 216.238 96.4143C218.288 96.3998 218.317 96.3852 218.322 94.4467C218.336 89.6778 218.327 84.909 218.322 80.1401C218.322 76.7234 218.341 73.3067 218.302 69.89C218.283 68.2422 217.367 67.5443 215.845 68.029C213.868 68.659 211.919 68.4312 209.966 68.0144C208.255 67.6461 208.245 67.6122 208.24 69.4393C208.226 73.5684 208.24 77.6975 208.24 81.8267H208.236ZM265.438 157.295C265.385 157.295 265.331 157.295 265.278 157.29C265.428 153.447 265.617 149.608 265.719 145.765C265.753 144.5 266.359 142.727 265.511 142.092C264.561 141.389 263.271 142.882 262.055 143.197C260.262 143.667 259.52 144.84 259.636 146.647C259.67 147.142 259.583 147.641 259.583 148.14C259.568 154.193 259.336 160.241 259.147 166.295C258.885 174.693 258.512 183.083 257.887 191.462C257.843 192.029 257.843 192.601 257.848 193.168C257.848 193.367 257.872 193.657 257.998 193.754C258.299 193.982 258.526 193.691 258.711 193.497C259.995 192.16 261.216 190.769 262.554 189.489C263.611 188.477 264.032 187.304 264.091 185.879C264.236 182.181 264.454 178.488 264.633 174.79C264.91 168.96 265.176 163.13 265.443 157.3L265.438 157.295ZM31.0689 54.4493C31.0931 54.4493 31.1173 54.4445 31.1416 54.4396C30.8992 51.9631 30.7247 49.4769 30.3952 47.015C30.1383 45.0812 29.0914 44.6499 27.4483 45.6531C27.0848 45.8761 26.7697 46.1668 26.4304 46.4237C20.59 50.8582 15.1712 55.8015 9.53919 60.4831C8.15784 61.6317 7.26118 63.2019 6.13671 64.5735C6.02523 64.714 5.82651 64.8643 5.98646 65.1017C6.15125 64.9806 6.33543 64.8788 6.48568 64.7383C7.04792 64.1954 7.58592 63.6284 8.16754 63.105C8.39049 62.9015 8.64737 62.4071 9.00604 62.8433C9.17568 63.0517 8.87033 63.3522 8.68615 63.5606C7.31449 65.1017 5.93314 66.6332 4.56148 68.1743C4.3773 68.3827 4.16889 68.6445 4.41608 68.8916C4.5324 69.0079 4.81837 69.0031 5.02193 68.9789C6.9219 68.722 8.82186 68.4312 10.7218 68.1937C11.3519 68.1162 11.7009 67.7091 12.1419 67.3456C13.785 65.9935 15.336 64.4911 17.299 63.5897C21.1135 61.8401 24.9425 60.1245 28.7812 58.4428C31.127 57.4153 31.1416 57.4541 31.0737 54.871C31.0737 54.7304 31.0737 54.585 31.0737 54.4445L31.0689 54.4493ZM10.7024 82.8396C10.7024 82.8396 10.717 82.8396 10.7267 82.8396C10.7267 78.8607 10.7267 74.8769 10.7267 70.898C10.7267 69.1485 10.6734 69.0855 8.92364 69.3229C7.58592 69.5023 6.25788 69.7494 4.925 69.9481C4.04772 70.079 3.26738 70.2874 2.96202 71.2906C2.67606 72.2356 2.46765 71.5814 2.33194 71.213C2.17199 70.7672 1.98296 70.4182 1.42558 70.6024C1.02329 70.7332 0.936047 71.0822 0.911812 71.4457C0.892425 71.7995 0.887577 72.1581 0.887577 72.5119C0.887577 79.9802 0.887579 87.4436 0.91666 94.9119C0.91666 95.5226 0.504677 96.613 1.5516 96.5888C2.28832 96.5743 2.03143 95.5468 2.04113 94.9556C2.09929 91.3305 2.11867 87.7053 2.16714 84.0802C2.16714 83.8573 2.03143 83.5568 2.36102 83.4114C2.40464 83.6101 2.4725 83.8088 2.49188 84.0124C2.64698 85.854 2.95233 87.6763 2.90871 89.5373C2.86509 91.3838 2.90871 93.2351 2.96687 95.0816C3.01534 96.7827 3.06866 96.8214 4.83291 96.8747C6.11247 96.9135 7.39204 96.9135 8.67161 96.8941C10.5813 96.8699 10.6927 96.7827 10.7024 94.7908C10.7267 90.807 10.7121 86.8281 10.7121 82.8444L10.7024 82.8396ZM273.125 89.0623C273.324 93.6858 273.174 98.3093 273.217 102.933C273.261 107.29 273.275 107.27 277.599 106.863C278.631 106.766 279.145 106.379 279.179 105.307C279.251 103.175 279.455 101.047 279.479 98.9151C279.552 91.1608 279.295 83.4163 278.718 75.6814C278.583 73.8883 277.725 72.2162 277.875 70.4618C278.098 67.869 277.017 66.2697 274.744 65.2617C274.162 65.0048 273.649 64.5977 273.081 64.3021C272.185 63.832 271.938 63.9871 272.03 64.9903C272.776 72.9965 272.781 81.0415 273.125 89.0672V89.0623ZM278.631 148.663C278.66 148.663 278.684 148.663 278.713 148.663C278.713 147.03 278.684 145.392 278.718 143.759C278.767 141.486 278.869 139.213 278.932 136.94C278.941 136.489 279.111 135.694 278.321 135.932C276.62 136.441 274.904 137.095 273.547 138.215C272.64 138.961 273.14 140.361 273.052 141.471C273.009 142.038 272.994 142.605 272.98 143.177C272.757 150.423 272.534 157.668 272.316 164.913C272.301 165.461 272.209 165.95 273.043 166.178C273.944 166.425 273.804 167.317 273.12 167.559C271.909 167.986 272.015 168.887 271.967 169.784C271.85 171.844 271.753 173.899 271.671 175.958C271.623 177.112 271.148 178.294 271.889 179.394C272.984 178.808 273.639 177.766 274.468 176.898C274.565 176.797 274.652 176.671 274.695 176.54C275.956 172.924 277.696 169.382 277.681 165.495C277.676 163.731 277.856 162.093 278.083 160.363C278.583 156.505 278.491 152.565 278.641 148.659L278.631 148.663ZM224.676 231.28C223.741 231.096 223.164 231.755 222.582 232.385C219.151 236.092 215.448 239.499 211.425 242.562C211.047 242.848 210.451 243.081 210.552 243.658C210.678 244.346 211.371 244.336 211.909 244.452C212.186 244.511 212.472 244.515 212.758 244.525C216.306 244.656 219.849 244.772 223.396 244.923C225.679 245.02 227.158 243.953 228.02 241.894C229.319 238.792 229.969 235.53 230.42 232.215C230.449 232.017 230.453 231.697 230.337 231.619C230.008 231.391 229.877 231.75 229.707 231.949C228.442 233.412 227.584 233.466 226.392 232.051C225.926 231.493 225.413 231.28 224.676 231.28ZM115.312 206.747C115.312 206.718 115.312 206.694 115.312 206.665C116.877 206.665 118.448 206.68 120.013 206.665C122.466 206.636 123.333 205.768 123.401 203.326C123.484 200.51 123.469 200.413 120.609 200.515C114.202 200.743 107.804 200.825 101.416 200.098C100.432 199.987 99.4239 200.035 98.4254 200.035C97.9262 200.035 97.4464 200.074 97.1943 200.656C96.1038 203.166 97.6063 205.89 100.379 206.064C105.352 206.379 110.329 206.529 115.307 206.752L115.312 206.747ZM209.321 50.6837C209.321 50.1845 209.331 49.8986 209.321 49.6175C209.229 47.6983 209.156 45.7743 208.696 43.9036C208.381 42.6241 207.756 42.2413 206.592 42.1879C205.463 42.1395 205.172 42.9101 204.896 43.7485C204.028 46.3849 203.108 49.0311 202.744 51.7693C202.284 55.249 202.293 58.7433 204.852 61.6559C205.313 62.1793 205.633 62.8482 205.938 63.483C207.033 65.7851 208.793 67.1178 211.376 67.2971C212.084 67.3456 212.792 67.4377 213.504 67.4668C213.771 67.4765 214.144 67.4425 214.28 67.2778C214.483 67.0306 214.202 66.7398 214.023 66.5411C211.439 63.6866 210.441 59.9355 208.463 56.7368C208.236 56.3685 207.969 55.9372 208.299 55.5592C209.612 54.0471 209.224 52.2151 209.326 50.6837H209.321ZM47.9795 214.914C47.9795 214.914 47.9795 214.88 47.9844 214.865C48.3382 214.865 48.6968 214.865 49.0507 214.865C50.9264 214.855 51.6146 214.259 51.7213 212.36C51.7746 211.376 51.7019 210.368 51.5565 209.389C51.222 207.106 50.0588 206.079 47.742 205.865C43.8548 205.507 39.9289 205.565 36.0854 204.76C35.2905 204.596 35.0627 204.988 35.0772 205.681C35.1257 207.596 34.956 209.52 35.2662 211.424C35.5764 213.353 35.8672 213.726 37.8011 213.94C41.1891 214.318 44.5867 214.594 47.9795 214.914ZM205.996 33.9297C205.633 35.2285 205.938 36.6921 207.707 37.6226C208.061 37.8068 208.284 38.243 208.57 38.558C208.754 38.7567 208.904 39.1056 209.234 38.9069C209.36 38.8294 209.36 38.5192 209.389 38.3108C209.534 37.3222 209.641 36.3335 209.811 35.3497C210.106 33.6631 210.475 31.996 211.313 30.4742C212.191 28.8797 213.766 28.2061 215.433 28.5889C216.422 28.8167 217.624 30.0138 218.302 29.1754C218.894 28.4436 218.133 27.0187 217.963 25.904C217.435 22.4534 215.501 20.5294 212.045 19.8606C210.64 19.5892 209.694 19.9042 208.822 20.8638C208.236 21.5084 207.964 22.308 207.722 23.1464C206.728 26.5147 206.321 29.975 206.001 33.9297H205.996ZM127.4 159.946C127.4 159.776 127.4 159.607 127.4 159.442C122.063 159.442 116.727 159.442 111.396 159.442C110.829 159.442 110.257 159.451 109.694 159.519C109.287 159.573 109.122 159.902 109.152 160.3C109.176 160.61 109.345 160.857 109.656 160.891C110.218 160.959 110.79 160.993 111.357 161.002C121.53 161.196 131.704 161.463 141.877 161.535C146.08 161.564 149.618 162.868 152.797 165.582C158.318 170.293 163.931 174.897 169.529 179.511C169.979 179.884 170.503 180.936 171.244 180.034C171.947 179.181 170.91 178.798 170.44 178.396C164.633 173.472 158.822 168.553 152.962 163.692C150.025 161.254 146.652 159.907 142.764 159.931C137.641 159.965 132.518 159.941 127.395 159.941L127.4 159.946ZM235.741 197.922C236.008 193.362 235.824 188.811 235.504 184.255C235.32 181.619 235.039 179.007 234.37 176.453C234.268 176.07 234.2 175.503 233.662 175.532C233.323 175.551 233.163 175.987 233.027 176.327C231.98 178.997 231.5 181.808 230.987 184.604C230.924 184.939 231.006 185.312 231.088 185.656C232.058 189.746 232.252 193.958 233.008 198.087C233.997 203.5 233.74 209.011 233.691 214.492C233.686 215.2 233.57 215.907 233.522 216.62C233.507 216.838 233.599 217.032 233.822 217.109C234.079 217.196 234.215 217.007 234.321 216.828C234.704 216.193 234.714 215.471 234.753 214.759C235.082 209.142 235.407 203.529 235.737 197.912L235.741 197.922ZM91.5865 153.694V153.893C96.8551 153.893 102.124 153.907 107.392 153.873C108.09 153.873 109.234 154.169 109.219 153.015C109.205 151.833 108.051 152.235 107.368 152.23C96.9714 152.172 86.5749 152.129 76.1784 152.143C72.5482 152.148 69.577 153.641 67.3329 156.534C62.3989 162.888 57.4502 169.231 52.5355 175.6C52.1187 176.138 51.0233 176.811 51.9491 177.504C52.7294 178.096 53.0687 176.923 53.4516 176.433C58.2694 170.351 63.0871 164.264 67.8322 158.124C70.1393 155.133 73.1104 153.689 76.8473 153.694C81.762 153.704 86.6767 153.694 91.5865 153.694ZM266.402 153.781C265.831 159.607 266.024 163.745 265.787 167.865C265.646 170.278 265.564 172.697 265.467 175.115C265.457 175.386 265.535 175.658 265.574 175.934C265.86 175.755 265.758 175.464 265.772 175.217C265.927 172.663 266.029 170.099 266.228 167.55C266.606 162.728 266.999 157.905 267.939 153.151C268.104 152.322 268.395 151.508 268.685 150.713C268.836 150.311 269.141 149.967 269.645 150.025C270.139 150.083 270.338 150.495 270.469 150.902C270.58 151.237 270.6 151.6 270.677 151.949C271.337 154.881 271.404 157.872 271.555 160.852C271.569 161.133 271.598 161.414 271.618 161.695C271.884 161.448 271.749 161.123 271.753 160.838C271.826 156.641 271.918 152.444 272.161 148.251C272.316 145.552 272.262 142.843 272.267 140.139C272.267 138.748 272.127 138.68 270.77 139.257C269.984 139.591 269.238 140.032 268.428 140.294C266.805 140.822 266.335 141.907 266.369 143.55C266.456 147.534 266.398 151.518 266.398 153.796L266.402 153.781ZM228.558 217.477C228.558 218.592 228.665 219.6 228.529 220.579C228.369 221.747 229.455 222.3 229.644 223.264C229.785 223.957 229.978 224.65 230.041 225.353C230.153 226.555 230.167 227.766 230.245 228.973C230.26 229.201 230.075 229.569 230.512 229.584C230.584 229.584 230.701 229.24 230.735 229.046C231.418 225.304 233.056 221.684 232.15 217.734C232.043 217.269 232.164 216.741 232.237 216.251C232.499 214.487 232.475 212.704 232.509 210.93C232.538 209.51 232.252 208.032 232.547 206.68C233.158 203.874 232.494 201.16 232.329 198.407C232.3 197.922 232.179 197.379 231.912 196.992C231.52 196.42 230.865 195.79 230.235 195.853C229.47 195.925 229.697 196.875 229.6 197.462C229.508 198.014 229.6 198.596 229.596 199.163C229.542 202.851 229.925 206.563 229.125 210.222C228.592 212.66 228.035 215.088 228.544 217.487L228.558 217.477ZM277.972 134.778C277.734 134.536 277.448 134.633 277.225 134.764C275.927 135.51 274.487 135.927 273.12 136.518C262.54 141.069 251.959 145.615 241.388 150.18C234.612 153.108 227.846 156.059 221.075 158.996C220.585 159.209 220.217 159.51 220.135 160.057C220.057 160.537 220.115 160.973 220.769 160.736C221.7 160.392 222.626 160.014 223.532 159.607C240.263 152.085 256.995 144.563 273.721 137.037C275.015 136.455 276.309 135.864 277.604 135.268C277.797 135.181 277.972 135.05 277.977 134.783L277.972 134.778ZM42.6771 225.619C43.6658 225.547 44.7224 225.842 45.4591 224.897C46.4334 223.652 46.3413 222.227 45.9244 220.836C45.527 219.518 44.6255 218.592 43.1811 218.51C40.9807 218.389 38.7996 218.161 36.6476 217.676C35.7509 217.477 35.4795 217.986 35.5328 218.747C35.6249 220.09 35.7994 221.432 35.8624 222.775C35.9254 224.078 36.667 224.699 37.8351 224.897C39.4394 225.169 41.0582 225.377 42.6722 225.615L42.6771 225.619ZM259.394 199.391C259.394 199.391 259.394 199.425 259.394 199.444C260.388 199.444 261.381 199.444 262.37 199.444C263.839 199.444 264.803 198.707 265.186 197.321C265.506 196.163 265.69 194.971 265.952 193.798C266.16 192.863 266.398 191.98 265.026 191.69C264.532 191.583 264.347 190.982 264.241 190.493C263.955 189.208 263.436 189.683 262.869 190.279C261.502 191.719 260.131 193.153 258.759 194.593C257.683 195.722 256.573 196.822 255.541 197.99C254.877 198.741 255.022 199.085 255.996 199.182C257.126 199.294 258.26 199.328 259.394 199.391ZM269.582 165.786C269.684 162.296 269.587 159.04 269.238 155.792C269.214 155.55 269.32 155.254 269.029 155.09C268.913 155.337 268.729 155.574 268.695 155.831C268.346 158.429 268.002 161.031 267.706 163.634C267.629 164.332 267.503 165.146 267.769 165.737C268.467 167.283 268.482 168.902 268.603 170.521C268.695 171.79 268.724 173.07 268.797 174.34C268.811 174.601 268.744 174.902 269.029 175.091C269.088 174.819 269.18 174.553 269.194 174.277C269.335 171.374 269.461 168.471 269.582 165.791V165.786ZM237.254 194.195C237.215 194.195 237.181 194.195 237.142 194.19C237.142 193.052 237.161 191.917 237.142 190.779C237.065 186.654 236.813 182.545 236.1 178.474C236.052 178.202 236.115 177.79 235.683 177.693C235.673 177.97 235.61 178.255 235.659 178.522C236.546 183.223 236.696 187.982 236.696 192.741C236.696 199.638 236.168 206.51 235.737 213.387C235.63 215.088 235.548 216.789 235.465 218.495C235.451 218.762 235.417 219.217 235.678 219.198C235.94 219.183 235.843 218.718 235.863 218.442C236.047 215.466 236.231 212.486 236.401 209.505C236.691 204.397 236.972 199.294 237.254 194.186V194.195ZM95.1102 160.12C95.1102 160.183 95.1102 160.246 95.1102 160.314C98.7308 160.314 102.351 160.314 105.972 160.314C106.399 160.314 106.825 160.319 107.247 160.295C107.363 160.285 107.475 160.174 107.586 160.111C107.479 160.033 107.382 159.897 107.271 159.883C106.849 159.834 106.423 159.81 105.996 159.8C98.6872 159.631 91.3733 159.466 84.0642 159.306C83.6426 159.296 83.2161 159.35 82.7992 159.408C82.7071 159.422 82.5763 159.592 82.5714 159.694C82.5714 159.796 82.6877 159.989 82.7701 159.999C83.3324 160.062 83.8946 160.12 84.4568 160.125C88.0096 160.135 91.5575 160.13 95.1102 160.13V160.12ZM123.925 152.885V152.836C120.726 152.836 117.527 152.851 114.328 152.826C113.266 152.817 112.2 152.7 111.139 152.662C110.775 152.647 110.392 152.739 110.494 153.248C110.567 153.607 110.877 153.631 111.163 153.563C113.068 153.122 114.987 153.418 116.897 153.437C123.295 153.505 129.688 153.616 136.081 153.704C136.648 153.713 137.215 153.66 137.777 153.607C137.859 153.597 137.985 153.413 137.985 153.316C137.985 153.214 137.859 153.03 137.772 153.02C137.21 152.952 136.648 152.885 136.081 152.885C132.029 152.875 127.977 152.88 123.925 152.88V152.885ZM206.248 38.0685C205.773 38.02 205.72 38.2914 205.705 38.5871C205.686 39.1493 205.672 39.7163 205.662 40.2785C205.652 40.8455 205.87 41.2671 206.496 41.2623C207.31 41.2574 208.332 42.2025 208.817 41.4901C209.331 40.734 208.197 40.0798 207.731 39.4158C207.45 39.0184 207.072 38.684 206.714 38.3496C206.563 38.2091 206.355 38.1364 206.243 38.0685H206.248ZM227.23 229.375C227.23 229.375 227.216 229.375 227.206 229.375C227.162 230.083 227.036 230.8 227.104 231.498C227.177 232.22 227.773 232.361 228.394 232.196C228.781 232.094 229.043 231.692 228.806 231.382C227.812 230.097 228.108 228.527 227.768 227.102C227.72 226.899 227.662 226.7 227.608 226.501C227.536 226.681 227.419 226.85 227.405 227.035C227.332 227.815 227.288 228.595 227.235 229.375H227.23ZM229.499 226.152C229.314 225.266 229.121 224.238 228.883 223.225C228.82 222.954 228.583 222.741 228.258 222.799C228.156 222.818 227.991 222.983 228.001 223.06C228.19 224.437 228.297 225.828 228.743 227.156C228.772 227.248 228.951 227.35 229.058 227.345C229.164 227.345 229.329 227.228 229.353 227.131C229.426 226.865 229.44 226.584 229.499 226.157V226.152ZM266.378 182.157C266.645 183.344 266.931 184.638 267.226 185.932C267.256 186.053 267.338 186.165 267.396 186.281C267.435 186.15 267.469 186.015 267.512 185.884C268.143 184.028 266.965 182.336 267.008 180.533C267.008 180.47 266.96 180.402 266.931 180.339C266.829 180.417 266.655 180.48 266.635 180.572C266.533 181.052 266.475 181.536 266.378 182.152V182.157ZM230.061 190.241C230.095 191.636 230.827 192.572 231.122 193.648C231.166 193.803 231.355 193.914 231.476 194.045C231.481 193.837 231.515 193.628 231.491 193.425C231.37 192.378 231.273 191.331 231.098 190.294C230.972 189.523 230.977 188.714 230.56 188.006C230.376 188.825 230.197 189.64 230.061 190.241Z" fill="#303030"/>
<path d="M111.363 239.839C103.394 239.495 95.431 239.155 87.4628 238.806C86.9636 238.787 86.4692 238.7 85.9748 238.676C84.9812 238.632 84.4432 238.196 84.2978 237.149C83.944 234.595 84.1185 232.031 84.1088 229.472C84.1088 228.784 84.4869 228.421 85.1509 228.377C85.718 228.338 86.2899 228.314 86.857 228.333C99.5945 228.74 112.332 229.157 125.065 229.569C128.336 229.676 131.613 229.744 134.884 229.889C136.905 229.976 137.022 230.146 137.085 232.167C137.153 234.372 137.012 236.577 137.24 238.782C137.38 240.159 137.172 240.338 135.703 240.44C134.783 240.503 133.852 240.474 132.926 240.445C125.738 240.231 118.55 240.013 111.363 239.795C111.363 239.81 111.363 239.829 111.363 239.844V239.839ZM112.933 237.886C116.176 237.823 121.289 238.293 126.412 238.356C130.222 238.404 130.222 238.375 130.212 234.479C130.206 232.168 129.033 230.973 126.693 230.892C117.731 230.601 108.765 230.306 99.8029 230.025C97.5249 229.952 95.2469 229.938 92.9688 229.875C92.0092 229.85 91.5051 230.209 91.5293 231.236C91.5584 232.661 91.5051 234.086 91.539 235.506C91.5778 236.965 91.6408 237.018 93.1288 237.168C93.7637 237.231 94.4084 237.231 95.0481 237.256C100.385 237.445 105.716 237.629 112.933 237.881V237.886ZM131.574 235.157C131.574 235.157 131.555 235.157 131.54 235.157C131.54 235.511 131.54 235.87 131.54 236.223C131.521 239.417 131.521 239.388 134.778 239.272C135.839 239.233 136.334 238.918 136.271 237.769C136.188 236.281 136.241 234.784 136.237 233.291C136.227 230.771 136.115 230.66 133.61 230.684C133.324 230.684 133.043 230.698 132.757 230.718C131.991 230.771 131.593 231.217 131.574 231.958C131.55 233.025 131.569 234.091 131.569 235.157H131.574ZM90.2934 233.829C90.2934 233.829 90.2643 233.829 90.2498 233.829C90.2498 233.403 90.2498 232.981 90.2498 232.555C90.2498 232.128 90.2546 231.702 90.2498 231.28C90.2304 229.395 90.2207 229.385 88.4031 229.23C87.9814 229.196 87.5549 229.191 87.1284 229.162C86.2269 229.104 85.8246 229.564 85.8101 230.422C85.7955 231.769 85.781 233.117 85.781 234.459C85.781 237.716 85.8343 237.731 89.1059 237.755C90.0026 237.76 90.4242 237.609 90.3079 236.592C90.2061 235.681 90.2885 234.75 90.2885 233.829H90.2934Z" fill="#303030"/>
<path d="M177.444 18.3097C177.939 18.363 178.433 18.4017 178.927 18.4647C179.809 18.5762 180.11 19.119 180.032 19.9574C179.955 20.7716 179.586 21.3193 178.714 21.3193C178.006 21.3193 177.299 21.2417 176.591 21.169C175.796 21.0915 174.987 21.0188 175.035 19.8799C175.084 18.7555 175.578 18.2806 176.804 18.2563C177.018 18.2563 177.231 18.2903 177.439 18.3048L177.444 18.3097Z" fill="#303030"/>
<path d="M63.2617 20.7717C64.1535 20.8057 64.895 20.762 64.9774 21.6295C65.0501 22.3759 64.769 23.0883 64.0226 23.3694C63.3683 23.6166 62.6461 23.7038 61.9482 23.825C61.3084 23.9316 60.5329 24.0285 60.3439 23.224C60.1597 22.434 60.436 21.5956 61.2308 21.2467C61.9288 20.9414 62.7382 20.888 63.2665 20.7717H63.2617Z" fill="#303030"/>
<path d="M184.239 219.581C181.985 219.581 179.349 219.61 176.712 219.571C173.532 219.527 172.054 217.943 172.151 214.734C172.175 214.027 172.224 213.305 172.359 212.612C172.902 209.849 174.744 208.25 177.579 208.206C182.135 208.133 186.696 208.197 191.252 208.027C193.036 207.959 194.795 207.702 196.574 207.596C198.857 207.46 199.885 208.201 200.321 210.45C200.694 212.369 200.534 214.293 199.822 216.12C199.177 217.778 197.975 218.689 196.123 218.897C192.294 219.319 188.456 219.469 184.229 219.576L184.239 219.581ZM184.569 218.621C188.272 218.447 191.975 218.432 195.653 217.928C197.941 217.613 198.755 216.93 199.23 214.686C199.405 213.857 199.463 212.994 199.477 212.141C199.521 209.185 198.697 208.366 195.828 208.662C190.792 209.185 185.737 209.253 180.681 209.277C179.542 209.282 178.399 209.243 177.264 209.301C175.306 209.403 174.09 210.377 173.595 212.277C173.382 213.096 173.266 213.959 173.222 214.807C173.091 217.448 174.206 218.597 176.881 218.611C179.445 218.626 182.005 218.611 184.569 218.611V218.621Z" fill="#303030"/>
<path d="M187.357 231.057C186.009 231.057 184.652 231.12 183.309 231.042C180.639 230.887 178.952 229.055 178.991 226.463C179.03 223.88 180.954 221.742 183.498 221.713C186.843 221.679 190.177 221.51 193.512 221.258C194.506 221.18 195.49 221.025 196.478 220.938C198.146 220.797 199.178 221.485 199.716 223.056C200.947 226.652 198.781 230.001 195.01 230.417C192.465 230.703 189.921 230.926 187.357 231.052V231.057ZM187.56 229.981C190.042 229.807 192.523 229.739 194.995 229.404C197.85 229.017 199.546 226.816 198.965 224.049C198.606 222.338 197.855 221.752 196.12 221.985C193.72 222.304 191.316 222.513 188.903 222.586C187.129 222.639 185.35 222.649 183.576 222.741C181.506 222.842 180.067 224.422 180.047 226.531C180.028 228.624 181.279 229.899 183.508 229.981C184.856 230.03 186.208 229.991 187.56 229.991V229.981Z" fill="#303030"/>
<path d="M220.635 212.059C220.678 211.778 220.698 211.497 220.766 211.221C220.935 210.547 221.294 209.951 222.069 210.242C222.767 210.508 222.845 211.201 222.612 211.87C222.525 212.127 222.351 212.374 222.166 212.583C221.885 212.893 221.575 213.271 221.105 213.135C220.586 212.985 220.688 212.471 220.635 212.059Z" fill="#303030"/>
<path d="M231.351 204.339C231.627 204.373 231.7 204.562 231.632 204.76C230.469 208.138 230.886 211.633 230.828 215.093C230.804 216.44 230.828 217.788 231.211 219.101C231.245 219.208 231.186 219.426 231.104 219.469C230.828 219.629 230.779 219.358 230.736 219.188C230.624 218.781 230.488 218.364 230.455 217.948C230.169 213.838 230.11 209.738 230.808 205.657C230.891 205.172 230.92 204.668 231.351 204.334V204.339Z" fill="#303030"/>
</g>
<defs>
<clipPath id="clip0_2991_3916">
<rect width="235" height="249" fill="white"/>
</clipPath>
</defs>
</svg>
