<svg width="48" height="49" viewBox="0 0 48 49" fill="none" xmlns="http://www.w3.org/2000/svg">
<g clip-path="url(#clip0_2524_4380)">
<path d="M14.5549 38.1873L10.3122 33.9446L8.15815 36.0987C8.2302 36.2204 8.31856 36.3351 8.4232 36.4398L9.21112 37.2277L10.3179 36.1209L12.3786 38.1816L11.2718 39.2884L12.0598 40.0763C12.1644 40.181 12.2791 40.2693 12.4008 40.3414L14.5549 38.1873Z" fill="white"/>
<path d="M1.27109 44.198L4.30155 47.2284C4.63628 47.5632 5.17759 47.5646 5.51059 47.2316L12.4008 40.3414C12.2791 40.2693 12.1644 40.181 12.0598 40.0763L11.2718 39.2884L4.90199 45.6582L2.84128 43.5975L9.21112 37.2277L8.4232 36.4398C8.31856 36.3351 8.2302 36.2204 8.15815 36.0987L1.26795 42.9889C0.934948 43.3219 0.936353 43.8632 1.27109 44.198Z" fill="white"/>
<path d="M10.3122 33.9446L14.5549 38.1873L12.4008 40.3414C13.0575 40.7303 13.9159 40.6445 14.4778 40.0826L23.393 31.1675L17.3321 25.1065L8.41692 34.0217C7.85502 34.5836 7.76919 35.442 8.15815 36.0987L10.3122 33.9446Z" fill="white"/>
<path fill-rule="evenodd" clip-rule="evenodd" d="M23.393 31.1675L37.7528 16.8077L31.6918 10.7468L17.3321 25.1065L23.393 31.1675ZM35.5765 16.802L31.6975 12.923L19.5083 25.1122L23.3873 28.9912L35.5765 16.802Z" fill="white"/>
<path d="M47.031 5.10507L43.3944 1.46852C42.725 0.799046 41.6424 0.796234 40.9764 1.46224L31.6918 10.7468L37.7528 16.8077L47.0373 7.52315C47.7033 6.85715 47.7005 5.77454 47.031 5.10507Z" fill="white"/>
<path d="M12.3786 38.1816L10.3179 36.1209L9.21112 37.2277L11.2718 39.2884L12.3786 38.1816Z" fill="white"/>
</g>
<defs>
<clipPath id="clip0_2524_4380">
<rect width="48" height="48" fill="white" transform="translate(0 0.5)"/>
</clipPath>
</defs>
</svg>
