<svg width="40" height="40" viewBox="0 0 40 40" fill="none" xmlns="http://www.w3.org/2000/svg">
<g clip-path="url(#clip0_2154_4145)">
<path d="M38.2311 32.5953C38.1167 32.4358 37.9506 32.3208 37.7612 32.27L34.7203 31.4551C34.6309 31.4312 34.5398 31.4241 34.45 31.4295L24.1053 21.0849C23.5071 20.4867 23.5071 19.5134 24.1053 18.9152L34.4494 8.57123C34.4665 8.57227 34.4837 8.57378 34.5009 8.57378C34.574 8.57378 34.6478 8.56426 34.7203 8.54484L37.7612 7.73005C37.9507 7.67923 38.1167 7.56431 38.2311 7.40481L39.841 5.15897C40.0829 4.82138 40.045 4.35832 39.7514 4.06476L35.9353 0.248634C35.6416 -0.0449283 35.1786 -0.0830141 34.8411 0.158982L32.5952 1.76886C32.4357 1.88321 32.3208 2.04932 32.27 2.2389L31.4552 5.27973C31.4313 5.3691 31.4242 5.46017 31.4296 5.54991L21.0847 15.8946C20.795 16.1844 20.4097 16.344 19.9999 16.344C19.5901 16.344 19.2048 16.1844 18.9151 15.8946L8.57036 5.54982C8.57573 5.46007 8.56866 5.3691 8.54471 5.27964L7.72992 2.23881C7.67911 2.04923 7.56419 1.88312 7.40468 1.76877L5.15885 0.158982C4.82145 -0.0830141 4.35839 -0.0451168 4.06463 0.248634L0.248511 4.06476C-0.045051 4.35841 -0.0830425 4.82148 0.158953 5.15897L1.76874 7.40481C1.883 7.56431 2.0492 7.67933 2.23868 7.73005L5.27961 8.54484C5.3522 8.56435 5.42592 8.57378 5.49907 8.57378C5.51633 8.57378 5.53339 8.57227 5.55045 8.57123L15.8944 18.9152C16.1842 19.205 16.3438 19.5903 16.3438 20C16.3438 20.4098 16.1843 20.7951 15.8944 21.0849L5.5497 31.4296C5.45995 31.4242 5.36889 31.4313 5.27952 31.4552L2.23859 32.2701C2.04901 32.3209 1.8829 32.4359 1.76864 32.5954L0.158859 34.8412C-0.0830425 35.1787 -0.0451452 35.6418 0.248417 35.9354L4.06454 39.7515C4.22886 39.9159 4.44606 40 4.66477 40C4.83691 40 5.01009 39.9477 5.15875 39.8412L7.40459 38.2313C7.5641 38.117 7.67902 37.9509 7.72983 37.7613L8.54462 34.7204C8.56856 34.6311 8.57564 34.54 8.57026 34.4503L18.9151 24.1054C19.2048 23.8156 19.5901 23.656 19.9999 23.656C20.4097 23.656 20.795 23.8156 21.0847 24.1054L31.4295 34.4503C31.4241 34.54 31.4312 34.631 31.4551 34.7204L32.2699 37.7613C32.3207 37.9509 32.4356 38.117 32.5951 38.2313L34.841 39.8412C34.9897 39.9478 35.1627 40 35.335 40C35.5536 40 35.7709 39.9158 35.9352 39.7515L39.7513 35.9354C40.0449 35.6418 40.0829 35.1787 39.8409 34.8412L38.2311 32.5953ZM33.5286 35.9027L33.221 34.7546L34.7544 33.2211L35.9026 33.5288L33.5286 35.9027ZM33.5286 4.09747L35.9025 6.47133L34.7543 6.77903L33.2209 5.2457L33.5286 4.09747ZM35.2445 1.95759L38.0425 4.75558L37.4346 5.60356L34.3965 2.56546L35.2445 1.95759ZM6.77881 5.2457L5.24558 6.77903L4.09735 6.47133L6.47121 4.09747L6.77881 5.2457ZM4.75546 1.95759L5.60343 2.56546L2.56524 5.60356L1.95738 4.75558L4.75546 1.95759ZM6.47121 35.9026L4.09735 33.5288L5.24558 33.221L6.77891 34.7545L6.47121 35.9026ZM4.75546 38.0426L1.95738 35.2446L2.56524 34.3966L5.60343 37.4347L4.75546 38.0426ZM20 21.9592C19.1369 21.9592 18.3254 22.2953 17.7153 22.9056L7.52262 33.0983L6.90174 32.4774L17.0944 22.2848C17.7047 21.6745 18.0407 20.8631 18.0407 20.0001C18.0407 19.137 17.7047 18.3256 17.0944 17.7154L6.90165 7.52265L7.52252 6.90177L17.7152 17.0944C18.3254 17.7048 19.1368 18.0408 19.9999 18.0408C20.8628 18.0408 21.6743 17.7048 22.2845 17.0944L32.4772 6.90177L33.098 7.52255L22.9054 17.7153C21.6457 18.9751 21.6457 21.0249 22.9054 22.2847L33.0982 32.4774L32.4774 33.0983L22.2847 22.9056C21.6743 22.2954 20.8629 21.9592 20 21.9592ZM35.2445 38.0426L34.3964 37.4347L37.4345 34.3966L38.0424 35.2446L35.2445 38.0426Z" fill="white"/>
</g>
<defs>
<clipPath id="clip0_2154_4145">
<rect width="40" height="40" fill="white"/>
</clipPath>
</defs>
</svg>
