<svg width="48" height="48" viewBox="0 0 48 48" fill="none" xmlns="http://www.w3.org/2000/svg">
<g clip-path="url(#clip0_2148_3502)">
<path d="M46.6821 18.1341H41.4013V6.71675C41.4013 5.9792 40.8112 5.38916 40.0737 5.38916H1.32759C0.590042 5.38916 0 5.9792 0 6.71675V34.1439C0 34.8814 0.590042 35.4715 1.32759 35.4715H19.373V39.9558H12.4204C11.6828 39.9558 11.0928 40.5458 11.0928 41.2834C11.0928 42.0209 11.6828 42.611 12.4204 42.611H28.9907C29.7283 42.611 30.3183 42.0209 30.3183 41.2834C30.3183 40.5458 29.7283 39.9558 28.9907 39.9558H22.0381V35.4715H29.9446C30.6822 35.4715 31.2722 34.8814 31.2722 34.1439C31.2722 33.4063 30.6822 32.8163 29.9446 32.8163H2.65519V8.04435H38.7461V18.1341H33.4652C32.7276 18.1341 32.1376 18.7241 32.1376 19.4617V41.2834C32.1376 42.0209 32.7276 42.611 33.4652 42.611H46.6723C47.4099 42.611 47.9999 42.0209 47.9999 41.2834V19.4617C48.0097 18.7339 47.4099 18.1341 46.6821 18.1341ZM45.3545 39.9656H34.7928V20.7893H45.3447V39.9656H45.3545Z" fill="white"/>
</g>
<defs>
<clipPath id="clip0_2148_3502">
<rect width="48" height="48" fill="white"/>
</clipPath>
</defs>
</svg>
