<svg width="45" height="45" viewBox="0 0 45 45" fill="none" xmlns="http://www.w3.org/2000/svg">
<path d="M40.7812 14.0625H4.21875C3.65931 14.0625 3.12278 13.8403 2.7272 13.4447C2.33161 13.0491 2.10938 12.5126 2.10938 11.9531V6.32812C2.10938 5.76868 2.33161 5.23216 2.7272 4.83657C3.12278 4.44099 3.65931 4.21875 4.21875 4.21875H40.7812C41.3407 4.21875 41.8772 4.44099 42.2728 4.83657C42.6684 5.23216 42.8906 5.76868 42.8906 6.32812V11.9531C42.8906 12.5126 42.6684 13.0491 42.2728 13.4447C41.8772 13.8403 41.3407 14.0625 40.7812 14.0625ZM4.21875 5.625C4.03227 5.625 3.85343 5.69908 3.72157 5.83094C3.5897 5.9628 3.51562 6.14164 3.51562 6.32812V11.9531C3.51562 12.1396 3.5897 12.3184 3.72157 12.4503C3.85343 12.5822 4.03227 12.6562 4.21875 12.6562H40.7812C40.9677 12.6562 41.1466 12.5822 41.2784 12.4503C41.4103 12.3184 41.4844 12.1396 41.4844 11.9531V6.32812C41.4844 6.14164 41.4103 5.9628 41.2784 5.83094C41.1466 5.69908 40.9677 5.625 40.7812 5.625H4.21875Z" fill="white"/>
<path d="M22.5 40.7812C17.6515 40.7812 13.0016 38.8552 9.5732 35.4268C6.1448 31.9984 4.21875 27.3485 4.21875 22.5V13.3594C4.21875 13.1729 4.29283 12.9941 4.42469 12.8622C4.55655 12.7303 4.73539 12.6562 4.92188 12.6562H40.0781C40.2646 12.6562 40.4434 12.7303 40.5753 12.8622C40.7072 12.9941 40.7812 13.1729 40.7812 13.3594V22.5C40.7812 27.3485 38.8552 31.9984 35.4268 35.4268C31.9984 38.8552 27.3485 40.7812 22.5 40.7812ZM5.625 14.0625V22.5C5.625 26.9755 7.4029 31.2677 10.5676 34.4324C13.7322 37.5971 18.0245 39.375 22.5 39.375C26.9755 39.375 31.2677 37.5971 34.4324 34.4324C37.5971 31.2677 39.375 26.9755 39.375 22.5V14.0625H5.625Z" fill="white"/>
<path d="M22.5 40C17.8587 40 13.4075 38.151 10.1256 34.8597C6.84374 31.5685 5 27.1045 5 22.45V13.675C5 13.496 5.07091 13.3243 5.19714 13.1977C5.32337 13.0711 5.49457 13 5.67308 13H39.3269C39.5054 13 39.6766 13.0711 39.8029 13.1977C39.9291 13.3243 40 13.496 40 13.675V22.45C40 27.1045 38.1563 31.5685 34.8744 34.8597C31.5925 38.151 27.1413 40 22.5 40ZM6.34615 14.35V22.45C6.34615 26.7465 8.04807 30.867 11.0775 33.9051C14.1069 36.9432 18.2157 38.65 22.5 38.65C26.7843 38.65 30.8931 36.9432 33.9225 33.9051C36.9519 30.867 38.6538 26.7465 38.6538 22.45V14.35H6.34615Z" fill="white"/>
<path d="M22.5 35.1563C20.6922 35.1563 18.9249 34.6202 17.4217 33.6158C15.9186 32.6114 14.747 31.1838 14.0552 29.5136C13.3633 27.8434 13.1823 26.0055 13.535 24.2324C13.8877 22.4593 14.7583 20.8306 16.0366 19.5522C17.3149 18.2739 18.9436 17.4033 20.7168 17.0506C22.4899 16.6979 24.3277 16.879 25.998 17.5708C27.6682 18.2626 29.0958 19.4342 30.1002 20.9374C31.1045 22.4405 31.6406 24.2078 31.6406 26.0156C31.6406 28.4399 30.6776 30.7648 28.9634 32.479C27.2492 34.1932 24.9242 35.1563 22.5 35.1563ZM22.5 18.2813C20.9703 18.2813 19.4749 18.7349 18.203 19.5847C16.9311 20.4346 15.9398 21.6425 15.3544 23.0558C14.769 24.4691 14.6158 26.0242 14.9142 27.5245C15.2127 29.0249 15.9493 30.403 17.031 31.4847C18.1126 32.5663 19.4908 33.303 20.9911 33.6014C22.4914 33.8998 24.0465 33.7467 25.4598 33.1613C26.8731 32.5759 28.081 31.5845 28.9309 30.3126C29.7808 29.0407 30.2344 27.5453 30.2344 26.0156C30.2344 23.9643 29.4195 21.9971 27.969 20.5466C26.5186 19.0961 24.5513 18.2813 22.5 18.2813Z" fill="white"/>
<path d="M22.5 30.2344C21.6656 30.2344 20.85 29.987 20.1562 29.5234C19.4624 29.0598 18.9217 28.4009 18.6024 27.6301C18.2831 26.8592 18.1995 26.0109 18.3623 25.1926C18.5251 24.3742 18.9269 23.6225 19.5169 23.0325C20.1069 22.4425 20.8586 22.0407 21.677 21.8779C22.4953 21.7152 23.3436 21.7987 24.1144 22.118C24.8853 22.4373 25.5442 22.978 26.0078 23.6718C26.4713 24.3656 26.7188 25.1812 26.7188 26.0156C26.7188 27.1345 26.2743 28.2076 25.4831 28.9987C24.6919 29.7899 23.6189 30.2344 22.5 30.2344ZM22.5 23.2031C21.9437 23.2031 21.4 23.3681 20.9375 23.6771C20.4749 23.9862 20.1145 24.4254 19.9016 24.9393C19.6887 25.4532 19.633 26.0187 19.7415 26.5643C19.8501 27.1099 20.1179 27.611 20.5113 28.0044C20.9046 28.3977 21.4057 28.6656 21.9513 28.7741C22.4969 28.8826 23.0624 28.8269 23.5763 28.614C24.0902 28.4012 24.5295 28.0407 24.8385 27.5782C25.1476 27.1157 25.3125 26.5719 25.3125 26.0156C25.3125 25.2697 25.0162 24.5543 24.4887 24.0269C23.9613 23.4994 23.2459 23.2031 22.5 23.2031Z" fill="white"/>
<path d="M37.9688 11.25H32.3438C31.9708 11.25 31.6131 11.1018 31.3494 10.8381C31.0857 10.5744 30.9375 10.2167 30.9375 9.84375V8.4375C30.9375 8.06454 31.0857 7.70685 31.3494 7.44313C31.6131 7.17941 31.9708 7.03125 32.3438 7.03125H37.9688C38.3417 7.03125 38.6994 7.17941 38.9631 7.44313C39.2268 7.70685 39.375 8.06454 39.375 8.4375V9.84375C39.375 10.2167 39.2268 10.5744 38.9631 10.8381C38.6994 11.1018 38.3417 11.25 37.9688 11.25ZM32.3438 8.4375V9.84375H37.9688V8.4375H32.3438Z" fill="white"/>
<rect x="2.75" y="4.75" width="39.5" height="8.5" rx="1.25" stroke="white" stroke-width="1.5"/>
</svg>
