<svg width="44" height="44" viewBox="0 0 44 44" fill="none" xmlns="http://www.w3.org/2000/svg">
<path d="M29.8587 1.01013H13.4615C12.3009 1.01144 11.1883 1.47306 10.3676 2.29373C9.54692 3.1144 9.08529 4.22709 9.08398 5.38768V38.6122C9.08529 39.7728 9.54692 40.8855 10.3676 41.7061C11.1883 42.5268 12.3009 42.9884 13.4615 42.9897H29.8587C31.0193 42.9884 32.132 42.5268 32.9527 41.7061C33.7733 40.8855 34.235 39.7728 34.2363 38.6122V5.38768C34.235 4.22709 33.7733 3.1144 32.9527 2.29373C32.132 1.47306 31.0193 1.01144 29.8587 1.01013ZM26.5884 2.58156V3.59715C26.588 3.80229 26.5063 3.99892 26.3612 4.14393C26.2161 4.28894 26.0194 4.37051 25.8143 4.37074H17.5082C17.3031 4.37051 17.1065 4.28893 16.9614 4.1439C16.8164 3.99888 16.7348 3.80225 16.7346 3.59715V2.58156H26.5884ZM32.6644 38.6122C32.6636 39.3561 32.3677 40.0694 31.8416 40.5955C31.3155 41.1216 30.6022 41.4175 29.8583 41.4183H13.4615C12.7176 41.4175 12.0043 41.1216 11.4782 40.5955C10.9522 40.0694 10.6562 39.3561 10.6554 38.6122V5.38768C10.6562 4.64371 10.9522 3.93044 11.4782 3.40437C12.0043 2.8783 12.7176 2.58239 13.4615 2.58156H15.1614V3.59715C15.1621 4.21887 15.4094 4.81492 15.849 5.25454C16.2886 5.69417 16.8847 5.94146 17.5064 5.94217H25.8125C26.4343 5.94146 27.0304 5.69418 27.4701 5.25457C27.9098 4.81496 28.1572 4.21891 28.158 3.59715V2.58156H29.8587C30.6026 2.58251 31.3158 2.87847 31.8417 3.40453C32.3677 3.93059 32.6636 4.64379 32.6644 5.38768V38.6122Z" fill="white"/>
<path d="M26.4912 37.6769H16.8287C16.6203 37.6769 16.4204 37.7597 16.2731 37.907C16.1257 38.0544 16.043 38.2542 16.043 38.4626C16.043 38.671 16.1257 38.8708 16.2731 39.0182C16.4204 39.1655 16.6203 39.2483 16.8287 39.2483H26.4912C26.6996 39.2483 26.8994 39.1655 27.0468 39.0182C27.1941 38.8708 27.2769 38.671 27.2769 38.4626C27.2769 38.2542 27.1941 38.0544 27.0468 37.907C26.8994 37.7597 26.6996 37.6769 26.4912 37.6769Z" fill="white"/>
<rect x="15.0286" y="14.2083" width="13.0391" height="13.0391" rx="2.22547" stroke="white" stroke-width="0.916667"/>
<path d="M21.2801 25.5588H21.8169V27.008H21.2801V25.5588Z" stroke="white" stroke-width="0.536761"/>
<circle cx="21.5397" cy="20.625" r="4.58333" stroke="white" stroke-width="0.916667"/>
<circle cx="21.5404" cy="20.625" r="2.75" stroke="white" stroke-width="0.916667"/>
<path fill-rule="evenodd" clip-rule="evenodd" d="M21.5485 19.8227L23.1942 18.1183L23.8536 18.755L22.1856 20.4826L24.0677 22.4319L23.4083 23.0686L21.5485 21.1424L19.6887 23.0686L19.0293 22.4319L20.9114 20.4826L19.2434 18.755L19.9028 18.1183L21.5485 19.8227Z" fill="white"/>
</svg>
