<svg width="44" height="44" viewBox="0 0 44 44" fill="none" xmlns="http://www.w3.org/2000/svg">
<g clip-path="url(#clip0_2148_3884)">
<path d="M29.9709 13.0071C29.9709 12.0462 29.5967 11.1428 28.9173 10.4634L26.253 7.79911C25.8316 7.37754 25.5994 6.81726 25.5994 6.22128V5.74861C26.0334 5.50754 26.328 5.0448 26.328 4.51412V2.32838C26.328 1.54998 25.6948 0.916748 24.9164 0.916748H19.0877C18.3093 0.916748 17.6761 1.54998 17.6761 2.32838V4.51412C17.6761 5.0448 17.9707 5.50754 18.4047 5.74861V6.22128C18.4047 6.81726 18.1726 7.37763 17.7512 7.79902L15.0868 10.4634C14.4074 11.1428 14.0332 12.0462 14.0332 13.0071V26.3716C14.0332 26.9341 14.2517 27.4463 14.6079 27.8287C14.2517 28.2111 14.0332 28.7233 14.0332 29.2859C14.0332 29.8485 14.2517 30.3606 14.6079 30.7431C14.2517 31.1255 14.0332 31.6377 14.0332 32.2002C14.0332 32.7628 14.2517 33.275 14.6079 33.6574C14.2517 34.0398 14.0332 34.552 14.0332 35.1146C14.0332 35.6771 14.2517 36.1893 14.6079 36.5717C14.2517 36.9541 14.0332 37.4663 14.0332 38.0289V39.486C14.0332 41.4696 15.647 43.0834 17.6306 43.0834H26.3736C28.3571 43.0834 29.9709 41.4696 29.9709 39.486V38.0289C29.9709 37.4663 29.7524 36.9541 29.3963 36.5717C29.7524 36.1893 29.9709 35.6771 29.9709 35.1146C29.9709 34.552 29.7524 34.0398 29.3963 33.6574C29.7524 33.275 29.9709 32.7628 29.9709 32.2002C29.9709 31.6377 29.7524 31.1255 29.3963 30.7431C29.7524 30.3606 29.9709 29.8485 29.9709 29.2859C29.9709 28.7233 29.7524 28.2111 29.3963 27.8287C29.7524 27.4463 29.9709 26.9341 29.9709 26.3716V13.0071ZM19.0422 2.32838C19.0422 2.30333 19.0626 2.28284 19.0877 2.28284H24.9164C24.9415 2.28284 24.9619 2.30333 24.9619 2.32838V4.51412C24.9619 4.53917 24.9415 4.55966 24.9164 4.55966H19.0877C19.0626 4.55966 19.0422 4.53917 19.0422 4.51412V2.32838ZM15.3993 13.0071C15.3993 12.4111 15.6313 11.8508 16.0528 11.4295L18.7172 8.76503C19.3966 8.08554 19.7708 7.18219 19.7708 6.22128V5.92575H24.2333V6.22128C24.2333 7.1821 24.6075 8.08554 25.287 8.76512L27.9513 11.4295C28.3727 11.8508 28.6048 12.4111 28.6048 13.0071V26.3716C28.6048 26.7984 28.2576 27.1457 27.8307 27.1457H16.1734C15.7466 27.1457 15.3993 26.7984 15.3993 26.3716V13.0071ZM28.6048 29.2859C28.6048 29.7128 28.2576 30.06 27.8307 30.06H16.1734C15.7466 30.06 15.3993 29.7128 15.3993 29.2859C15.3993 28.859 15.7466 28.5118 16.1734 28.5118H27.8307C28.2576 28.5118 28.6048 28.859 28.6048 29.2859ZM28.6048 32.2002C28.6048 32.6271 28.2576 32.9743 27.8307 32.9743H16.1734C15.7466 32.9743 15.3993 32.6271 15.3993 32.2002C15.3993 31.7734 15.7466 31.4261 16.1734 31.4261H27.8307C28.2576 31.4261 28.6048 31.7734 28.6048 32.2002ZM28.6048 35.1146C28.6048 35.5414 28.2576 35.8887 27.8307 35.8887H16.1734C15.7466 35.8887 15.3993 35.5414 15.3993 35.1146C15.3993 34.6877 15.7466 34.3404 16.1734 34.3404H27.8307C28.2576 34.3404 28.6048 34.6877 28.6048 35.1146ZM28.6048 39.486C28.6048 40.7164 27.6039 41.7173 26.3736 41.7173H17.6306C16.4003 41.7173 15.3993 40.7164 15.3993 39.486V38.0289C15.3993 37.602 15.7466 37.2548 16.1734 37.2548H27.8307C28.2576 37.2548 28.6048 37.602 28.6048 38.0289V39.486Z" fill="white"/>
<path d="M22.0036 24.1403C23.9872 24.1403 25.601 22.5265 25.601 20.5429C25.601 18.8083 23.0725 15.0599 22.5656 14.3261C22.4381 14.1414 22.228 14.0312 22.0036 14.0312C21.7792 14.0312 21.5691 14.1414 21.4416 14.3261C20.9348 15.0599 18.4062 18.8083 18.4062 20.5429C18.4062 22.5265 20.0201 24.1403 22.0036 24.1403ZM21.1331 17.3752C21.4416 16.8428 21.7525 16.344 22.0054 15.9502C23.0673 17.6026 24.2349 19.7286 24.2349 20.5429C24.2349 21.7733 23.2339 22.7742 22.0036 22.7742C20.7733 22.7742 19.7723 21.7733 19.7723 20.5429C19.7723 20.2962 19.9049 19.4936 21.1331 17.3752Z" fill="white"/>
</g>
<defs>
<clipPath id="clip0_2148_3884">
<rect width="42.1667" height="42.1667" fill="white" transform="translate(0.916016 0.916626)"/>
</clipPath>
</defs>
</svg>
