<svg width="48" height="48" viewBox="0 0 48 48" fill="none" xmlns="http://www.w3.org/2000/svg">
<path fill-rule="evenodd" clip-rule="evenodd" d="M7 23.5C7 13.835 14.835 6 24.5 6C34.165 6 42 13.835 42 23.5C42 33.165 34.165 41 24.5 41C14.835 41 7 33.165 7 23.5ZM24.5 4C13.7304 4 5 12.7304 5 23.5C5 34.2696 13.7304 43 24.5 43C35.2696 43 44 34.2696 44 23.5C44 12.7304 35.2696 4 24.5 4ZM15.8828 23.57L20.3353 16.8905L21.1679 17.4454L21.1679 17.4453L22.8321 18.5547L22.832 18.5548L23.6636 19.1091L19.211 25.7888L22.3508 27.8821L12 33L12.7432 21.4769L15.8828 23.57ZM32.1192 23.5682L27.6731 16.8875L26.8323 17.447L26.8312 17.4454L25.1671 18.5548L25.1673 18.5551L24.3432 19.1036L28.791 25.787L25.6483 27.8821L35.9992 33.0001L35.256 21.477L32.1192 23.5682Z" fill="white"/>
</svg>
