<svg width="48" height="48" viewBox="0 0 48 48" fill="none" xmlns="http://www.w3.org/2000/svg">
<path fill-rule="evenodd" clip-rule="evenodd" d="M41.6267 12.0142C41.4849 12.0484 41.3944 12.1263 41.3657 12.169C41.2947 12.2744 40.921 12.8499 40.3566 13.7219L40.9097 14.0336C41.4778 13.117 41.8844 12.4682 41.9837 12.3305C41.9915 12.3197 42.0086 12.2865 41.9951 12.2225C41.982 12.1602 41.941 12.0853 41.8555 12.027C41.8358 12.0136 41.763 11.9814 41.6267 12.0142ZM39.8577 15.7365L39.2685 15.4045C37.7091 17.8173 35.6077 21.0739 34.0994 23.4123C34.1107 23.4194 34.1221 23.4264 34.1336 23.4335C34.3714 23.581 34.6254 23.7385 34.8586 23.8827C36.3116 21.5081 38.3404 18.1982 39.8577 15.7365ZM36.3407 25.2924C37.9778 22.6163 40.4922 18.5138 42.1058 15.9017C42.527 15.2199 42.886 14.6409 43.1518 14.2157C43.2848 14.0029 43.3934 13.8303 43.4743 13.7033C43.5148 13.6397 43.5473 13.5893 43.5717 13.5519C43.5989 13.5104 43.608 13.4974 43.606 13.5003C44.3487 12.4702 43.9943 11.0637 42.9811 10.3739C42.3985 9.97718 41.7185 9.93487 41.1583 10.0698C40.6037 10.2034 40.0543 10.5356 39.7065 11.0522C39.5999 11.2105 38.9711 12.1809 38.0998 13.5282C36.4414 16.0931 33.8687 20.08 32.1854 22.6899C31.8787 22.7469 31.4905 22.9218 31.2485 23.3212L31.2472 23.3233C31.2397 23.3348 31.2014 23.3941 31.1214 23.5166C31.0388 23.6428 30.924 23.8178 30.7842 24.0305C30.5047 24.4558 30.1266 25.0297 29.7104 25.6611C29.0399 26.6783 28.2707 27.8438 27.6559 28.775L15.2228 24.8935V24.1749C15.2228 23.9384 15.1629 23.7169 15.0546 23.525C15.3563 23.4174 15.5941 23.2183 15.7569 22.9977C15.9853 22.6881 16.0886 22.3166 16.0886 21.9752C16.0886 21.6738 16.0141 21.282 15.7373 20.9468C15.435 20.581 15.0019 20.416 14.5616 20.416H9.8561C9.05632 20.416 8.29144 21.0352 8.29144 21.9752C8.29144 22.222 8.32656 22.636 8.59552 23.006C8.80236 23.2905 9.08 23.4616 9.37884 23.5454C9.26479 23.7729 9.23254 24.0015 9.23254 24.1749V24.6116C9.09951 24.6474 8.96604 24.7015 8.83952 24.7781C8.56636 24.9434 8.21615 25.297 8.21615 25.8526V26.5983C8.21615 26.7462 8.23285 26.9624 8.33744 27.1884C8.45211 27.4362 8.62337 27.5921 8.76082 27.6882C8.85474 27.7538 8.96508 27.811 9.00709 27.8328C9.01211 27.8354 9.01615 27.8375 9.01907 27.839C9.07056 27.8662 9.11014 27.8882 9.15453 27.9175C9.25545 27.9841 9.41375 28.0571 9.50659 28.1L9.51698 28.1048C9.65041 28.1664 9.82839 28.2461 10.0406 28.3397C10.466 28.5273 11.0442 28.7774 11.7113 29.0635C12.9128 29.5788 14.4109 30.2144 15.8432 30.8194L8.48058 31.9493C8.32764 31.8814 8.16828 31.8252 8.00366 31.7816C7.74082 31.7121 7.46564 31.6754 7.18336 31.6754C5.43435 31.6754 4 33.0822 4 34.8378C4 36.5934 5.43435 38.0002 7.18336 38.0002C8.36776 38.0002 9.40497 37.3568 9.95332 36.397H29.1956C29.5911 37.3418 30.53 38.0002 31.6144 38.0002C32.6989 38.0002 33.6377 37.3418 34.0333 36.397H34.513C34.9991 36.397 35.5347 36.2679 35.9461 35.8606C36.359 35.4516 36.4918 34.9158 36.4918 34.4277V31.6688C36.4918 30.4371 35.5922 29.3289 34.3963 29.0317C34.6171 28.6913 34.8417 28.3451 35.051 28.0222C35.2851 27.6611 35.5002 27.3291 35.6698 27.0669C35.8577 26.7764 35.9945 26.5645 36.0363 26.4982C36.1452 26.3256 36.3276 26.0105 36.357 25.6318C36.3652 25.5265 36.362 25.4116 36.3407 25.2924ZM32.0625 28.9537C32.4555 28.3484 32.9459 27.5927 33.3728 26.9343C33.6067 26.5734 33.8215 26.2419 33.9906 25.9805C34.0385 25.9064 34.0825 25.8384 34.122 25.7772C33.7176 25.5287 33.1869 25.2002 32.7841 24.9508C32.7315 24.9182 32.6811 24.8871 32.6335 24.8576C32.0798 25.7018 30.9246 27.4535 29.9344 28.9537H32.0625ZM28.1522 30.9537L10.1601 33.7149C10.2431 33.9317 10.3028 34.1601 10.336 34.397H29.1961C29.373 33.975 29.6579 33.61 30.0142 33.3363C30.4573 32.996 31.014 32.7939 31.6144 32.7939C32.2149 32.7939 32.7716 32.996 33.2147 33.3363C33.5709 33.61 33.8559 33.975 34.0327 34.397H34.4918V31.6688C34.4918 31.3214 34.1441 30.9537 33.7602 30.9537H28.1522ZM23.6535 29.6207L13.2228 26.3643V24.8394H12.6205V22.416H11.7972V24.8394H11.2325V25.368C11.2325 25.5223 11.2148 26.0642 10.7024 26.3813C10.6813 26.3944 10.6603 26.4064 10.6395 26.4175C10.7032 26.4459 10.7726 26.4767 10.8476 26.5097C11.2636 26.6932 11.8344 26.9401 12.4997 27.2255C13.8295 27.7958 15.5268 28.5152 17.0961 29.1774C18.0151 29.5652 18.8897 29.9331 19.62 30.2397L23.6535 29.6207ZM32.9591 24.3575C32.9555 24.3635 32.9519 24.3693 32.9482 24.375C32.9531 24.3672 32.9568 24.3614 32.9591 24.3575ZM9.23254 25.3674C9.23254 25.3668 9.23253 25.3657 9.23254 25.3644L9.23254 25.3674ZM7.18336 33.6754C6.52069 33.6754 6 34.2049 6 34.8378C6 35.4707 6.52069 36.0002 7.18336 36.0002C7.73637 36.0002 8.19482 35.6288 8.32747 35.1368C8.3529 35.0424 8.36673 34.9425 8.36673 34.8378C8.36673 34.4217 8.14412 34.0517 7.79836 33.8444C7.70404 33.7878 7.6013 33.744 7.49239 33.7152C7.395 33.6894 7.29162 33.6754 7.18336 33.6754ZM31.6144 34.7939C31.4682 34.7939 31.3371 34.8421 31.2325 34.9225C31.0846 35.036 30.9957 35.2075 30.9957 35.397C30.9957 35.7211 31.2636 36.0002 31.6144 36.0002C31.9653 36.0002 32.2331 35.7211 32.2331 35.397C32.2331 35.2075 32.1442 35.036 31.9964 34.9225C31.8918 34.8421 31.7607 34.7939 31.6144 34.7939Z" fill="white"/>
</svg>
