<svg width="48" height="48" viewBox="0 0 48 48" fill="none" xmlns="http://www.w3.org/2000/svg">
<path fill-rule="evenodd" clip-rule="evenodd" d="M7 12.2576V26.2808C7.46859 25.8098 8.00481 25.4052 8.59252 25.0823V12.331C8.5049 12.2178 8.26736 12 7.72141 12C7.32049 12 7.14326 12.1148 7.07377 12.1743C7.03618 12.2064 7.01333 12.2366 7 12.2576ZM10.5925 13.1048V18.3229H37.2952V13.1048H10.5925ZM37.5972 11.1048H10.1714C9.72289 10.5266 8.9211 10 7.72141 10C5.99565 10 5.15611 11.099 5.01404 11.9378L5 12.0207V31.1076C5 34.9292 8.14359 38 11.9875 38C14.0295 38 15.8706 37.1347 17.1491 35.7535H36.0977V37C36.0977 37.5523 36.5454 38 37.0977 38C37.65 38 38.0977 37.5523 38.0977 37V35.711C38.8425 35.639 39.7638 35.4472 40.6108 34.9389C42.0043 34.1025 43 32.539 43 29.9292V12.1048C43 11.6084 42.7622 11.053 42.2599 10.6411C41.7517 10.2243 41.0365 10 40.1289 10C39.2231 10 38.5067 10.2236 38.0013 10.6499C37.8369 10.7886 37.7028 10.9427 37.5972 11.1048ZM18.4414 33.7535H37.0977C37.8127 33.7535 38.7923 33.6977 39.5816 33.224C40.2743 32.8082 41 31.9596 41 29.9292V12.1947C40.9975 12.1924 40.9947 12.1901 40.9917 12.1875C40.9386 12.144 40.7182 12 40.1289 12C39.5567 12 39.3448 12.1356 39.2952 12.1751V29.9292C39.2952 30.2652 39.2636 30.8484 38.8848 31.3455C38.4611 31.9015 37.8054 32.1076 37.0977 32.1076H18.9019C18.8172 32.6823 18.6605 33.2341 18.4414 33.7535ZM18.9022 30.1076H37.0977C37.1844 30.1076 37.2459 30.1014 37.2873 30.0945C37.292 30.0548 37.2952 30.0011 37.2952 29.9292V20.3229H10.5925V24.3529C11.0438 24.2626 11.5104 24.2153 11.9875 24.2153C15.4897 24.2153 18.4105 26.7642 18.9022 30.1076ZM41.0203 12.2164C41.0202 12.2165 41.02 12.216 41.0194 12.2152L41.0203 12.2164ZM7 31.1076C7 33.7946 9.21782 36 11.9875 36C13.5827 36 14.9986 35.2669 15.9112 34.1282C16.5789 33.295 16.9751 32.2473 16.9751 31.1076C16.9751 28.4207 14.7572 26.2153 11.9875 26.2153C11.274 26.2153 10.5982 26.3617 9.98752 26.6243C8.22004 27.3842 7 29.1122 7 31.1076ZM29.9127 14.6402C30.465 14.6402 30.9127 15.0879 30.9127 15.6402V15.7139C30.9127 16.2662 30.465 16.7139 29.9127 16.7139C29.3604 16.7139 28.9127 16.2662 28.9127 15.7139V15.6402C28.9127 15.0879 29.3604 14.6402 29.9127 14.6402ZM33.58 14.6402C34.1323 14.6402 34.58 15.0879 34.58 15.6402V15.7139C34.58 16.2662 34.1323 16.7139 33.58 16.7139C33.0278 16.7139 32.58 16.2662 32.58 15.7139V15.6402C32.58 15.0879 33.0278 14.6402 33.58 14.6402ZM11.9875 29.7507C11.2019 29.7507 10.5925 30.3733 10.5925 31.1076C10.5925 31.842 11.2019 32.4646 11.9875 32.4646C12.7731 32.4646 13.3825 31.842 13.3825 31.1076C13.3825 30.3733 12.7731 29.7507 11.9875 29.7507ZM8.59252 31.1076C8.59252 29.2386 10.1277 27.7507 11.9875 27.7507C13.8474 27.7507 15.3825 29.2386 15.3825 31.1076C15.3825 32.9767 13.8474 34.4646 11.9875 34.4646C10.1277 34.4646 8.59252 32.9767 8.59252 31.1076Z" fill="white"/>
</svg>
