<svg width="48" height="48" viewBox="0 0 48 48" fill="none" xmlns="http://www.w3.org/2000/svg">
<path fill-rule="evenodd" clip-rule="evenodd" d="M24 6C22.8954 6 22 6.89543 22 8C22 9.10457 22.8954 10 24 10C25.1046 10 26 9.10457 26 8C26 6.89543 25.1046 6 24 6ZM20 8C20 5.79086 21.7909 4 24 4C26.2091 4 28 5.79086 28 8C28 9.70959 26.9275 11.1687 25.4186 11.7411L35.6777 35.0572C37.5641 35.3791 39 37.0218 39 39C39 41.2091 37.2091 43 35 43C32.7909 43 31 41.2091 31 39C31 37.6297 31.6887 36.4218 32.7374 35.7012L26.1023 19H21.8977L15.2625 35.7012C16.3113 36.4218 17 37.6297 17 39C17 41.2091 15.2091 43 13 43C10.7909 43 9 41.2091 9 39C9 37.0218 10.4359 35.3791 12.3223 35.0572L22.5814 11.7411C21.0725 11.1687 20 9.70959 20 8ZM24 13.7084L22.6923 17H25.3077L24 13.7084ZM13 37C11.8954 37 11 37.8954 11 39C11 40.1046 11.8954 41 13 41C14.1046 41 15 40.1046 15 39C15 38.1307 14.4449 37.3886 13.6668 37.1135C13.4595 37.0403 13.2355 37 13 37ZM35 37C34.7645 37 34.5405 37.0403 34.3332 37.1135C33.5551 37.3886 33 38.1307 33 39C33 40.1046 33.8954 41 35 41C36.1046 41 37 40.1046 37 39C37 37.8954 36.1046 37 35 37Z" fill="white"/>
</svg>
