<svg width="48" height="48" viewBox="0 0 48 48" fill="none" xmlns="http://www.w3.org/2000/svg">
<path fill-rule="evenodd" clip-rule="evenodd" d="M8 12.2569C8 9.9059 9.9059 8 12.2569 8H36.7431C39.0941 8 41 9.9059 41 12.2569C41 13.6803 40.2887 15.0094 39.1044 15.7989L38.4913 16.2076C39.665 17.9478 39.6258 20.2573 38.3736 21.9594L39.8787 23.4645C40.5966 24.1824 41 25.1562 41 26.1716C41 28.286 39.286 30 37.1716 30H15.4775C15.5015 30.1693 15.5427 30.3336 15.6051 30.4774C15.6824 30.6559 15.7787 30.7732 15.8884 30.8489C15.9931 30.9212 16.1737 31 16.5 31H30.5C31.3343 31 32.2768 31.1348 33.0481 31.5633C33.8795 32.0252 34.5 32.8345 34.5 34C34.5 34.8215 34.3725 35.7917 33.6446 36.5196C32.9249 37.2393 31.8418 37.5 30.5 37.5H16.5C16.1738 37.5 16.0127 37.5785 15.9292 37.6388C15.8395 37.7036 15.7527 37.8108 15.6785 37.9964C15.5118 38.413 15.5 38.966 15.5 39.5H13.5C13.5 39.485 13.5 39.4696 13.5 39.4536C13.4996 38.9733 13.4989 38.0602 13.8215 37.2536C13.9973 36.8142 14.2855 36.3589 14.7583 36.0174C15.2373 35.6715 15.8262 35.5 16.5 35.5H30.5C31.6582 35.5 32.0751 35.2607 32.2304 35.1054C32.3775 34.9583 32.5 34.6785 32.5 34C32.5 33.6655 32.3705 33.4748 32.0769 33.3117C31.7232 33.1152 31.1657 33 30.5 33H16.5C15.8263 33 15.2361 32.8288 14.7522 32.4949C14.2733 32.1643 13.9634 31.7191 13.7699 31.2726C13.589 30.8551 13.4992 30.4139 13.4663 30H11.8284C9.71405 30 8 28.286 8 26.1716C8 25.1562 8.40335 24.1824 9.12132 23.4645L10.6264 21.9594C9.37419 20.2573 9.33495 17.9478 10.5087 16.2076L9.89561 15.7989C8.71134 15.0094 8 13.6803 8 12.2569ZM12.4208 17C11.4022 18.1385 11.4022 19.8615 12.4208 21H36.5792C37.5978 19.8615 37.5978 18.1385 36.5792 17H12.4208ZM36.6972 15L37.995 14.1348C38.6229 13.7162 39 13.0116 39 12.2569C39 11.0105 37.9895 10 36.7431 10H12.2569C11.0105 10 10 11.0105 10 12.2569C10 13.0116 10.3771 13.7162 11.005 14.1348L12.3028 15H36.6972ZM36.5858 23H12.4142L10.5355 24.8787C10.1926 25.2216 10 25.6866 10 26.1716C10 27.1814 10.8186 28 11.8284 28H37.1716C38.1814 28 39 27.1814 39 26.1716C39 25.6866 38.8074 25.2216 38.4645 24.8787L36.5858 23Z" fill="white"/>
</svg>
