<svg width="48" height="48" viewBox="0 0 48 48" fill="none" xmlns="http://www.w3.org/2000/svg">
<path fill-rule="evenodd" clip-rule="evenodd" d="M27.8165 7C28.3688 7 28.8165 7.44772 28.8165 8C28.8165 8.66051 29.0525 8.97068 29.2623 9.13895C29.5116 9.33893 29.8276 9.41518 30.0146 9.42051H37.0174C37.1338 9.42051 37.2494 9.44086 37.3588 9.48062C37.805 9.64272 38.4532 9.96632 39.0099 10.4445C39.5525 10.9105 40.1629 11.6621 40.1629 12.6769C40.1629 13.746 39.4931 14.4297 38.8793 14.8043C38.2766 15.1722 37.5909 15.3408 37.1314 15.3935C37.0935 15.3978 37.0555 15.4 37.0174 15.4H30.0033C30.0033 15.4 30.0035 15.4 30.0033 15.4C30 15.4002 29.9691 15.4024 29.9249 15.4183C29.8808 15.4341 29.8367 15.4588 29.7977 15.4941C29.7443 15.5424 29.6004 15.6985 29.6004 16.1641C29.6004 16.6289 29.7458 16.84 29.8414 16.9377C29.898 16.9956 29.9597 17.0364 30.0168 17.0636C30.0452 17.0771 30.0704 17.0863 30.0902 17.0921C30.09 17.092 30.0905 17.0922 30.0902 17.0921L37.0174 17.0923C38.1896 17.0923 39.0183 17.6096 39.5241 18.3029C39.7627 18.63 39.921 18.9829 40.0204 19.3183C41.0441 19.5402 41.9311 20.1364 42.5848 20.8343C43.4054 21.7102 44 22.8968 44 24.041V32.3692C44 35.0602 41.8553 37.1846 39.1629 37.1846H37.481V40C37.481 40.5523 37.0333 41 36.481 41H33.7579C33.4191 41 33.1034 40.8285 32.919 40.5443L30.7391 37.1846H20.3777C19.915 39.3674 17.9679 41 15.645 41C13.322 41 11.3749 39.3674 10.9122 37.1846H8.83713C7.28959 37.1846 6.06725 36.4724 5.25084 35.5328C4.45281 34.6143 4 33.4323 4 32.3692V24.041C4 21.1113 6.51176 19.2256 8.83713 19.2256H12.1694V18.1077H11.7666C11.2143 18.1077 10.7666 17.66 10.7666 17.1077C10.7666 16.5554 11.2143 16.1077 11.7666 16.1077H12.1694V15.4H11.7666C11.2143 15.4 10.7666 14.9523 10.7666 14.4C10.7666 13.8477 11.2143 13.4 11.7666 13.4H12.1694V12.7744H11.7666C11.2143 12.7744 10.7666 12.3266 10.7666 11.7744C10.7666 11.2221 11.2143 10.7744 11.7666 10.7744H12.3477C12.5598 9.99511 12.9586 9.37623 13.5318 8.92623C14.3772 8.26264 15.4289 8.10769 16.3051 8.10769H20.8849C22.0561 8.10769 23.1023 8.52606 23.8574 9.28392C24.2757 9.70369 24.5878 10.2107 24.7829 10.7744H25.7948C26.3471 10.7744 26.7948 11.2221 26.7948 11.7744C26.7948 12.3266 26.3471 12.7744 25.7948 12.7744H25.0206V13.4H25.7948C26.3471 13.4 26.7948 13.8477 26.7948 14.4C26.7948 14.9523 26.3471 15.4 25.7948 15.4H25.0206V16.1077H25.7948C26.3471 16.1077 26.7948 16.5554 26.7948 17.1077C26.7948 17.66 26.3471 18.1077 25.7948 18.1077H25.0206V19.2256H37.6234C37.48 19.1461 37.2867 19.0923 37.0174 19.0923H30.0033C29.9644 19.0923 29.9256 19.09 29.8871 19.0855C29.443 19.0336 28.8755 18.8105 28.4116 18.3362C27.9227 17.8363 27.6004 17.1105 27.6004 16.1641C27.6004 15.2185 27.9242 14.4925 28.4553 14.0115C28.9551 13.559 29.5552 13.4 30.0033 13.4H36.954C37.2081 13.3638 37.5647 13.2636 37.8373 13.0972C38.1175 12.9262 38.1629 12.7894 38.1629 12.6769C38.1629 12.5102 38.0581 12.2635 37.7067 11.9617C37.4271 11.7215 37.0875 11.5335 36.8263 11.4205H30.0033L29.9845 11.4203C29.4415 11.4102 28.6693 11.2273 28.0108 10.699C27.3094 10.1363 26.8165 9.24308 26.8165 8C26.8165 7.44772 27.2642 7 27.8165 7ZM38.1629 21.2256H9.83713V35.1846H10.9114C11.3741 33.0018 13.322 31.3692 15.645 31.3692C17.9679 31.3692 19.915 33.0018 20.3777 35.1846H38.1629V21.2256ZM40.1629 35.0119C41.2495 34.6188 42 33.5958 42 32.3692V24.041C42 23.5443 41.7075 22.8232 41.1253 22.2016C40.8331 21.8898 40.5046 21.642 40.1629 21.4742V35.0119ZM7.83713 34.9981V21.4199C6.83099 21.8144 6 22.7801 6 24.041V32.3692C6 32.9062 6.2486 33.6318 6.76057 34.221C7.05037 34.5546 7.41005 34.8286 7.83713 34.9981ZM23.0206 19.2256V18.1077H14.1694V19.2256H23.0206ZM14.1694 16.1077H23.0206V15.4001L14.1694 15.4V16.1077ZM14.1694 13.4H23.0206V12.7744H14.1694V13.4ZM14.5104 10.7744H22.5146C22.4906 10.7472 22.4659 10.721 22.4406 10.6956C22.0921 10.3457 21.5704 10.1077 20.8849 10.1077H16.3051C15.6134 10.1077 15.0973 10.2399 14.7668 10.4994C14.681 10.5667 14.5923 10.6549 14.5104 10.7744ZM33.1232 37.1846L34.3011 39H35.481V37.1846H33.1232ZM12.1694 23.1795C12.1694 22.6272 12.6171 22.1795 13.1694 22.1795H34.9131C35.4654 22.1795 35.9131 22.6272 35.9131 23.1795C35.9131 23.7318 35.4654 24.1795 34.9131 24.1795H13.1694C12.6171 24.1795 12.1694 23.7318 12.1694 23.1795ZM12.1694 25.9282C12.1694 25.3759 12.6171 24.9282 13.1694 24.9282H25.0109C25.5631 24.9282 26.0109 25.3759 26.0109 25.9282C26.0109 26.4805 25.5631 26.9282 25.0109 26.9282H13.1694C12.6171 26.9282 12.1694 26.4805 12.1694 25.9282ZM12.1694 28.759C12.1694 28.2067 12.6171 27.759 13.1694 27.759H25.0109C25.5631 27.759 26.0109 28.2067 26.0109 28.759C26.0109 29.3113 25.5631 29.759 25.0109 29.759H13.1694C12.6171 29.759 12.1694 29.3113 12.1694 28.759ZM15.645 33.3692C14.0727 33.3692 12.8078 34.6351 12.8078 36.1846C12.8078 37.7342 14.0727 39 15.645 39C17.2172 39 18.4821 37.7342 18.4821 36.1846C18.4821 34.6351 17.2172 33.3692 15.645 33.3692Z" fill="white"/>
</svg>
