<svg width="24" height="24" viewBox="0 0 24 24" fill="none" xmlns="http://www.w3.org/2000/svg">
<path fill-rule="evenodd" clip-rule="evenodd" d="M11.7962 10.0199C11.5561 10.0756 11.3432 10.2237 11.1973 10.4366C11.0514 10.6494 10.9826 10.9123 11.0038 11.1759C11.0227 11.6497 11.3829 14.0352 11.4701 14.7133C11.4981 15.0084 11.5411 15.3016 11.5991 15.5915C11.6148 15.6555 11.6434 15.715 11.6829 15.7656C11.7224 15.8163 11.7718 15.8569 11.8276 15.8846C11.8834 15.9124 11.9442 15.9264 12.0056 15.9259C12.067 15.9254 12.1276 15.9102 12.183 15.8816C12.4105 15.759 12.418 15.518 12.4635 15.1953L12.8427 12.5606C12.9034 12.1031 13.0816 11.1636 12.9565 10.747C12.8828 10.4965 12.7261 10.2839 12.5164 10.1498C12.3066 10.0157 12.0584 9.96947 11.819 10.0199H11.7962Z" fill="#303030"/>
<path fill-rule="evenodd" clip-rule="evenodd" d="M11.9249 16.524C11.7827 16.5395 11.6483 16.599 11.539 16.6946C11.4298 16.7902 11.3508 16.9176 11.3122 17.0602C11.2736 17.2029 11.2773 17.3543 11.3226 17.4948C11.368 17.6353 11.453 17.7584 11.5667 17.8483C11.6804 17.9382 11.8175 17.9906 11.9602 17.9989C12.103 18.0071 12.2449 17.9708 12.3675 17.8945C12.4901 17.8183 12.5878 17.7057 12.648 17.5713C12.7081 17.4369 12.728 17.2869 12.705 17.1407C12.6785 16.9527 12.582 16.7828 12.4362 16.6676C12.2904 16.5523 12.1069 16.5008 11.9249 16.524Z" fill="#303030"/>
<path d="M10.6037 3.81973C11.2268 2.72676 12.7732 2.72676 13.3963 3.81973L21.7769 18.5217C22.4145 19.6401 21.6048 21 20.3807 21H3.61935C2.39519 21 1.58552 19.6401 2.22307 18.5217L10.6037 3.81973Z" stroke="#303030" stroke-width="2"/>
</svg>
