<svg width="48" height="48" viewBox="0 0 48 48" fill="none" xmlns="http://www.w3.org/2000/svg">
<path d="M5.24652 43H43.7535C44.4408 43 45 42.4456 45 41.7643V38.0522C45 37.3709 44.4408 36.8165 43.7535 36.8165H39.217L27.5007 33.2873L39.3412 29.7212C39.7086 29.6104 39.9599 29.2746 39.9599 28.8939C39.9599 28.5131 39.7086 28.1773 39.3412 28.0665L27.5007 24.5L39.3412 20.9339C39.7086 20.8231 39.9599 20.4873 39.9599 20.1066C39.9599 19.7258 39.7086 19.39 39.3412 19.2792L27.5007 15.7127L39.217 12.1835H43.7535C44.4408 12.1835 45 11.6291 45 10.9478V7.23568C45 6.55438 44.4408 6 43.7535 6H5.24652C4.55924 6 4 6.55438 4 7.23568V10.9478C4 11.6291 4.55924 12.1835 5.24652 12.1835H9.783L21.4993 15.7127L9.65882 19.2792C9.29141 19.39 9.04005 19.7258 9.04005 20.1066C9.04005 20.4873 9.29141 20.8231 9.65882 20.9339L21.4993 24.5L9.65882 28.0665C9.29141 28.1773 9.04005 28.5131 9.04005 28.8939C9.04005 29.2746 9.29141 29.6104 9.65882 29.7212L21.4993 33.2873L9.783 36.8165H5.24652C4.55924 36.8165 4 37.3709 4 38.0522V41.7643C4 42.4456 4.55924 43 5.24652 43ZM5.74453 7.72851H43.255V10.4533H5.74453V7.72851ZM15.7844 12.1827H33.2156L24.5002 14.8077L15.7848 12.1827H15.7844ZM12.9132 20.1057L24.4998 16.6156L36.0863 20.1057L24.4998 23.5954L12.9132 20.1057ZM12.9132 28.8934L24.4998 25.4033L36.0863 28.8934L24.4998 32.3832L12.9132 28.8934ZM24.4998 34.191L33.2152 36.8161H15.784L24.4994 34.191H24.4998ZM5.74453 38.5459H9.9089C9.9089 38.5459 9.91104 38.5459 9.91232 38.5459C9.91361 38.5459 9.91489 38.5459 9.91617 38.5459H39.0838C39.0838 38.5459 39.0864 38.5459 39.0877 38.5459C39.089 38.5459 39.0898 38.5459 39.0911 38.5459H43.2555V41.2706H5.74453V38.5459Z" fill="white"/>
</svg>
