<svg width="48" height="48" viewBox="0 0 48 48" fill="none" xmlns="http://www.w3.org/2000/svg">
<g clip-path="url(#clip0_527_721)">
<path d="M40.3202 9.60005V6.57221C40.3202 5.59397 39.5339 4.80005 38.5605 4.80005H33.4399C32.4664 4.80005 31.6802 5.59397 31.6802 6.57221V9.60005" stroke="white" stroke-width="2" stroke-miterlimit="10" stroke-linejoin="round"/>
<path d="M16.3202 9.60005V6.57221C16.3202 5.59397 15.5339 4.80005 14.5605 4.80005H9.43986C8.46642 4.80005 7.68018 5.59397 7.68018 6.57221V9.60005" stroke="white" stroke-width="2" stroke-miterlimit="10" stroke-linejoin="round"/>
<path d="M43.4956 11.52H4.50428C2.54684 11.52 0.959961 13.0963 0.959961 15.0403V39.6807C0.959961 41.6237 2.54684 43.2 4.50428 43.2H43.4947C45.4531 43.2 47.04 41.6237 47.04 39.6807V15.0403C47.04 13.0963 45.4531 11.52 43.4956 11.52Z" stroke="white" stroke-width="2.1037" stroke-miterlimit="10" stroke-linecap="round" stroke-linejoin="round"/>
<path d="M17.2802 25.9199H6.72021V28.7999H17.2802V25.9199Z" fill="white"/>
<path d="M41.2802 25.9199H30.7202V28.7999H41.2802V25.9199Z" fill="white"/>
<path d="M37.4401 22.0801H34.5601V32.6401H37.4401V22.0801Z" fill="white"/>
</g>
<defs>
<clipPath id="clip0_527_721">
<rect width="48" height="48" fill="white"/>
</clipPath>
</defs>
</svg>
