<svg width="48" height="48" viewBox="0 0 48 48" fill="none" xmlns="http://www.w3.org/2000/svg">
<path d="M41.1334 33.8045L35.0742 31.2247L34.8642 30.5926L34.7115 30.1338L29.9447 15.8016C29.9447 15.8016 29.9441 15.7988 29.9435 15.7973L27.4583 8.32572C27.4481 8.29552 27.4376 8.26743 27.4271 8.23843C27.4181 8.21306 27.4091 8.18678 27.3998 8.16232C27.395 8.14994 27.3899 8.13846 27.3851 8.12607C27.3695 8.08681 27.3539 8.04784 27.3377 8.01039C27.3293 7.99106 27.3203 7.97324 27.3116 7.95451C27.2981 7.92552 27.2849 7.89592 27.2708 7.86783C27.2684 7.863 27.266 7.85877 27.2636 7.85424C27.2429 7.81376 27.2216 7.77389 27.1997 7.73523C26.8541 7.13417 26.3159 6.66087 25.6697 6.36154C25.1654 6.12776 24.5957 6 24.0002 6C22.8115 6 21.724 6.50955 21.0598 7.35285C20.9644 7.47366 20.8777 7.60143 20.8006 7.73553C20.7763 7.77752 20.7532 7.82071 20.731 7.86511C20.731 7.86541 20.7307 7.86602 20.7304 7.86632C20.7091 7.9083 20.689 7.9518 20.6692 7.9962C20.6671 8.00073 20.665 8.00496 20.6629 8.00949C20.6284 8.08802 20.5963 8.17168 20.5657 8.25867C20.5576 8.28163 20.5492 8.30367 20.5411 8.32723L18.0565 15.7973C18.0556 15.7998 18.0553 15.8022 18.0544 15.8046L14.9397 25.1694L13.8552 28.4296L13.1355 30.5926L12.9255 31.2244L6.86626 33.8042C5.71125 34.2965 5.71125 35.8049 6.86626 36.2966L21.3499 42.4631C23.0311 43.179 24.9692 43.179 26.6504 42.4631L41.134 36.2966C42.2891 35.8049 42.2885 34.2968 41.1334 33.8045ZM14.5575 31.0722L14.7654 30.447L16.1292 26.348C18.2314 26.9436 21.0283 27.2822 23.9509 27.2858H24.0491C26.9711 27.2822 29.7677 26.9436 31.8699 26.348L34.1796 33.2928C34.2333 33.4547 34.1955 33.6208 34.0758 33.7489C33.0855 34.8088 29.306 35.8822 23.9995 35.8822C18.6931 35.8822 14.9142 34.8094 13.9233 33.7489C13.8036 33.6208 13.7655 33.4547 13.8195 33.2928L14.5572 31.0737C14.5572 31.0737 14.5572 31.0725 14.5575 31.0722ZM21.9628 8.80688C21.9871 8.73408 22.012 8.66975 22.0384 8.61146C22.0576 8.56857 22.0774 8.5287 22.0987 8.49215C22.2832 8.17078 22.5757 7.91495 22.9318 7.7449C23.2471 7.59448 23.6122 7.51051 23.9995 7.51051C24.2744 7.51051 24.5381 7.5531 24.7808 7.63133C25.2668 7.78779 25.6688 8.08953 25.9019 8.49487C25.9139 8.51571 25.9256 8.53745 25.937 8.56041C25.9721 8.63139 26.0048 8.71264 26.036 8.80688L28.2338 15.4159C26.906 15.5817 25.46 15.6687 23.9993 15.6687C22.5385 15.6687 21.0922 15.582 19.7644 15.4159L21.9628 8.80688Z" fill="white"/>
</svg>
