<svg width="48" height="48" viewBox="0 0 48 48" fill="none" xmlns="http://www.w3.org/2000/svg">
<mask id="mask0_215_12321" style="mask-type:alpha" maskUnits="userSpaceOnUse" x="0" y="0" width="48" height="48">
<rect width="48" height="48" fill="#D9D9D9"/>
</mask>
<g mask="url(#mask0_215_12321)">
<path d="M27.9923 41.6C26.3436 41.6 24.9923 41.0467 23.9384 39.9403C22.8846 38.834 22.3577 37.382 22.3577 35.5846C22.3577 34.0333 22.7269 32.6737 23.4654 31.5058C24.2038 30.3378 25.1404 29.3571 26.275 28.5635C27.4096 27.7699 28.6384 27.1648 29.9615 26.7481C31.2846 26.3314 32.5179 26.0795 33.6615 25.9923C33.5487 23.9769 33.1307 22.5077 32.4076 21.5846C31.6846 20.6615 30.6282 20.2 29.2384 20.2C27.7076 20.2 26.3211 20.7007 25.0788 21.702C23.8365 22.7032 22.3551 24.3565 20.6346 26.6616C18.8935 28.9615 17.3686 30.6621 16.0596 31.7634C14.7506 32.8647 13.291 33.4153 11.6807 33.4153C10.2987 33.4153 9.0897 32.9513 8.0538 32.0231C7.01793 31.0949 6.5 29.5667 6.5 27.4385C6.5 26.1154 6.90385 24.6154 7.71155 22.9385C8.51925 21.2615 9.6859 19.2026 11.2115 16.7616C12.0782 15.5077 12.7384 14.4289 13.1923 13.525C13.6461 12.6212 13.8731 11.8218 13.8731 11.127C13.8731 10.6705 13.7506 10.3243 13.5058 10.0884C13.2609 9.85255 12.9128 9.7346 12.4615 9.7346C11.9692 9.7346 11.4397 9.89678 10.8731 10.2211C10.3064 10.5455 9.68972 11.1051 9.02305 11.9L6.9769 9.7923C7.9051 8.74873 8.82048 7.98913 9.72305 7.5135C10.6256 7.03787 11.5448 6.80005 12.4808 6.80005C13.7654 6.80005 14.8076 7.21863 15.6076 8.0558C16.4076 8.89297 16.8077 9.96027 16.8077 11.2577C16.8077 12.45 16.4801 13.6391 15.825 14.825C15.1698 16.0109 14.2525 17.5051 13.073 19.3077C11.7653 21.2589 10.832 22.8224 10.2731 23.9981C9.71405 25.1737 9.43455 26.391 9.43455 27.65C9.43455 28.7295 9.69032 29.468 10.2018 29.8654C10.7134 30.2628 11.3012 30.4615 11.9653 30.4615C12.9192 30.4615 13.8544 30.0237 14.7711 29.1481C15.6878 28.2724 16.8782 26.8872 18.3423 24.9923C20.3269 22.4565 22.1717 20.5347 23.8769 19.227C25.582 17.9193 27.4743 17.2654 29.5538 17.2654C31.6512 17.2654 33.3173 18.0385 34.5519 19.5847C35.7865 21.1308 36.4743 23.2423 36.6153 25.9193H41.4999V28.8538H36.6153C36.3204 33.7512 35.2506 37.1 33.4057 38.9C31.5608 40.7 29.7564 41.6 27.9923 41.6ZM28.0846 38.6654C29.323 38.6654 30.5435 37.909 31.7461 36.3961C32.9487 34.8833 33.614 32.3833 33.7423 28.8961C31.8653 29.0115 29.9878 29.6942 28.1096 30.9442C26.2314 32.1942 25.2923 33.8384 25.2923 35.8769C25.2923 36.7461 25.5397 37.4282 26.0346 37.9231C26.5294 38.418 27.2128 38.6654 28.0846 38.6654Z" fill="white"/>
</g>
</svg>
