<svg width="48" height="48" viewBox="0 0 48 48" fill="none" xmlns="http://www.w3.org/2000/svg">
<mask id="mask0_215_12378" style="mask-type:alpha" maskUnits="userSpaceOnUse" x="0" y="0" width="48" height="48">
<rect width="48" height="48" fill="#D9D9D9"/>
</mask>
<g mask="url(#mask0_215_12378)">
<path d="M11.8846 43C11.1003 43 10.4235 42.7153 9.8541 42.1459C9.2847 41.5765 9 40.8996 9 40.1153V7.8847C9 7.1004 9.2847 6.42355 9.8541 5.85415C10.4235 5.28475 11.1003 5.00005 11.8846 5.00005H29.2615L38.9999 14.7384V40.1153C38.9999 40.8996 38.7152 41.5765 38.1458 42.1459C37.5764 42.7153 36.8996 43 36.1153 43H11.8846ZM28.1269 15.7615V7.26925H11.8846C11.7308 7.26925 11.5897 7.33335 11.4615 7.46155C11.3333 7.58978 11.2692 7.73083 11.2692 7.8847V40.1153C11.2692 40.2692 11.3333 40.4102 11.4615 40.5384C11.5897 40.6666 11.7308 40.7308 11.8846 40.7308H36.1153C36.2691 40.7308 36.4102 40.6666 36.5384 40.5384C36.6666 40.4102 36.7307 40.2692 36.7307 40.1153V15.7615H28.1269Z" fill="white"/>
</g>
</svg>
