<svg width="48" height="48" viewBox="0 0 48 48" fill="none" xmlns="http://www.w3.org/2000/svg">
<path d="M22.4718 11.6538C19.5249 11.6538 16.5781 13.4791 16.5781 17.1303V40.7591C16.5781 41.8623 17.4725 42.7573 18.5763 42.7573H26.3678C27.471 42.7573 28.366 41.8629 28.366 40.7591V17.1303C28.366 13.4791 25.4192 11.6538 22.4723 11.6538H22.4718ZM26.5955 40.7591C26.5955 40.8848 26.4935 40.9874 26.3672 40.9874H18.5757C18.45 40.9874 18.3474 40.8854 18.3474 40.7591V17.1303C18.3474 15.9675 18.7509 15.0443 19.5462 14.3871C20.2877 13.7747 21.3538 13.4231 22.4712 13.4231C23.5885 13.4231 24.6546 13.7741 25.3961 14.3871C26.192 15.0443 26.5949 15.967 26.5949 17.1303V40.7591H26.5955Z" fill="white"/>
<path d="M26.5648 7.73151C26.3081 7.77045 26.1182 7.9905 26.1176 8.25008L26.1164 8.95094H24.8545V8.61349C24.8545 7.5616 24.0014 6.70853 22.9495 6.70853H21.9968C20.9449 6.70853 20.0918 7.5616 20.0918 8.61349V11.6122C21.5962 11.0541 23.3495 11.0541 24.8545 11.6122V10.3273H26.114L26.1129 10.9875C26.1129 11.247 26.3016 11.4683 26.5583 11.5078L37.9892 13.2788L38.0016 6L26.5648 7.73151ZM22.4894 10.4494C21.785 10.4494 21.2145 9.87835 21.2145 9.17453C21.2145 8.47072 21.7856 7.89965 22.4894 7.89965C23.1932 7.89965 23.7643 8.47072 23.7643 9.17453C23.7643 9.87835 23.1932 10.4494 22.4894 10.4494Z" fill="white"/>
<path d="M19.6935 10.1054V8.67657C19.6935 8.42407 19.7431 8.18278 19.8328 7.96214H11.4743C11.2124 7.96214 11 8.17452 11 8.43646C11 8.62583 11.1109 8.78925 11.2708 8.86535C11.4625 8.95621 13.0979 10.1054 13.5067 10.1054H15.1415C14.4241 11.3738 13.9622 12.9537 13.8389 14.8074C13.8094 15.2498 14.0978 15.7472 14.4701 15.8917C14.4742 15.8935 14.479 15.8952 14.4831 15.897C14.8223 16.0286 15.1055 15.8156 15.1326 15.4126C15.2836 13.1425 16.0175 11.3432 17.1314 10.1054H19.6941H19.6935Z" fill="white"/>
</svg>
