<svg width="52" height="43" viewBox="0 0 52 43" fill="none" xmlns="http://www.w3.org/2000/svg">
<path d="M45.1857 10.2C42.1053 15.0193 37.2979 22.5407 37.2979 22.5407H20.7711C19.9979 22.5407 19.3711 23.1675 19.3711 23.9407V25.6C19.3711 27.9195 21.2515 29.8 23.5711 29.8H38.1516C41.2444 29.8 43.7516 27.2927 43.7516 24.1999V23.9925M45.1857 10.2C44.6257 11.3339 43.7516 13.1037 43.7516 13.1037V16.0074M45.1857 10.2C43.7019 10.2 19.3711 10.2 19.3711 10.2M43.7516 16.0074H47.3711C48.1443 16.0074 48.7711 16.6342 48.7711 17.4074V22.5925C48.7711 23.3657 48.1443 23.9925 47.3711 23.9925H43.7516M43.7516 16.0074V23.9925" stroke="white" stroke-width="2.1" stroke-linecap="round"/>
<path d="M4.86917 22.3784V10.0001C4.86917 8.93917 5.29061 7.92174 6.04076 7.17159C6.79092 6.42143 7.80835 6 8.86923 6C9.93011 6 10.9475 6.42143 11.6977 7.17159C12.4478 7.92174 12.8693 8.93917 12.8693 10.0001V22.3784L12.8703 22.3771C13.9369 23.2102 14.7169 24.3554 15.1014 25.653C15.486 26.9507 15.4559 28.336 15.0153 29.6156C14.5748 30.8953 13.7458 32.0056 12.6441 32.7916C11.5423 33.5776 10.2226 34 8.86923 34C7.51583 34 6.19619 33.5776 5.0944 32.7916C3.99261 32.0056 3.16363 30.8953 2.72311 29.6156C2.28259 28.336 2.2525 26.9507 2.63704 25.653C3.02158 24.3554 3.80157 23.2102 4.86819 22.3771L4.86917 22.3784Z" stroke="white" stroke-width="1.50002" stroke-linecap="round" stroke-linejoin="round"/>
<path d="M8.86917 30.0003C10.2499 30.0003 11.3692 28.881 11.3692 27.5003C11.3692 26.1195 10.2499 25.0002 8.86917 25.0002C7.48844 25.0002 6.36914 26.1195 6.36914 27.5003C6.36914 28.881 7.48844 30.0003 8.86917 30.0003Z" stroke="white" stroke-width="1.50002" stroke-linecap="round" stroke-linejoin="round"/>
<path d="M8.86914 25.0004V15.0002" stroke="white" stroke-width="1.50002" stroke-linecap="round" stroke-linejoin="round"/>
</svg>
