<svg width="42" height="42" viewBox="0 0 42 42" fill="none" xmlns="http://www.w3.org/2000/svg">
<path d="M39.375 8.74999H36.75V6.99999C36.75 6.98686 36.743 6.97636 36.743 6.96324L37.5008 5.70061C37.8543 5.14849 37.4115 4.35224 36.75 4.37499H13.125C10.7126 4.37499 8.75 6.33761 8.75 8.74999V14C8.75 14.483 9.142 14.875 9.625 14.875H10.5C10.1946 17.605 12.026 20.1171 14.875 20.125H19.5834L16.0834 27.125H8.75V22.75C8.75 22.267 8.358 21.875 7.875 21.875H2.625C2.142 21.875 1.75 22.267 1.75 22.75V36.75C1.75 37.233 2.142 37.625 2.625 37.625H7.875C8.358 37.625 8.75 37.233 8.75 36.75V32.375H18.375C18.7066 32.375 19.0094 32.1877 19.1581 31.8911L25.0408 20.125H32.375C34.7874 20.125 36.75 18.1624 36.75 15.75H39.375C39.8589 15.75 40.25 15.358 40.25 14.875V9.62499C40.25 9.14199 39.8589 8.74999 39.375 8.74999ZM10.5 8.74999C10.5 7.30274 11.6777 6.12499 13.125 6.12499H35.2039L31.0039 13.125H10.5V8.74999ZM7 35.875H3.5V23.625H7V35.875ZM17.8342 30.625H8.75V28.875H16.625C16.9566 28.875 17.2594 28.6877 17.4081 28.3911L21.5408 20.125H23.0842L17.8342 30.625ZM35 15.75C35 17.1972 33.8223 18.375 32.375 18.375C29.9696 18.3759 23.2995 18.3732 20.9939 18.375H14.875C13.4277 18.375 12.25 17.1972 12.25 15.75V14.875H31.5C31.808 14.875 32.0924 14.714 32.2499 14.4506L35 9.86736C35.0122 10.4921 34.9912 15.2696 35 15.75ZM38.5 14H36.75V10.5H38.5V14Z" fill="white"/>
</svg>
