<svg width="56" height="49" viewBox="0 0 56 49" fill="none" xmlns="http://www.w3.org/2000/svg">
<path fill-rule="evenodd" clip-rule="evenodd" d="M23 35.8637H3V37C3 38.2552 4.01754 39.2727 5.27273 39.2727H50.7273C51.9825 39.2727 53 38.2552 53 37V35.8637H33C33 36.4913 32.4912 37 31.8636 37H24.1364C23.5088 37 23 36.4913 23 35.8637Z" fill="white"/>
<path fill-rule="evenodd" clip-rule="evenodd" d="M10.7273 11.7727V33.8182H45.2727V11.7727H10.7273ZM9.81818 9.72729C9.19059 9.72729 8.68182 10.2361 8.68182 10.8637V35.8637H47.3182V10.8637C47.3182 10.2361 46.8094 9.72729 46.1818 9.72729H9.81818Z" fill="white"/>
<path d="M21.9181 25.7783H20.0449L26.7234 18.8181H28.5967L21.9181 25.7783Z" fill="white"/>
<path d="M23.6287 25.7783H25.5019L32.1805 18.8181H30.3073L23.6287 25.7783Z" fill="white"/>
<path d="M29.2483 25.7783H27.3751L34.0808 18.8181H35.954L29.2483 25.7783Z" fill="white"/>
</svg>
