<svg width="38" height="38" viewBox="0 0 38 38" fill="none" xmlns="http://www.w3.org/2000/svg">
<g clip-path="url(#clip0_2154_4181)">
<path d="M33.9258 5.41456C34.2982 5.59186 34.7098 5.70022 35.1493 5.70022C36.7238 5.70022 38 4.42404 38 2.85023C38 1.27643 36.7238 0.000244141 35.1493 0.000244141C33.5749 0.000244141 32.2987 1.27643 32.2987 2.85023C32.2987 3.28975 32.407 3.70144 32.5843 4.0732C32.5824 4.07573 32.5793 4.07573 32.5768 4.07825L25.873 10.7814C20.0064 5.16377 13.4065 1.90024 8.59129 1.90024C6.57225 1.90024 4.86798 2.46964 3.66586 3.67168C3.51134 3.82621 3.23265 4.1524 3.23265 4.1524C3.22634 4.1587 3.21869 4.16256 3.21238 4.1682C-1.94862 9.32795 -0.71867 19.1053 5.6659 27.1651L3.83686 35.7024C3.71655 36.2635 3.85653 36.8487 4.21752 37.2946C4.57786 37.7411 5.12069 38.0001 5.69447 38.0001H11.3957C11.9695 38.0001 12.5129 37.7411 12.8733 37.2946C13.2343 36.8481 13.3736 36.2629 13.2539 35.7024L12.8435 33.7859C16.9639 36.5301 21.3757 38.0001 25.3137 38.0001C28.6571 38.0001 31.6559 36.957 33.8314 34.7821C33.8916 34.7219 33.941 34.6536 33.9974 34.5902C34.1044 34.4984 34.2286 34.4287 34.3286 34.3287C38.3984 30.2595 35.2026 20.4448 27.2246 12.1177L33.9208 5.4222C33.9232 5.41968 33.9238 5.41648 33.9258 5.41456ZM35.1493 1.90024C35.6731 1.90024 36.0993 2.32647 36.0993 2.85023C36.0993 3.37399 35.6731 3.80023 35.1493 3.80023C34.6256 3.80023 34.1993 3.37399 34.1993 2.85023C34.1993 2.32647 34.6256 1.90024 35.1493 1.90024ZM5.6944 36.1001L7.2207 28.9777C7.50763 29.2886 7.78498 29.6034 8.08839 29.9067C8.87755 30.6959 9.70019 31.4122 10.5356 32.0905L11.3956 36.1001H5.6944ZM25.3137 36.1001C20.09 36.1001 14.1532 33.2824 9.43234 28.5628C5.61016 24.7419 3.03693 20.1642 2.18639 15.6746C1.84187 13.8556 1.81967 12.1615 2.07113 10.6244C2.84255 15.3762 6.1694 21.3169 11.4248 26.571C16.677 31.8219 22.6138 35.1469 27.3651 35.9209C26.7108 36.0323 26.0306 36.1001 25.3137 36.1001ZM33.3918 25.0954C34.5951 28.6471 34.4469 31.5231 32.984 32.9848C32.1778 33.791 30.9725 34.2001 29.4018 34.2001C24.7488 34.2001 18.2197 30.6781 12.768 25.2271C8.87555 21.3353 5.97554 16.9589 4.60183 12.905C3.39852 9.35325 3.54674 6.47729 5.00966 5.01556C5.81589 4.20932 7.02113 3.80023 8.59181 3.80023C13.0511 3.80023 19.2242 7.05619 24.5302 12.1241L14.5243 22.1282C14.1531 22.4993 14.1531 23.1004 14.5243 23.4715C14.7099 23.657 14.9531 23.7495 15.1963 23.7495C15.4395 23.7495 15.6827 23.657 15.8683 23.4715L25.8812 13.4604C29.4373 17.1774 32.098 21.2764 33.3918 25.0954Z" fill="white"/>
</g>
<defs>
<clipPath id="clip0_2154_4181">
<rect width="38" height="38" fill="white"/>
</clipPath>
</defs>
</svg>
