<svg width="46" height="46" viewBox="0 0 46 46" fill="none" xmlns="http://www.w3.org/2000/svg">
<path d="M38.3757 17.375H34.959C34.4875 17.375 34.1048 17.7577 34.1048 18.2292C34.1048 18.7007 34.4875 19.0834 34.959 19.0834H35.8132V25.0625C35.8132 26.3267 35.082 27.42 34.0485 28.1853C34.0792 28.0025 34.1049 27.8163 34.1049 27.625C34.1049 25.7407 32.5725 24.2083 30.6882 24.2083H27.2715V20.5593C31.819 19.9546 32.3965 18.1284 32.3965 14.8125C32.3965 11.4881 30.671 2 23.0007 2C15.3303 2 13.6049 11.4881 13.6049 14.8125C13.6049 18.1301 14.184 19.9546 18.7299 20.5593V24.2083H15.3132C13.4289 24.2083 11.8965 25.7407 11.8965 27.625C11.8965 27.8163 11.9221 28.0026 11.9529 28.1853C10.9194 27.42 10.1882 26.3267 10.1882 25.0625V19.0833H11.0424C11.5139 19.0833 11.8966 18.7006 11.8966 18.2291C11.8966 17.7576 11.5139 17.375 11.0424 17.375H7.62568C7.15418 17.375 6.77148 17.7577 6.77148 18.2292C6.77148 18.7007 7.15418 19.0833 7.62568 19.0833H8.47987V25.0625C8.47987 28.5851 12.0811 31.0417 15.3132 31.0417H20.4382V37.875H14.459C13.0462 37.875 11.8965 39.0247 11.8965 40.4375C11.8965 41.8503 13.0462 43 14.459 43C15.8718 43 17.0215 41.8503 17.0215 40.4375C17.0215 40.1368 16.96 39.8516 16.8643 39.5833H20.5953C20.4997 39.8516 20.4382 40.1368 20.4382 40.4375C20.4382 41.8503 21.5879 43 23.0007 43C24.4135 43 25.5632 41.8503 25.5632 40.4375C25.5632 40.1368 25.5017 39.8516 25.406 39.5833H29.137C29.0413 39.8515 28.9798 40.1368 28.9798 40.4375C28.9798 41.8503 30.1295 43 31.5423 43C32.9551 43 34.1048 41.8503 34.1048 40.4375C34.1048 39.0247 32.9551 37.875 31.5423 37.875H25.5632V31.0417H30.6882C33.9204 31.0417 37.5215 28.5851 37.5215 25.0625V19.0833H38.3757C38.8472 19.0833 39.2299 18.7006 39.2299 18.2291C39.2299 17.7576 38.8472 17.375 38.3757 17.375ZM14.459 41.2917C13.9875 41.2917 13.6048 40.909 13.6048 40.4375C13.6048 39.966 13.9875 39.5833 14.459 39.5833C14.9305 39.5833 15.3132 39.966 15.3132 40.4375C15.3132 40.909 14.9305 41.2917 14.459 41.2917ZM31.5424 39.5833C32.0139 39.5833 32.3966 39.966 32.3966 40.4375C32.3966 40.909 32.0139 41.2917 31.5424 41.2917C31.0709 41.2917 30.6882 40.909 30.6882 40.4375C30.6882 39.966 31.0709 39.5833 31.5424 39.5833ZM15.3132 14.8125C15.3132 12.4669 16.6184 3.70831 23.0007 3.70831C29.383 3.70831 30.6882 12.4669 30.6882 14.8125C30.6882 17.8328 30.6882 19.0833 23.0007 19.0833C15.3132 19.0833 15.3132 17.8328 15.3132 14.8125ZM25.5632 20.7199V24.2084H20.4382V20.7199C21.2086 20.7661 22.0491 20.7917 23.0007 20.7917C23.9522 20.7917 24.7927 20.7661 25.5632 20.7199ZM23.0007 41.2917C22.5292 41.2917 22.1465 40.909 22.1465 40.4375C22.1465 39.966 22.5292 39.5833 23.0007 39.5833C23.4722 39.5833 23.8549 39.966 23.8549 40.4375C23.8549 40.909 23.4722 41.2917 23.0007 41.2917ZM23.8549 37.875H22.1466V31.0417H23.8549V37.875ZM30.6882 29.3333H15.3132C14.3719 29.3333 13.6049 28.5662 13.6049 27.625C13.6049 26.6838 14.3719 25.9167 15.3132 25.9167H30.6882C31.6295 25.9167 32.3965 26.6838 32.3965 27.625C32.3965 28.5662 31.6295 29.3333 30.6882 29.3333Z" fill="white"/>
</svg>
