<svg width="512" height="512" viewBox="0 0 512 512" fill="none" xmlns="http://www.w3.org/2000/svg">
<circle cx="256" cy="256" r="256" fill="#1D2129"/>
<path fill-rule="evenodd" clip-rule="evenodd" d="M155.818 336.221C170.977 336.221 183.265 323.933 183.265 308.775C183.265 293.616 170.977 281.328 155.818 281.328C140.659 281.328 128.371 293.616 128.371 308.775C128.371 323.933 140.659 336.221 155.818 336.221ZM155.819 324.214C164.346 324.214 171.258 317.302 171.258 308.775C171.258 300.248 164.346 293.336 155.819 293.336C147.293 293.336 140.381 300.248 140.381 308.775C140.381 317.302 147.293 324.214 155.819 324.214Z" fill="white"/>
<path fill-rule="evenodd" clip-rule="evenodd" d="M341.773 336.222C356.932 336.222 369.22 323.934 369.22 308.776C369.22 293.617 356.932 281.329 341.773 281.329C326.615 281.329 314.326 293.617 314.326 308.776C314.326 323.934 326.615 336.222 341.773 336.222ZM341.774 324.214C350.301 324.214 357.213 317.302 357.213 308.775C357.213 300.248 350.301 293.336 341.774 293.336C333.248 293.336 326.336 300.248 326.336 308.775C326.336 317.302 333.248 324.214 341.774 324.214Z" fill="white"/>
<path fill-rule="evenodd" clip-rule="evenodd" d="M137.635 189.036C137.909 189.174 139.007 189.322 139.521 189.379H140.551V192.002C137.853 192.148 135.213 192.355 132.831 192.639C121.338 194.011 112.589 195.384 110.702 196.241C109.193 196.927 106.871 201.102 105.899 203.103V204.475C104.012 209.336 99.8607 220.086 98.3511 224.203C96.8415 228.32 94.9774 233.924 94.2341 236.211L89.9455 237.24C89.3737 238.498 88.1614 241.563 87.887 243.759C87.6125 245.954 86.9721 258.054 86.6862 263.829L86.8577 277.381L90.117 283.728C89.145 284.071 87.1322 284.792 86.8577 284.929C86.5832 285.066 86.7434 292.763 86.8577 296.594H86V311.518L99.0373 313.577L120.995 315.121C120.938 308.03 122.676 291.997 130.087 284.586C138.605 276.067 144.658 276.108 153.847 276.17L153.85 276.17C154.652 276.175 155.479 276.18 156.333 276.18H171.085V268.118L165.768 262.8V230.207L161.994 198.471H161.479L160.45 191.781C158.292 191.712 154.899 191.66 151.015 191.693V189.379C151.644 189.379 153.005 189.311 153.416 189.036C153.828 188.762 154.16 188.35 154.274 188.179V186.463C154.389 186.177 154.617 185.434 154.617 184.748C154.617 183.89 152.902 182.861 151.186 182.861H140.551C139.007 182.861 136.605 183.547 136.434 184.748C136.296 185.708 136.72 186.292 136.948 186.463V188.179C137.063 188.407 137.36 188.899 137.635 189.036ZM148.27 191.73V189.379H143.467V191.867C145.087 191.804 146.702 191.759 148.27 191.73ZM119.794 211.509V233.809H107.1C106.642 233.866 105.659 233.809 105.384 233.123C105.11 232.437 105.27 231.579 105.384 231.236L112.589 211.509H119.794ZM145.697 233.809H121.338V211.509H145.697V233.809Z" fill="white"/>
<path d="M176.061 190.067V269.32H192.7V190.067H176.061Z" fill="white"/>
<ellipse cx="155.758" cy="309.068" rx="8.79307" ry="8.79307" fill="white"/>
<circle cx="341.584" cy="308.482" r="8.20686" fill="white"/>
<path fill-rule="evenodd" clip-rule="evenodd" d="M302.876 286.897L302.757 287.137L311.714 291.585L302.757 287.137C302.083 288.496 301.621 289.421 301.264 290.071L310.032 294.879L301.264 290.071C299.872 292.611 299.231 295.431 298.878 297.554C298.495 299.856 298.306 302.288 298.221 304.546C298.207 304.91 298.196 305.273 298.187 305.636H208.529V272.407V193.154V191.661H212.596H220.015L221.73 186H252.813L252.985 191.661H262.686H316.329V267.789C316.132 267.934 315.942 268.08 315.759 268.225C313.33 270.147 311.369 272.523 309.846 274.662C306.892 278.81 304.453 283.721 302.876 286.897ZM310.032 294.879C310.509 294.01 311.073 292.876 311.714 291.585C314.995 284.979 320.302 274.294 326.329 274.294V264.294V191.661V181.661H316.329H262.686C262.629 179.774 261.314 176 256.511 176H219.458C215.341 176 213.168 179.774 212.596 181.661H208.529H198.529V191.661V193.154V272.407V305.636V315.636H208.529H298.454H308.489C308.273 313.215 308.086 309.42 308.191 305.636C308.309 301.377 308.797 297.132 310.032 294.879Z" fill="white"/>
<path d="M421 186.661V269.294H416.882V274.294V310.636H379.917C379.527 305.713 378.774 298.973 377.512 293.713C376.34 288.832 373.856 283.106 370.635 278.503C369.018 276.194 367.092 273.989 364.884 272.318C362.689 270.657 359.903 269.294 356.696 269.294H337.852V186.661H421Z" stroke="white" stroke-width="10"/>
</svg>
