<svg width="512" height="512" viewBox="0 0 512 512" fill="none" xmlns="http://www.w3.org/2000/svg">
<circle cx="256" cy="256" r="256" fill="#1D2129"/>
<path fill-rule="evenodd" clip-rule="evenodd" d="M155.818 336.221C170.977 336.221 183.265 323.933 183.265 308.774C183.265 293.616 170.977 281.327 155.818 281.327C140.659 281.327 128.371 293.616 128.371 308.774C128.371 323.933 140.659 336.221 155.818 336.221ZM155.819 324.213C164.346 324.213 171.258 317.301 171.258 308.774C171.258 300.248 164.346 293.335 155.819 293.335C147.293 293.335 140.381 300.248 140.381 308.774C140.381 317.301 147.293 324.213 155.819 324.213Z" fill="white"/>
<path fill-rule="evenodd" clip-rule="evenodd" d="M341.773 336.222C356.932 336.222 369.22 323.934 369.22 308.775C369.22 293.617 356.932 281.328 341.773 281.328C326.615 281.328 314.326 293.617 314.326 308.775C314.326 323.934 326.615 336.222 341.773 336.222ZM341.774 324.213C350.301 324.213 357.213 317.301 357.213 308.774C357.213 300.248 350.301 293.335 341.774 293.335C333.248 293.335 326.336 300.248 326.336 308.774C326.336 317.301 333.248 324.213 341.774 324.213Z" fill="white"/>
<path d="M148.363 196.73L149.695 196.705L151.057 196.693C152.897 196.678 154.621 196.682 156.147 196.697L156.537 199.232L157.189 203.472H157.553L160.768 230.504V262.801V264.872L162.232 266.336L166.085 270.189V271.181H156.333C155.503 271.181 154.698 271.176 153.898 271.17L153.895 271.17L153.884 271.17L153.881 271.17C153.767 271.169 153.653 271.169 153.54 271.168C149.204 271.138 144.776 271.107 140.363 272.347C135.629 273.677 131.267 276.335 126.551 281.051C121.844 285.758 119.29 292.737 117.87 298.841C116.977 302.684 116.461 306.499 116.204 309.772L99.6036 308.605L91 307.246V301.595H92.0092L91.8555 296.445C91.7989 294.55 91.7313 291.707 91.7117 289.336C91.7093 289.035 91.7076 288.746 91.7068 288.47C91.7322 288.461 91.757 288.452 91.7811 288.444L97.1804 286.538L94.5649 281.445L91.8424 276.143L91.6877 263.922C91.9844 257.946 92.6063 246.316 92.8484 244.379C92.9224 243.787 93.1654 242.851 93.5367 241.763C93.5671 241.674 93.5978 241.586 93.6285 241.499L95.4009 241.073L98.1238 240.42L98.9892 237.757C99.2923 236.824 99.782 235.34 100.356 233.635C100.434 234.062 100.556 234.516 100.742 234.98C101.703 237.383 103.77 238.27 104.846 238.566C105.762 238.818 106.632 238.855 107.315 238.81H116.338H119.794H121.338H124.794H145.697H150.697V233.81V211.509V206.509H145.697H124.794H121.338H119.794H116.338H112.589H110.473C110.503 206.433 110.532 206.359 110.56 206.285L110.899 205.412V204.476V204.301C111.297 203.55 111.792 202.678 112.3 201.891C112.632 201.376 112.923 200.972 113.152 200.69C113.411 200.621 113.81 200.523 114.386 200.399C115.535 200.154 117.072 199.874 118.96 199.57C122.727 198.963 127.714 198.286 133.424 197.604C135.666 197.336 138.193 197.138 140.822 196.995L142.195 196.921L143.662 196.864C145.244 196.802 146.825 196.759 148.363 196.73ZM91.7524 285.78C91.754 285.762 91.7541 285.765 91.7519 285.785C91.7521 285.783 91.7522 285.782 91.7524 285.78ZM88.8927 289.495C88.8795 289.501 88.8718 289.504 88.871 289.505C88.8702 289.505 88.8769 289.502 88.8927 289.495Z" stroke="white" stroke-width="10"/>
<path d="M176.061 190.067V269.32H192.7V190.067H176.061Z" fill="white"/>
<ellipse cx="155.758" cy="309.068" rx="8.79307" ry="8.79307" fill="white"/>
<circle cx="341.584" cy="308.482" r="8.20686" fill="white"/>
<path fill-rule="evenodd" clip-rule="evenodd" d="M302.876 286.897L302.757 287.137L311.714 291.585L302.757 287.137C302.083 288.496 301.621 289.421 301.264 290.071L310.032 294.879L301.264 290.071C299.872 292.611 299.231 295.431 298.878 297.554C298.495 299.856 298.306 302.288 298.221 304.546C298.207 304.91 298.196 305.273 298.187 305.636H208.529V272.407V193.154V191.661H212.596H220.015L221.73 186H252.813L252.985 191.661H262.686H316.329V267.789C316.132 267.934 315.942 268.08 315.759 268.225C313.33 270.147 311.369 272.523 309.846 274.662C306.892 278.81 304.453 283.721 302.876 286.897ZM310.032 294.879C310.509 294.01 311.073 292.876 311.714 291.585C314.995 284.979 320.302 274.294 326.329 274.294V264.294V191.661V181.661H316.329H262.686C262.629 179.774 261.314 176 256.511 176H219.458C215.341 176 213.168 179.774 212.596 181.661H208.529H198.529V191.661V193.154V272.407V305.636V315.636H208.529H298.454H308.489C308.273 313.215 308.086 309.42 308.191 305.636C308.309 301.377 308.797 297.132 310.032 294.879Z" fill="white"/>
<path d="M372.65 294.88C370.591 286.303 363.729 274.294 356.696 274.294H332.852V181.661H426V274.294H421.882V315.636H375.223C375.051 311.577 374.296 301.741 372.65 294.88Z" fill="white"/>
</svg>
