<svg width="48" height="48" viewBox="0 0 48 48" fill="none" xmlns="http://www.w3.org/2000/svg">
<path d="M7 41L6.75138 40.0314L7 42V41ZM41 41V42H42V41H41ZM41 7H42L40.0318 6.74979L41 7ZM7 42H41V40H7V42ZM42 41V7H40V41H42ZM41 7C40.0318 6.74979 40.0318 6.74973 40.0318 6.74972C40.0318 6.74981 40.0318 6.74986 40.0317 6.75003C40.0317 6.75036 40.0315 6.75093 40.0313 6.75175C40.0309 6.7534 40.0302 6.75603 40.0293 6.75963C40.0274 6.76683 40.0245 6.77794 40.0205 6.79283C40.0127 6.82262 40.0008 6.86759 39.9849 6.92693C39.9531 7.04562 39.9053 7.2218 39.842 7.4491C39.7154 7.90376 39.5269 8.56262 39.2804 9.37477C38.7871 10.9999 38.0631 13.2345 37.1404 15.6726C35.2771 20.5954 32.6647 26.1776 29.597 29.3355L31.0316 30.729C34.4131 27.248 37.1435 21.3141 39.0109 16.3805C39.9534 13.8904 40.6916 11.6117 41.1942 9.95562C41.4456 9.12716 41.6384 8.45343 41.7687 7.98563C41.8339 7.75171 41.8834 7.56921 41.9168 7.44452C41.9335 7.38218 41.9462 7.33428 41.9548 7.30163C41.959 7.2853 41.9623 7.27279 41.9646 7.26419C41.9657 7.25988 41.9665 7.25656 41.9672 7.25423C41.9675 7.25306 41.9677 7.25214 41.9679 7.25147C41.968 7.25113 41.968 7.25082 41.9681 7.25065C41.9681 7.2504 41.9682 7.25021 41 7ZM29.597 29.3355C26.5411 32.4813 20.9033 35.1598 15.8829 37.0712C13.3988 38.0169 11.112 38.7581 9.44598 39.2628C8.61345 39.5151 7.93712 39.7079 7.47012 39.8374C7.23665 39.9021 7.05558 39.951 6.93355 39.9835C6.87255 39.9997 6.8263 40.0119 6.79566 40.0199C6.78034 40.0239 6.76892 40.0269 6.76151 40.0288C6.7578 40.0297 6.7551 40.0304 6.7534 40.0309C6.75256 40.0311 6.75197 40.0312 6.75163 40.0313C6.75146 40.0314 6.7514 40.0314 6.75131 40.0314C6.75132 40.0314 6.75138 40.0314 7 41C7.24862 41.9686 7.24881 41.9686 7.24907 41.9685C7.24924 41.9684 7.24957 41.9684 7.24991 41.9683C7.2506 41.9681 7.25155 41.9678 7.25275 41.9675C7.25515 41.9669 7.25856 41.966 7.26299 41.9649C7.27183 41.9626 7.2847 41.9593 7.30149 41.9549C7.33506 41.9461 7.38431 41.9331 7.4484 41.9161C7.57657 41.8819 7.76413 41.8313 8.00441 41.7647C8.48491 41.6315 9.17655 41.4343 10.0259 41.1769C11.7236 40.6626 14.0562 39.9066 16.5945 38.9403C21.6189 37.0275 27.6383 34.2222 31.0316 30.729L29.597 29.3355Z" fill="white"/>
</svg>
