<svg width="35" height="59" viewBox="0 0 35 59" fill="none" xmlns="http://www.w3.org/2000/svg">
<path d="M7.18509 57.1401H0.585083V49.29H2.2851V55.6401H5.63509V49.29H7.35509V55.6401H8.59509V58.7701H7.18509V57.1401Z" fill="white"/>
<path d="M9.485 53.22C9.51636 52.4562 9.77146 51.7185 10.2186 51.0986C10.6658 50.4786 11.2852 50.0037 12.0001 49.7329C12.7149 49.4621 13.4935 49.4074 14.2392 49.5754C14.9849 49.7435 15.6648 50.127 16.1943 50.6783C16.7238 51.2295 17.0797 51.9242 17.2177 52.6761C17.3556 53.4279 17.2696 54.2037 16.9703 54.9071C16.671 55.6105 16.1716 56.2103 15.5342 56.6322C14.8967 57.0541 14.1494 57.2794 13.385 57.28C12.857 57.2877 12.3332 57.1866 11.8459 56.9832C11.3587 56.7798 10.9185 56.4783 10.5527 56.0975C10.1869 55.7167 9.90341 55.2648 9.71973 54.7698C9.53604 54.2747 9.45615 53.7472 9.485 53.22ZM15.485 53.22C15.4183 52.8236 15.2398 52.4545 14.9704 52.1561C14.7011 51.8577 14.3521 51.6425 13.9646 51.5358C13.5771 51.429 13.1671 51.4352 12.783 51.5535C12.3988 51.6719 12.0565 51.8975 11.7962 52.2038C11.536 52.5102 11.3686 52.8845 11.3139 53.2827C11.2592 53.6809 11.3193 54.0865 11.4873 54.4516C11.6552 54.8168 11.924 55.1265 12.262 55.3441C12.5999 55.5617 12.993 55.6782 13.395 55.68C13.6959 55.6628 13.9902 55.5845 14.2599 55.4499C14.5296 55.3153 14.769 55.1271 14.9636 54.897C15.1583 54.6668 15.304 54.3994 15.3919 54.1111C15.4798 53.8228 15.5081 53.5196 15.475 53.22H15.485Z" fill="white"/>
<path d="M17.9351 55.6398H18.4751C18.9351 55.3098 19.1451 54.0898 19.3751 51.6398C19.5351 49.6398 19.5651 49.3398 19.5651 49.3398H24.6551V55.6898H25.9151V58.8198H24.4451V57.1898H19.3851V58.8198H17.9351V55.6398ZM20.3651 55.6398H22.9151V50.8198H21.0151C20.9385 51.3399 20.8951 51.8643 20.8851 52.3898C20.8681 53.4859 20.6929 54.5738 20.3651 55.6198V55.6398Z" fill="white"/>
<path d="M26.895 55.6398H27.425C27.885 55.3098 28.105 54.0898 28.325 51.6398C28.485 49.6398 28.515 49.3398 28.515 49.3398H33.605V55.6898H34.865V58.8198H33.395V57.1898H28.335V58.8198H26.895V55.6398ZM29.315 55.6398H31.875V50.8198H29.965C29.965 50.9398 29.965 50.8198 29.845 52.3898C29.8256 53.4865 29.6471 54.5745 29.315 55.6198V55.6398Z" fill="white"/>
<path d="M15.435 40.9998L17.435 42.9998L29.765 30.6598C32.1998 28.221 33.857 25.1152 34.5272 21.7349C35.1974 18.3546 34.8506 14.8515 33.5305 11.6683C32.2104 8.48503 29.9764 5.76452 27.1106 3.85056C24.2449 1.93659 20.8761 0.915039 17.43 0.915039C13.9839 0.915039 10.6151 1.93659 7.74941 3.85056C4.88368 5.76452 2.64961 8.48503 1.32953 11.6683C0.00945389 14.8515 -0.337391 18.3546 0.332827 21.7349C1.00304 25.1152 2.66026 28.221 5.09502 30.6598C5.29104 30.8652 5.54453 31.0068 5.82231 31.0658C6.1001 31.1248 6.38924 31.0985 6.65186 30.9904C6.91448 30.8824 7.13833 30.6975 7.29413 30.4601C7.44993 30.2227 7.5304 29.9437 7.52501 29.6598C7.51804 29.283 7.36367 28.924 7.09502 28.6598C5.05012 26.6172 3.65702 24.014 3.09195 21.1795C2.52689 18.345 2.81525 15.4065 3.92056 12.7359C5.02588 10.0653 6.89846 7.78261 9.30142 6.17651C11.7044 4.57042 14.5297 3.71313 17.42 3.71313C20.3103 3.71313 23.1356 4.57042 25.5386 6.17651C27.9416 7.78261 29.8142 10.0653 30.9195 12.7359C32.0248 15.4065 32.3131 18.345 31.7481 21.1795C31.183 24.014 29.7899 26.6172 27.745 28.6598L15.435 40.9998Z" fill="white"/>
<path d="M10.4051 22.0698H8.1051L16.2951 14.0298H18.5951L10.4051 22.0698Z" fill="white"/>
<path d="M14.7851 22.0698H12.4851L20.6851 14.0298H22.9751L14.7851 22.0698Z" fill="white"/>
<path d="M19.3951 22.0698H17.0951L25.2951 14.0298H27.5851L19.3951 22.0698Z" fill="white"/>
</svg>
