<svg width="36" height="43" viewBox="0 0 36 43" fill="none" xmlns="http://www.w3.org/2000/svg">
<path d="M16.2514 40.9998L18.2514 42.9998L30.5814 30.6598C33.0162 28.221 34.6734 25.1152 35.3436 21.7349C36.0138 18.3546 35.667 14.8515 34.3469 11.6683C33.0268 8.48503 30.7928 5.76452 27.927 3.85056C25.0613 1.93659 21.6925 0.915039 18.2464 0.915039C14.8003 0.915039 11.4315 1.93659 8.56581 3.85056C5.70009 5.76452 3.46601 8.48503 2.14594 11.6683C0.82586 14.8515 0.479015 18.3546 1.14923 21.7349C1.81945 25.1152 3.47666 28.221 5.91143 30.6598C6.10744 30.8652 6.36093 31.0068 6.63872 31.0658C6.91651 31.1248 7.20565 31.0985 7.46826 30.9904C7.73088 30.8824 7.95474 30.6975 8.11054 30.4601C8.26634 30.2227 8.34681 29.9437 8.34142 29.6598C8.33445 29.283 8.18008 28.924 7.91143 28.6598C5.86653 26.6172 4.47342 24.014 3.90836 21.1795C3.34329 18.345 3.63166 15.4065 4.73697 12.7359C5.84228 10.0653 7.71487 7.78261 10.1178 6.17651C12.5208 4.57042 15.3461 3.71313 18.2364 3.71313C21.1267 3.71313 23.9521 4.57042 26.355 6.17651C28.758 7.78261 30.6306 10.0653 31.7359 12.7359C32.8412 15.4065 33.1296 18.345 32.5645 21.1795C31.9994 24.014 30.6063 26.6172 28.5614 28.6598L16.2514 40.9998Z" fill="white"/>
<path d="M11.2219 22.0698H8.92188L17.1119 14.0298H19.4119L11.2219 22.0698Z" fill="white"/>
<path d="M15.6008 22.0698H13.3008L21.5008 14.0298H23.7908L15.6008 22.0698Z" fill="white"/>
<path d="M20.2102 22.0698H17.9102L26.1102 14.0298H28.4001L20.2102 22.0698Z" fill="white"/>
</svg>
