<svg width="35" height="10" viewBox="0 0 35 10" fill="none" xmlns="http://www.w3.org/2000/svg">
<path d="M6.99844 8.14008H0.398438V0.290039H2.09845V6.64008H5.44844V0.290039H7.16844V6.64008H8.40845V9.77008H6.99844V8.14008Z" fill="white"/>
<path d="M9.29872 4.21996C9.33008 3.45621 9.58518 2.71852 10.0323 2.09856C10.4795 1.4786 11.099 1.0037 11.8138 0.732899C12.5286 0.462099 13.3072 0.407361 14.0529 0.575429C14.7986 0.743497 15.4785 1.12701 16.008 1.67827C16.5375 2.22953 16.8934 2.92424 17.0314 3.67608C17.1694 4.42791 17.0833 5.20374 16.784 5.90709C16.4847 6.61045 15.9853 7.21031 15.3479 7.63219C14.7105 8.05407 13.9631 8.27937 13.1987 8.28002C12.6708 8.28766 12.1469 8.18663 11.6597 7.9832C11.1724 7.77978 10.7322 7.47831 10.3664 7.09752C10.0007 6.71674 9.71713 6.26479 9.53345 5.76976C9.34977 5.27474 9.26987 4.74717 9.29872 4.21996ZM15.2987 4.21996C15.232 3.82357 15.0535 3.45449 14.7842 3.15612C14.5148 2.85775 14.1659 2.64251 13.7783 2.53576C13.3908 2.429 12.9808 2.43516 12.5967 2.55352C12.2125 2.67187 11.8702 2.89751 11.6099 3.20385C11.3497 3.51018 11.1823 3.88448 11.1276 4.2827C11.0729 4.68092 11.133 5.08646 11.301 5.45165C11.4689 5.81684 11.7377 6.1265 12.0757 6.34411C12.4137 6.56171 12.8068 6.67822 13.2087 6.67998C13.5097 6.66279 13.8039 6.5845 14.0736 6.44988C14.3433 6.31526 14.5827 6.12713 14.7774 5.89696C14.972 5.66679 15.1177 5.39939 15.2056 5.11107C15.2935 4.82276 15.3218 4.51956 15.2887 4.21996H15.2987Z" fill="white"/>
<path d="M17.75 6.63983H18.29C18.75 6.30983 18.96 5.08983 19.19 2.63983C19.35 0.639832 19.38 0.339844 19.38 0.339844H24.47V6.68982H25.73V9.81982H24.26V8.18982H19.2V9.81982H17.75V6.63983ZM20.18 6.63983H22.73V1.81982H20.83C20.7534 2.33987 20.71 2.86427 20.7 3.38983C20.683 4.48591 20.5079 5.57378 20.18 6.61981V6.63983Z" fill="white"/>
<path d="M26.7109 6.63983H27.2409C27.7009 6.30983 27.9209 5.08983 28.1409 2.63983C28.3009 0.639832 28.3309 0.339844 28.3309 0.339844H33.4209V6.68982H34.6809V9.81982H33.2109V8.18982H28.1509V9.81982H26.7109V6.63983ZM29.1309 6.63983H31.6909V1.81982H29.7809C29.7809 1.93982 29.7809 1.81983 29.6609 3.38983C29.6415 4.48648 29.463 5.57447 29.1309 6.61981V6.63983Z" fill="white"/>
</svg>
