<svg width="49" height="48" viewBox="0 0 49 48" fill="none" xmlns="http://www.w3.org/2000/svg">
<g clip-path="url(#clip0_2540_4695)">
<path fill-rule="evenodd" clip-rule="evenodd" d="M24.5 46.2C36.7607 46.2 46.7 36.2607 46.7 24C46.7 11.7393 36.7607 1.8 24.5 1.8C12.2393 1.8 2.3 11.7393 2.3 24C2.3 36.2607 12.2393 46.2 24.5 46.2ZM24.5 48C37.7548 48 48.5 37.2548 48.5 24C48.5 10.7452 37.7548 0 24.5 0C11.2452 0 0.5 10.7452 0.5 24C0.5 37.2548 11.2452 48 24.5 48Z" fill="white"/>
<path fill-rule="evenodd" clip-rule="evenodd" d="M24.5 36.8C31.5692 36.8 37.3 31.0692 37.3 24C37.3 16.9308 31.5692 11.2 24.5 11.2C17.4308 11.2 11.7 16.9308 11.7 24C11.7 31.0692 17.4308 36.8 24.5 36.8ZM24.5 38C32.232 38 38.5 31.732 38.5 24C38.5 16.268 32.232 10 24.5 10C16.768 10 10.5 16.268 10.5 24C10.5 31.732 16.768 38 24.5 38Z" fill="white"/>
<path fill-rule="evenodd" clip-rule="evenodd" d="M23.91 23.6088V0.210205H25.11V23.6088H48.246V24.8088H25.1103L25.1181 47.8554L23.9181 47.8558L23.9103 24.8088H0.59375V23.6088H23.91Z" fill="white"/>
<path d="M36.0123 39.7139L36.0958 34.7208L39.9659 36.6632L36.0123 39.7139Z" fill="white"/>
<path d="M8.90823 11L13.7564 12.197L10.9985 15.5353L8.90823 11Z" fill="white"/>
<path d="M31.3735 20.5171L27.2784 17.6592L31.051 15.5337L31.3735 20.5171Z" fill="white"/>
<path d="M20.6419 27.8476L18.2989 32.2576L15.7339 28.7689L20.6419 27.8476Z" fill="white"/>
</g>
<defs>
<clipPath id="clip0_2540_4695">
<rect width="48" height="48" fill="white" transform="translate(0.5)"/>
</clipPath>
</defs>
</svg>
