<svg width="40" height="40" viewBox="0 0 40 40" fill="none" xmlns="http://www.w3.org/2000/svg">
<g clip-path="url(#clip0_2148_4106)">
<path d="M20.0002 4.89038C11.6689 4.89038 4.89062 11.6686 4.89062 19.9999C4.89062 28.3312 11.6689 35.1095 20.0002 35.1095C28.3315 35.1095 35.1097 28.3312 35.1097 19.9999C35.1097 11.6686 28.3315 4.89038 20.0002 4.89038ZM20.0002 32.7657C12.961 32.7657 7.23438 27.0391 7.23438 19.9999C7.23438 12.9608 12.961 7.23413 20.0002 7.23413C27.0394 7.23413 32.766 12.9608 32.766 19.9999C32.766 27.0391 27.0394 32.7657 20.0002 32.7657Z" fill="white"/>
<circle cx="20" cy="20" r="19" stroke="white" stroke-width="2"/>
<circle cx="20" cy="20" r="14" stroke="white" stroke-width="2"/>
<path d="M17.7586 22.2414L15 15L22.5862 18.1034L25 25L17.7586 22.2414Z" stroke="white" stroke-width="1.5"/>
<path d="M18 22.5L23 18" stroke="white" stroke-width="1.5"/>
</g>
<defs>
<clipPath id="clip0_2148_4106">
<rect width="40" height="40" fill="white"/>
</clipPath>
</defs>
</svg>
