<svg width="38" height="38" viewBox="0 0 38 38" fill="none" xmlns="http://www.w3.org/2000/svg">
<path d="M36.812 18.9999C36.8146 17.4707 36.6166 15.9478 36.223 14.4702C36.0815 13.9273 35.9117 13.3922 35.7142 12.867C36.5989 11.3922 36.9652 9.66388 36.755 7.95689C36.5448 6.2499 35.7701 4.66214 34.554 3.44596C33.3379 2.22979 31.7501 1.45497 30.0432 1.24466C28.3362 1.03435 26.6079 1.40061 25.1329 2.28523C24.6096 2.08831 24.0762 1.91886 23.5352 1.77758C20.564 0.995603 17.441 0.995603 14.4698 1.77758C13.9269 1.91907 13.3918 2.08892 12.8667 2.28642C11.3919 1.40212 9.66387 1.03602 7.95719 1.24629C6.2505 1.45657 4.66304 2.23115 3.447 3.44698C2.23097 4.66281 1.45611 6.25015 1.24555 7.9568C1.03499 9.66345 1.4008 11.3915 2.28486 12.8665C2.08793 13.3898 1.91848 13.9232 1.7772 14.4642C0.991077 17.4349 0.991077 20.5589 1.7772 23.5296C1.91866 24.0725 2.08851 24.6076 2.28604 25.1327C1.40174 26.6075 1.03564 28.3355 1.24591 30.0422C1.45619 31.7489 2.23077 33.3364 3.4466 34.5524C4.66243 35.7684 6.24977 36.5433 7.95642 36.7539C9.66307 36.9644 11.3911 36.5986 12.8661 35.7146C13.3892 35.9109 13.9221 36.0801 14.4627 36.2216H14.471C17.4393 37.0069 20.5609 37.0069 23.5292 36.2216H23.5364C24.077 36.0804 24.6099 35.9111 25.1329 35.7146C26.6078 36.599 28.336 36.9651 30.0428 36.7548C31.7497 36.5444 33.3372 35.7697 34.5533 34.5536C35.7693 33.3376 36.544 31.75 36.7544 30.0432C36.9647 28.3364 36.5986 26.6082 35.7142 25.1333C35.9111 24.6099 36.0805 24.0766 36.2218 23.5355C36.616 22.056 36.8144 20.5311 36.812 18.9999ZM24.9804 34.5086C24.6241 34.6488 24.2566 34.7711 23.8843 34.8851L22.901 26.9941C24.6807 26.1206 26.1202 24.6811 26.9938 22.9014L34.8841 23.8847C34.7707 24.2575 34.6466 24.6269 34.5059 24.9861C33.6741 27.1522 32.3962 29.1193 30.7553 30.7598C29.1143 32.4003 27.1468 33.6775 24.9804 34.5086ZM14.1147 34.8851C13.7424 34.7711 13.3749 34.6476 13.0193 34.5086H13.0127C10.8473 33.6771 8.8808 32.3996 7.24083 30.7591C5.60086 29.1187 4.32403 27.1518 3.49314 24.9861V24.9795C3.35301 24.6233 3.2307 24.257 3.1167 23.8847L11.0076 22.9014C11.8814 24.6834 13.3226 26.1245 15.1045 26.9983L14.1147 34.8851ZM2.37451 18.9999C2.37587 17.7453 2.5213 16.495 2.80795 15.2735L10.5356 16.2419C9.94451 18.0351 9.94451 19.9706 10.5356 21.7638L2.80736 22.7263C2.52123 21.5048 2.376 20.2545 2.37451 18.9999ZM13.0187 3.49114C13.3749 3.35161 13.7419 3.2287 14.1147 3.1147L15.1039 11.0033C13.3197 11.8773 11.8769 13.3201 11.0029 15.1043L3.11432 14.1157C3.22832 13.7422 3.35182 13.3729 3.49314 13.0137C4.32494 10.8476 5.60278 8.88046 7.24377 7.23998C8.88477 5.59949 10.8523 4.32227 13.0187 3.49114ZM11.2808 18.9999C11.2808 17.4733 11.7335 15.9809 12.5816 14.7116C13.4298 13.4422 14.6353 12.4529 16.0457 11.8687C17.4561 11.2845 19.0081 11.1316 20.5054 11.4295C22.0027 11.7273 23.378 12.4624 24.4575 13.5419C25.537 14.6214 26.2721 15.9967 26.5699 17.494C26.8678 18.9913 26.7149 20.5433 26.1307 21.9537C25.5465 23.3641 24.5572 24.5697 23.2878 25.4178C22.0185 26.2659 20.5261 26.7186 18.9995 26.7186C16.9531 26.7163 14.9912 25.9023 13.5441 24.4553C12.0971 23.0082 11.2831 21.0463 11.2808 18.9999ZM23.8843 3.1153C24.2572 3.2287 24.6265 3.3528 24.9857 3.49352C27.1518 4.32532 29.1189 5.60316 30.7594 7.24415C32.3999 8.88515 33.6771 10.8526 34.5083 13.019C34.6478 13.3753 34.7707 13.7422 34.8847 14.1151L26.9961 15.1043C26.1223 13.3223 24.6812 11.8812 22.8993 11.0074L23.8843 3.1153ZM35.6245 18.9999C35.6232 20.2545 35.4778 21.5048 35.1911 22.7263L27.4616 21.7632C28.0527 19.97 28.0527 18.0345 27.4616 16.2413L35.1899 15.2729C35.4767 16.4946 35.6225 17.745 35.6245 18.9999ZM35.6245 8.90614C35.6237 9.77212 35.4508 10.6293 35.1157 11.4278C33.3555 7.6677 30.3322 4.64415 26.5722 2.88373C27.5646 2.46706 28.6446 2.3023 29.7161 2.40414C30.7876 2.50598 31.8172 2.87126 32.7133 3.46744C33.6095 4.06361 34.3442 4.87217 34.8521 5.82109C35.3601 6.77001 35.6254 7.82983 35.6245 8.90614ZM22.7259 2.80892L21.7628 10.5378C19.9697 9.94667 18.0341 9.94667 16.2409 10.5378L15.2731 2.80833C17.7254 2.24452 20.2737 2.24472 22.7259 2.80892ZM8.90576 2.37489C9.77174 2.37566 10.6289 2.54862 11.4274 2.88373C7.66732 4.64389 4.64377 7.66723 2.88336 11.4272C2.46668 10.4348 2.30192 9.35479 2.40376 8.28331C2.50561 7.21183 2.87088 6.18217 3.46706 5.28606C4.06323 4.38994 4.87179 3.6552 5.82071 3.14727C6.76963 2.63934 7.82945 2.37401 8.90576 2.37489ZM8.90576 35.6249C7.83 35.6242 6.77104 35.358 5.82285 34.8499C4.87466 34.3418 4.06657 33.6074 3.47028 32.712C2.87398 31.8167 2.50794 30.7879 2.40462 29.7172C2.30131 28.6464 2.46391 27.5666 2.87801 26.5738C4.63976 30.3364 7.66535 33.362 11.428 35.1238C10.6288 35.4565 9.77143 35.6268 8.90576 35.6249ZM15.2731 35.1915L16.2415 27.4638C18.0347 28.0549 19.9702 28.0549 21.7634 27.4638L22.7259 35.1915C20.2735 35.7543 17.7255 35.7543 15.2731 35.1915ZM29.0933 35.6249C28.2273 35.6241 27.3701 35.4512 26.5716 35.1161C30.3317 33.3559 33.3553 30.3326 35.1157 26.5726C35.5323 27.565 35.6971 28.645 35.5953 29.7165C35.4934 30.788 35.1281 31.8176 34.532 32.7137C33.9358 33.6098 33.1272 34.3446 32.1783 34.8525C31.2294 35.3604 30.1696 35.6258 29.0933 35.6249Z" fill="white"/>
<path d="M14.5 2.5L16 12" stroke="white" stroke-width="2"/>
<path d="M14.5 35.5L16 26" stroke="white" stroke-width="2"/>
<path d="M23.5 2.5L22 12" stroke="white" stroke-width="2"/>
<path d="M23.5 35.5L22 26" stroke="white" stroke-width="2"/>
<path d="M2 15L11.5 16.5" stroke="white" stroke-width="2"/>
<path d="M35.5 15L26 16.5" stroke="white" stroke-width="2"/>
<path d="M2 24L11.5 22.5" stroke="white" stroke-width="2"/>
<path d="M35.5 24L26 22.5" stroke="white" stroke-width="2"/>
<circle cx="19" cy="19" r="17" stroke="white" stroke-width="2"/>
<circle cx="19" cy="19" r="7.5" stroke="white" stroke-width="3"/>
</svg>
