<svg width="42" height="42" viewBox="0 0 42 42" fill="none" xmlns="http://www.w3.org/2000/svg">
<path d="M29.3672 7.14172V5.74219C29.3672 5.06264 28.8163 4.51172 28.1367 4.51172C27.4572 4.51172 26.9062 5.06264 26.9062 5.74219V7.13672H24.4453V5.74219C24.4453 5.06264 23.8944 4.51172 23.2148 4.51172C22.5353 4.51172 21.9844 5.06264 21.9844 5.74219V7.13672H15.0117V1.23047C15.0117 0.550922 14.4608 0 13.7812 0C13.1017 0 12.5508 0.550922 12.5508 1.23047V7.14796C11.0825 7.2733 9.92578 8.50762 9.92578 10.0078V39.1289C9.92578 40.712 11.2138 42 12.7969 42H29.2031C30.7862 42 32.0742 40.712 32.0742 39.1289V10.0078C32.0742 8.47973 30.8742 7.22712 29.3672 7.14172ZM12.7969 9.59766H29.2031C29.4293 9.59766 29.6133 9.78165 29.6133 10.0078V19.8516H12.3867V10.0078C12.3867 9.78165 12.5707 9.59766 12.7969 9.59766ZM29.2031 39.5391H12.7969C12.5707 39.5391 12.3867 39.3551 12.3867 39.1289V22.3125H29.6133V39.1289C29.6133 39.3551 29.4293 39.5391 29.2031 39.5391Z" fill="white"/>
<path d="M19.6875 14.5195H22.3125C22.992 14.5195 23.543 13.9686 23.543 13.2891C23.543 12.6095 22.992 12.0586 22.3125 12.0586H19.6875C19.008 12.0586 18.457 12.6095 18.457 13.2891C18.457 13.9686 19.008 14.5195 19.6875 14.5195Z" fill="white"/>
<path d="M16.0781 27.2344C16.7577 27.2344 17.3086 26.6835 17.3086 26.0039C17.3086 25.3243 16.7577 24.7734 16.0781 24.7734C15.3986 24.7734 14.8477 25.3243 14.8477 26.0039C14.8477 26.6835 15.3986 27.2344 16.0781 27.2344Z" fill="white"/>
<path d="M21 27.2344C21.6796 27.2344 22.2305 26.6835 22.2305 26.0039C22.2305 25.3243 21.6796 24.7734 21 24.7734C20.3204 24.7734 19.7695 25.3243 19.7695 26.0039C19.7695 26.6835 20.3204 27.2344 21 27.2344Z" fill="white"/>
<path d="M25.9219 27.2344C26.6014 27.2344 27.1523 26.6835 27.1523 26.0039C27.1523 25.3243 26.6014 24.7734 25.9219 24.7734C25.2423 24.7734 24.6914 25.3243 24.6914 26.0039C24.6914 26.6835 25.2423 27.2344 25.9219 27.2344Z" fill="white"/>
<path d="M16.0781 32.1562C16.7577 32.1562 17.3086 31.6054 17.3086 30.9258C17.3086 30.2462 16.7577 29.6953 16.0781 29.6953C15.3986 29.6953 14.8477 30.2462 14.8477 30.9258C14.8477 31.6054 15.3986 32.1562 16.0781 32.1562Z" fill="white"/>
<path d="M21 32.1562C21.6796 32.1562 22.2305 31.6054 22.2305 30.9258C22.2305 30.2462 21.6796 29.6953 21 29.6953C20.3204 29.6953 19.7695 30.2462 19.7695 30.9258C19.7695 31.6054 20.3204 32.1562 21 32.1562Z" fill="white"/>
<path d="M25.9219 32.1562C26.6014 32.1562 27.1523 31.6054 27.1523 30.9258C27.1523 30.2462 26.6014 29.6953 25.9219 29.6953C25.2423 29.6953 24.6914 30.2462 24.6914 30.9258C24.6914 31.6054 25.2423 32.1562 25.9219 32.1562Z" fill="white"/>
<path d="M16.0781 37.0781C16.7577 37.0781 17.3086 36.5272 17.3086 35.8477C17.3086 35.1681 16.7577 34.6172 16.0781 34.6172C15.3986 34.6172 14.8477 35.1681 14.8477 35.8477C14.8477 36.5272 15.3986 37.0781 16.0781 37.0781Z" fill="white"/>
<path d="M21 37.0781C21.6796 37.0781 22.2305 36.5272 22.2305 35.8477C22.2305 35.1681 21.6796 34.6172 21 34.6172C20.3204 34.6172 19.7695 35.1681 19.7695 35.8477C19.7695 36.5272 20.3204 37.0781 21 37.0781Z" fill="white"/>
<path d="M25.9219 37.0781C26.6014 37.0781 27.1523 36.5272 27.1523 35.8477C27.1523 35.1681 26.6014 34.6172 25.9219 34.6172C25.2423 34.6172 24.6914 35.1681 24.6914 35.8477C24.6914 36.5272 25.2423 37.0781 25.9219 37.0781Z" fill="white"/>
</svg>
