<svg width="48" height="48" viewBox="0 0 48 48" fill="none" xmlns="http://www.w3.org/2000/svg">
<path d="M42.1417 12.9045V5.18135C42.1417 4.33085 41.704 3.56632 40.971 3.13629C40.2352 2.70457 39.3501 2.69566 38.6037 3.11313C31.4765 7.09901 23.7233 9.42673 15.5595 10.0321C15.497 10.0367 8.11837 10.0689 8.11837 10.0689C6.26522 10.0689 4.73353 11.4679 4.52156 13.2649H3.00703C1.34906 13.2649 0 14.6138 0 16.2719V22.8783C0 24.5363 1.34906 25.8853 3.00703 25.8853H4.52138C4.674 27.1786 5.50987 28.2649 6.65747 28.7727L12.0467 43.6459C12.3835 44.5717 13.2717 45.1939 14.2571 45.1939H19.6653C20.432 45.1939 21.1522 44.8189 21.5919 44.191C22.0317 43.5629 22.1377 42.7579 21.876 42.0385L17.2458 29.2663C24.791 30.0501 31.9682 32.3226 38.6036 36.0334C38.9697 36.2382 39.3692 36.3403 39.768 36.3403C40.1821 36.3402 40.5958 36.2301 40.9707 36.0102C41.7038 35.5801 42.1416 34.8156 42.1416 33.9649V26.2418C45.4417 25.8143 48 22.9879 48 19.5732C48 16.1584 45.4417 13.3319 42.1417 12.9045ZM4.49541 23.5661H3.00703C2.62762 23.5661 2.31909 23.2576 2.31909 22.8782V16.2719C2.31909 15.8928 2.62762 15.584 3.00703 15.584H4.49541V23.5661ZM7.58719 26.6479C7.1325 26.4441 6.8145 25.988 6.8145 25.4584V13.6916C6.8145 12.9728 7.3995 12.388 8.11828 12.388H14.4307V26.7621C14.4307 26.7621 8.06325 26.7597 8.03578 26.758C7.80319 26.7311 7.75425 26.7191 7.58719 26.6479ZM19.696 42.8299C19.6998 42.8394 19.7022 42.8462 19.6922 42.8603C19.6823 42.8745 19.675 42.8745 19.6652 42.8745H14.257C14.2432 42.8745 14.2306 42.8658 14.2264 42.8543L9.23578 29.0811H14.7118L19.696 42.8299ZM39.8226 33.965C39.8226 33.9818 39.8226 33.9952 39.7975 34.0099C39.7677 34.0272 39.7499 34.0174 39.7357 34.0094C32.6075 30.0231 24.8792 27.6302 16.7498 26.8881V12.2594C24.8798 11.5162 32.6081 9.12307 39.7354 5.1372C39.75 5.12923 39.7681 5.11938 39.7975 5.13663C39.8226 5.15135 39.8226 5.16457 39.8226 5.18135V33.965ZM42.1417 23.8943V15.252C44.1576 15.6564 45.6809 17.44 45.6809 19.5731C45.6809 21.7063 44.1575 23.49 42.1417 23.8943Z" fill="white"/>
</svg>
