<svg width="40" height="40" viewBox="0 0 40 40" fill="none" xmlns="http://www.w3.org/2000/svg">
<path d="M32.4145 0H7.58695C5.6835 0 4.13867 1.54483 4.13867 3.44828V36.5517C4.13867 38.4552 5.6835 40 7.58695 40H32.4145C34.318 40 35.8628 38.4552 35.8628 36.5517V3.44828C35.8628 1.54483 34.318 0 32.4145 0ZM7.58695 1.37931H32.4145C33.5594 1.37931 34.4835 2.30345 34.4835 3.44828V30.6897H5.51798V3.44828C5.51798 2.30345 6.44212 1.37931 7.58695 1.37931ZM32.4145 38.6207H7.58695C6.44212 38.6207 5.51798 37.6965 5.51798 36.5517V31.3793H34.4835V36.5517C34.4835 37.6965 33.5594 38.6207 32.4145 38.6207Z" fill="white"/>
<path d="M6 30H34" stroke="white" stroke-width="2"/>
<path d="M20.0004 35.5518C20.7622 35.5518 21.3797 34.9343 21.3797 34.1725C21.3797 33.4108 20.7622 32.7932 20.0004 32.7932C19.2386 32.7932 18.6211 33.4108 18.6211 34.1725C18.6211 34.9343 19.2386 35.5518 20.0004 35.5518Z" fill="white"/>
<rect x="5.25" y="1.25" width="29.5" height="37.5" rx="1.75" stroke="white" stroke-width="2.5"/>
</svg>
