<svg width="44" height="44" viewBox="0 0 44 44" fill="none" xmlns="http://www.w3.org/2000/svg">
<g clip-path="url(#clip0_2148_4128)">
<path d="M3.30961 39.1057L29.5 12.9153L33 15.9153L6.52718 42.3881C5.70338 43.2119 4.35264 43.16 3.59445 42.2755L3.20531 41.8215C2.52518 41.028 2.57063 39.8447 3.30961 39.1057Z" stroke="white" stroke-width="2"/>
<path d="M34.5821 14.9617L33.9833 14.3625H33.9801L31.3848 11.7655L30.786 11.1631C30.6262 11.0032 30.4083 10.9148 30.184 10.9148C29.9867 10.9148 29.7962 10.9831 29.6433 11.1054L29.582 11.1631C29.2487 11.4966 29.2487 12.0344 29.582 12.3679L33.3781 16.1665C33.5378 16.3264 33.7557 16.4148 33.9801 16.4148C34.2044 16.4148 34.4223 16.3264 34.5821 16.1665C34.9154 15.833 34.9154 15.2952 34.5821 14.9617Z" fill="white"/>
<path d="M44.1656 2L43.3495 3.69507C42.657 5.13023 41.736 6.43155 40.6077 7.55983L33.4369 14.7332H33.4344L31.4353 12.7312L33.9359 10.2306C34.0905 10.0731 34.1587 9.84747 34.1117 9.63241L33.6735 7.52558C33.2748 5.60768 32.2803 3.85504 30.8477 2.53006C33.0226 3.34617 34.7438 5.05148 35.5755 7.27626C35.6542 7.48355 35.8326 7.63823 36.0505 7.68802C36.2708 7.73252 36.4965 7.66719 36.654 7.50969L38.6061 5.55753C39.7344 4.42925 41.0357 3.50579 42.4709 2.81575L44.1656 2Z" fill="white"/>
</g>
<defs>
<clipPath id="clip0_2148_4128">
<rect width="44" height="44" fill="white"/>
</clipPath>
</defs>
</svg>
