<svg width="24" height="24" viewBox="0 0 24 24" fill="none" xmlns="http://www.w3.org/2000/svg">
<path fill-rule="evenodd" clip-rule="evenodd" d="M11.6856 2.71013C11.8802 2.59662 12.1208 2.59662 12.3154 2.71013L14.4584 3.96013C14.7565 4.13405 14.8572 4.51675 14.6833 4.81491C14.5094 5.11307 14.1267 5.21379 13.8286 5.03987L12.0005 3.97356L10.1724 5.03987C9.87427 5.21379 9.49157 5.11307 9.31765 4.81491C9.14374 4.51675 9.24446 4.13405 9.54262 3.96013L11.6856 2.71013Z" fill="white"/>
<path fill-rule="evenodd" clip-rule="evenodd" d="M12 2.625C12.3452 2.625 12.625 2.90482 12.625 3.25V6.375C12.625 6.72018 12.3452 7 12 7C11.6548 7 11.375 6.72018 11.375 6.375V3.25C11.375 2.90482 11.6548 2.625 12 2.625Z" fill="white"/>
<path fill-rule="evenodd" clip-rule="evenodd" d="M9.31765 19.1852C9.49157 18.887 9.87427 18.7863 10.1724 18.9602L12.0005 20.0265L13.8286 18.9602C14.1267 18.7863 14.5094 18.887 14.6833 19.1852C14.8572 19.4834 14.7565 19.8661 14.4584 20.04L12.3154 21.29C12.1208 21.4035 11.8802 21.4035 11.6856 21.29L9.54262 20.04C9.24446 19.8661 9.14374 19.4834 9.31765 19.1852Z" fill="white"/>
<path fill-rule="evenodd" clip-rule="evenodd" d="M12 17C12.3452 17 12.625 17.2798 12.625 17.625V20.75C12.625 21.0952 12.3452 21.375 12 21.375C11.6548 21.375 11.375 21.0952 11.375 20.75V17.625C11.375 17.2798 11.6548 17 12 17Z" fill="white"/>
<path fill-rule="evenodd" clip-rule="evenodd" d="M7.11379 6.07541C7.28982 6.37233 7.19182 6.75573 6.8949 6.93176L5.125 7.98105V10.1059C5.125 10.451 4.84518 10.7309 4.5 10.7309C4.15482 10.7309 3.875 10.451 3.875 10.1059V7.625C3.875 7.40429 3.99141 7.19994 4.18127 7.08738L6.25744 5.85652C6.55436 5.68049 6.93776 5.77849 7.11379 6.07541Z" fill="white"/>
<path fill-rule="evenodd" clip-rule="evenodd" d="M3.96285 7.30574C4.13923 7.00902 4.52275 6.91147 4.81946 7.08785L7.44797 8.65035C7.74469 8.82673 7.84224 9.21025 7.66586 9.50696C7.48948 9.80367 7.10596 9.90122 6.80925 9.72484L4.18074 8.16234C3.88402 7.98596 3.78647 7.60245 3.96285 7.30574Z" fill="white"/>
<path fill-rule="evenodd" clip-rule="evenodd" d="M19.5001 13.269C19.8453 13.269 20.1251 13.5489 20.1251 13.894V16.3749C20.1251 16.5956 20.0087 16.8 19.8188 16.9125L17.7427 18.1434C17.4457 18.3194 17.0623 18.2214 16.8863 17.9245C16.7103 17.6276 16.8083 17.2442 17.1052 17.0681L18.8751 16.0189V13.894C18.8751 13.5489 19.1549 13.269 19.5001 13.269Z" fill="white"/>
<path fill-rule="evenodd" clip-rule="evenodd" d="M16.3339 14.4932C16.5103 14.1965 16.8938 14.099 17.1906 14.2754L19.8191 15.8379C20.1158 16.0142 20.2133 16.3977 20.037 16.6945C19.8606 16.9912 19.4771 17.0887 19.1803 16.9123L16.5518 15.3498C16.2551 15.1735 16.1576 14.7899 16.3339 14.4932Z" fill="white"/>
<path fill-rule="evenodd" clip-rule="evenodd" d="M4.5 13.269C4.84518 13.269 5.125 13.5489 5.125 13.894V16.0217L6.89855 17.0895C7.19426 17.2675 7.28966 17.6516 7.11162 17.9473C6.93357 18.243 6.54952 18.3384 6.2538 18.1603L4.17763 16.9103C3.98983 16.7973 3.875 16.5941 3.875 16.3749V13.894C3.875 13.5489 4.15482 13.269 4.5 13.269Z" fill="white"/>
<path fill-rule="evenodd" clip-rule="evenodd" d="M7.6391 14.4909C7.81674 14.7869 7.72083 15.1708 7.42487 15.3485L4.82175 16.911C4.52579 17.0886 4.14186 16.9927 3.96422 16.6967C3.78657 16.4008 3.88248 16.0169 4.17844 15.8392L6.78157 14.2767C7.07752 14.0991 7.46145 14.195 7.6391 14.4909Z" fill="white"/>
<path fill-rule="evenodd" clip-rule="evenodd" d="M16.8863 6.07541C17.0623 5.77849 17.4457 5.68049 17.7427 5.85652L19.8188 7.08738C20.0087 7.19994 20.1251 7.40429 20.1251 7.625V10.1059C20.1251 10.451 19.8453 10.7309 19.5001 10.7309C19.1549 10.7309 18.8751 10.451 18.8751 10.1059V7.98105L17.1052 6.93176C16.8083 6.75573 16.7103 6.37233 16.8863 6.07541Z" fill="white"/>
<path fill-rule="evenodd" clip-rule="evenodd" d="M20.037 7.30574C20.2133 7.60245 20.1158 7.98596 19.8191 8.16234L17.1906 9.72484C16.8938 9.90122 16.5103 9.80367 16.3339 9.50696C16.1576 9.21025 16.2551 8.82673 16.5518 8.65035L19.1803 7.08785C19.4771 6.91147 19.8606 7.00902 20.037 7.30574Z" fill="white"/>
<path fill-rule="evenodd" clip-rule="evenodd" d="M14.6828 10.4352C14.8568 10.7334 14.756 11.1161 14.4579 11.29L12.625 12.3591V14.5001C12.625 14.8453 12.3452 15.1251 12 15.1251C11.6548 15.1251 11.375 14.8453 11.375 14.5001V11.6411L13.8281 10.2102C14.1262 10.0363 14.5089 10.137 14.6828 10.4352Z" fill="white"/>
<path fill-rule="evenodd" clip-rule="evenodd" d="M9.31765 10.4352C9.49157 10.137 9.87427 10.0363 10.1724 10.2102L12.3154 11.4602C12.6136 11.6342 12.7143 12.0168 12.5404 12.315C12.3664 12.6132 11.9837 12.7139 11.6856 12.54L9.54262 11.29C9.24446 11.1161 9.14374 10.7334 9.31765 10.4352Z" fill="white"/>
</svg>
