<svg width="24" height="24" viewBox="0 0 24 24" fill="none" xmlns="http://www.w3.org/2000/svg">
<path d="M13.8125 17.6364V6H17.7443C18.6534 6 19.3996 6.1553 19.983 6.46591C20.5663 6.77273 20.9981 7.19508 21.2784 7.73295C21.5587 8.27083 21.6989 8.88258 21.6989 9.56818C21.6989 10.2538 21.5587 10.8617 21.2784 11.392C20.9981 11.9223 20.5682 12.339 19.9886 12.642C19.4091 12.9413 18.6686 13.0909 17.767 13.0909H14.5852V11.8182H17.7216C18.3428 11.8182 18.8428 11.7273 19.2216 11.5455C19.6042 11.3636 19.8807 11.1061 20.0511 10.7727C20.2254 10.4356 20.3125 10.0341 20.3125 9.56818C20.3125 9.10227 20.2254 8.69508 20.0511 8.34659C19.8769 7.99811 19.5985 7.72917 19.2159 7.53977C18.8333 7.34659 18.3277 7.25 17.6989 7.25H15.2216V17.6364H13.8125ZM19.2898 12.4091L22.1534 17.6364H20.517L17.6989 12.4091H19.2898Z" fill="white"/>
<path d="M3.47727 17.6364H2L6.27273 6H7.72727L12 17.6364H10.5227L7.04545 7.84091H6.95455L3.47727 17.6364ZM4.02273 13.0909H9.97727V14.3409H4.02273V13.0909Z" fill="white"/>
</svg>
