<svg width="18" height="18" viewBox="0 0 18 18" fill="none" xmlns="http://www.w3.org/2000/svg">
<path d="M17.4 0.613783C16.88 0.0937829 16.04 0.0937829 15.52 0.613783L8.99996 7.12045L2.47996 0.600449C1.95996 0.0804492 1.11996 0.0804492 0.599961 0.600449C0.079961 1.12045 0.079961 1.96045 0.599961 2.48045L7.11996 9.00045L0.599961 15.5204C0.079961 16.0404 0.079961 16.8804 0.599961 17.4004C1.11996 17.9204 1.95996 17.9204 2.47996 17.4004L8.99996 10.8804L15.52 17.4004C16.04 17.9204 16.88 17.9204 17.4 17.4004C17.92 16.8804 17.92 16.0404 17.4 15.5204L10.88 9.00045L17.4 2.48045C17.9066 1.97378 17.9066 1.12045 17.4 0.613783Z" fill="white"/>
</svg>
