<svg width="49" height="48" viewBox="0 0 49 48" fill="none" xmlns="http://www.w3.org/2000/svg">
<rect x="2.35156" y="14.9253" width="17.3837" height="17.8683" rx="1.64802" stroke="white" stroke-width="2"/>
<path d="M19.7773 17.1255H30.6512C31.5614 17.1255 32.2993 17.8633 32.2993 18.7735V29.1369C32.2993 30.047 31.5614 30.7849 30.6512 30.7849H19.7773V17.1255Z" stroke="white" stroke-width="2"/>
<circle cx="11.0446" cy="23.8591" r="5.44502" stroke="white" stroke-width="2"/>
<circle cx="11.0449" cy="23.8593" r="1.289" fill="white"/>
<path d="M11.0448 23.8593L8.4668 22.5703" stroke="white" stroke-width="1.32401" stroke-linecap="round"/>
<path d="M22.3398 17.1406V18.3992" stroke="white" stroke-width="1.21673" stroke-linecap="round"/>
<path d="M22.3398 29.5938V30.8523" stroke="white" stroke-width="1.21673" stroke-linecap="round"/>
<path d="M25.8945 17.1406V18.3992" stroke="white" stroke-width="1.21673" stroke-linecap="round"/>
<path d="M25.8945 29.5938V30.8523" stroke="white" stroke-width="1.21673" stroke-linecap="round"/>
<path d="M29.4473 17.1406V18.3992" stroke="white" stroke-width="1.21673" stroke-linecap="round"/>
<path d="M29.4473 29.5938V30.8523" stroke="white" stroke-width="1.21673" stroke-linecap="round"/>
<path d="M33.0117 21.1611C41.1332 21.1609 40.8196 29.052 37.8079 29.052C34.6394 29.052 34.5386 22.2397 40.777 21.5685C41.4508 21.496 42.1429 21.5536 42.7901 21.7545C47.8781 23.3344 46.8154 29.052 44.4286 29.052C41.8975 29.052 40.6568 22.4515 47.3816 21.7636" stroke="white" stroke-width="2" stroke-linecap="round"/>
</svg>
