<svg width="48" height="48" viewBox="0 0 48 48" fill="none" xmlns="http://www.w3.org/2000/svg">
<path d="M16.3772 33.9737C10.019 32.4187 5.29883 26.6821 5.29883 19.8443C5.29883 11.8117 11.8112 5.29932 19.8438 5.29932C27.8764 5.29932 34.3887 11.8117 34.3887 19.8443C34.3887 20.549 34.3385 21.2434 34.2416 21.9221" stroke="white" stroke-width="2" stroke-linecap="round" stroke-linejoin="round"/>
<path d="M16.3793 29.6414C12.3448 28.2146 9.45312 24.3671 9.45312 19.8443C9.45312 14.106 14.104 9.45508 19.8424 9.45508C25.5807 9.45508 30.2316 14.106 30.2316 19.8443C30.2316 20.556 30.1606 21.2503 30.0239 21.9222" stroke="white" stroke-width="2" stroke-linecap="round" stroke-linejoin="round"/>
<path d="M19.8435 21.9218C20.991 21.9218 21.9213 20.9915 21.9213 19.844C21.9213 18.6964 20.991 17.7661 19.8435 17.7661C18.6959 17.7661 17.7656 18.6964 17.7656 19.844C17.7656 20.9915 18.6959 21.9218 19.8435 21.9218Z" stroke="white" stroke-width="2" stroke-linecap="round" stroke-linejoin="round"/>
<path d="M18.906 13.3021C19.3164 14.0397 20.3778 14.0397 20.7882 13.3021L22.6998 9.8615C21.7925 9.60177 20.8384 9.45459 19.8479 9.45459C18.8575 9.45459 17.9034 9.60177 16.9961 9.8615L18.9077 13.3021H18.906Z" stroke="white" stroke-width="1.5264" stroke-linecap="round" stroke-linejoin="round"/>
<path d="M23.8064 14.5523C23.5744 15.3644 24.3258 16.1141 25.1362 15.8821L28.9248 14.7999C27.9829 13.1064 26.582 11.7056 24.8886 10.7637L23.8064 14.5523Z" stroke="white" stroke-width="1.5264" stroke-linecap="round" stroke-linejoin="round"/>
<path d="M26.3872 20.7843L29.8278 22.6959C30.0875 21.7886 30.2347 20.8345 30.2347 19.844C30.2347 18.8536 30.0875 17.8995 29.8278 16.9922L26.3872 18.9038C25.6496 19.3142 25.6496 20.3756 26.3872 20.786V20.7843Z" stroke="white" stroke-width="1.53" stroke-linecap="round" stroke-linejoin="round"/>
<path d="M14.5562 15.8836C15.3683 16.1156 16.118 15.3641 15.886 14.5538L14.8038 10.7651C13.1104 11.7071 11.7095 13.1079 10.7676 14.8014L14.5562 15.8836Z" stroke="white" stroke-width="1.5264" stroke-linecap="round" stroke-linejoin="round"/>
<path d="M15.888 25.1358C16.12 24.3237 15.3685 23.5739 14.5581 23.806L10.7695 24.8882C11.7115 26.5816 13.1123 27.9825 14.8058 28.9244L15.888 25.1358Z" stroke="white" stroke-width="1.5264" stroke-linecap="round" stroke-linejoin="round"/>
<path d="M13.3045 18.9038L9.86394 16.9922C9.60421 17.8995 9.45703 18.8536 9.45703 19.844C9.45703 20.8345 9.60421 21.7886 9.86394 22.6959L13.3045 20.7843C14.0422 20.3739 14.0422 19.3125 13.3045 18.9021V18.9038Z" stroke="white" stroke-width="1.5264" stroke-linecap="round" stroke-linejoin="round"/>
<path d="M37.1605 27.4629H24.6934" stroke="white" stroke-width="2" stroke-linecap="round" stroke-linejoin="round"/>
<path d="M21.9228 27.4629H20.5376C19.7757 27.4629 19.1523 28.0862 19.1523 28.8481V41.3152C19.1523 42.0771 19.7757 42.7005 20.5376 42.7005H41.3161C42.078 42.7005 42.7013 42.0771 42.7013 41.3152V28.8481C42.7013 28.0862 42.078 27.4629 41.3161 27.4629H39.9309" stroke="white" stroke-width="2" stroke-linecap="round" stroke-linejoin="round"/>
<path d="M27.2305 27.4629L28.1586 24.6924H33.6995L34.6276 27.4629" stroke="white" stroke-width="2" stroke-linecap="round" stroke-linejoin="round"/>
<path d="M21.9236 26.7705H24.6941V29.4111C24.6941 29.8648 24.3253 30.2336 23.8716 30.2336H22.7444C22.2907 30.2336 21.9219 29.8648 21.9219 29.4111V26.7705H21.9236Z" stroke="white" stroke-linecap="round" stroke-linejoin="round"/>
<path d="M39.1089 30.2339H37.9817C37.528 30.2339 37.1592 29.8651 37.1592 29.4114V26.7708H39.9297V29.4114C39.9297 29.8651 39.5609 30.2339 39.1072 30.2339H39.1089Z" stroke="white" stroke-linecap="round" stroke-linejoin="round"/>
<path d="M38.5462 33.0044H23.3086V38.5453H38.5462V33.0044Z" stroke="white" stroke-width="2" stroke-linecap="round" stroke-linejoin="round"/>
</svg>
