<svg width="24" height="24" viewBox="0 0 24 24" fill="none" xmlns="http://www.w3.org/2000/svg">
<path fill-rule="evenodd" clip-rule="evenodd" d="M23.4055 16.8648C22.8615 15.7693 22.1447 14.7684 21.2825 13.9008C20.9941 13.5749 20.6922 13.2613 20.3775 12.9608L20.3395 12.9238C20.2226 12.8103 20.1073 12.6953 19.9935 12.5788C21.1721 10.9399 22.1806 9.18516 23.0035 7.3418L23.0365 7.2678L23.0595 7.1898C23.1685 6.8268 23.2925 6.1368 22.8525 5.5128C22.3965 4.8688 21.6675 4.7528 21.1785 4.7528H18.9315C18.461 4.73136 17.9958 4.8593 17.6024 5.11831C17.2091 5.37732 16.9077 5.75413 16.7415 6.1948C16.2579 7.34644 15.6525 8.44302 14.9355 9.4658V6.8328C14.9355 6.4928 14.9035 5.9228 14.5385 5.4428C14.1025 4.8668 13.4715 4.7528 13.0335 4.7528H9.46749C9.00216 4.7421 8.55054 4.91076 8.20616 5.22388C7.86177 5.53699 7.651 5.97056 7.61749 6.4348L7.61449 6.4798V6.5248C7.61449 7.0098 7.80649 7.3678 7.96049 7.5928C8.02949 7.6938 8.10249 7.7858 8.14949 7.8438L8.15949 7.8568C8.20949 7.9188 8.24249 7.9598 8.27549 8.0058C8.36349 8.1238 8.48849 8.3078 8.52449 8.7818V10.2548C7.80866 9.05612 7.22173 7.78504 6.77349 6.4628L6.76549 6.4408L6.75749 6.4198C6.63549 6.1008 6.44049 5.6368 6.04949 5.2828C5.59349 4.8678 5.05349 4.7528 4.56249 4.7528H2.28249C1.78549 4.7528 1.18649 4.8688 0.739488 5.3398C0.300488 5.8038 0.250488 6.3598 0.250488 6.6538V6.7878L0.278488 6.9178C0.909789 9.84858 2.21072 12.5935 4.07949 14.9378C4.93386 16.2851 6.09377 17.4121 7.46514 18.2273C8.8365 19.0425 10.3807 19.523 11.9725 19.6298L12.0135 19.6328H12.0555C12.7815 19.6328 13.5385 19.5698 14.1075 19.1908C14.8745 18.6788 14.9355 17.8938 14.9355 17.5018V16.3638C15.1325 16.5238 15.3765 16.7378 15.6755 17.0258C16.0375 17.3878 16.3255 17.7018 16.5725 17.9758L16.7045 18.1218C16.8965 18.3358 17.0855 18.5468 17.2575 18.7198C17.4735 18.9368 17.7405 19.1758 18.0745 19.3528C18.4375 19.5438 18.8185 19.6308 19.2225 19.6308H21.5035C21.9845 19.6308 22.6735 19.5168 23.1585 18.9548C23.6865 18.3428 23.6465 17.5918 23.4805 17.0528L23.4505 16.9558L23.4055 16.8648ZM17.6855 16.9708C17.3756 16.6244 17.0564 16.2862 16.7285 15.9568L16.7255 15.9538C15.3685 14.6458 14.7355 14.4188 14.2875 14.4188C14.0485 14.4188 13.7855 14.4448 13.6145 14.6588C13.5375 14.7609 13.487 14.8804 13.4675 15.0068C13.4434 15.1535 13.4327 15.3021 13.4355 15.4508V17.5018C13.4355 17.7568 13.3935 17.8638 13.2755 17.9418C13.1185 18.0468 12.7835 18.1318 12.0645 18.1318C10.6987 18.0389 9.37447 17.6231 8.20066 16.9187C7.02686 16.2143 6.03701 15.2413 5.31249 14.0798L5.30449 14.0668L5.29449 14.0548C3.5536 11.888 2.34033 9.34605 1.75049 6.6298C1.75449 6.4998 1.78249 6.4208 1.82849 6.3728C1.87549 6.3228 1.99049 6.2528 2.28249 6.2528H4.56249C4.81549 6.2528 4.94749 6.3088 5.04249 6.3938C5.14849 6.4918 5.24249 6.6568 5.35449 6.9508C5.91449 8.5968 6.67049 10.1368 7.38749 11.2678C7.74549 11.8338 8.09749 12.3048 8.41549 12.6378C8.57449 12.8038 8.72949 12.9418 8.87849 13.0398C9.02149 13.1338 9.18449 13.2088 9.35249 13.2088C9.44049 13.2088 9.54349 13.1988 9.64249 13.1558C9.7494 13.1086 9.83742 13.0269 9.89249 12.9238C9.99549 12.7358 10.0245 12.4588 10.0245 12.0958V8.7228C9.97149 7.9048 9.72449 7.4438 9.48449 7.1168C9.43588 7.0514 9.38587 6.98705 9.33449 6.9238L9.32149 6.9078C9.27884 6.85601 9.23815 6.80264 9.19949 6.7478C9.15026 6.68665 9.12064 6.61207 9.11449 6.5338C9.12233 6.45434 9.16025 6.38088 9.22048 6.32846C9.28071 6.27603 9.3587 6.24861 9.43849 6.2518H13.0335C13.2395 6.2518 13.3085 6.3018 13.3435 6.3488C13.3935 6.4138 13.4355 6.5488 13.4355 6.8328V11.3608C13.4355 11.8988 13.6835 12.2628 14.0435 12.2628C14.4575 12.2628 14.7565 12.0118 15.2785 11.4898L15.2875 11.4798L15.2955 11.4708C16.4665 10.0431 17.4232 8.45238 18.1355 6.7488L18.1395 6.7368C18.193 6.58629 18.2943 6.45742 18.4279 6.36985C18.5615 6.28228 18.7201 6.24082 18.8795 6.2518H21.1795C21.4915 6.2518 21.5935 6.3318 21.6275 6.3788C21.6625 6.4288 21.6875 6.5358 21.6275 6.7458C20.8061 8.58216 19.7906 10.3254 18.5985 11.9458L18.5905 11.9578C18.4755 12.1348 18.3485 12.3308 18.3305 12.5548C18.3105 12.7968 18.4145 13.0158 18.5975 13.2518C18.7305 13.4478 19.0055 13.7168 19.2845 13.9898L19.3105 14.0158C19.6025 14.3018 19.9195 14.6118 20.1735 14.9118L20.1805 14.9188L20.1875 14.9268C20.9449 15.6823 21.5747 16.5556 22.0525 17.5128C22.1285 17.7728 22.0825 17.9068 22.0225 17.9758C21.9535 18.0558 21.7985 18.1308 21.5045 18.1308H19.2225C19.067 18.1346 18.9131 18.0984 18.7755 18.0258C18.6069 17.9277 18.4539 17.8051 18.3215 17.6618C18.1785 17.5188 18.0235 17.3458 17.8335 17.1348L17.6865 16.9708H17.6855Z" fill="white"/>
</svg>
