<svg width="24" height="24" viewBox="0 0 24 24" fill="none" xmlns="http://www.w3.org/2000/svg">
<path d="M8.24987 12.6443L16.6796 20.0625C16.7772 20.1484 16.8953 20.2074 17.0225 20.2338C17.1497 20.2602 17.2816 20.2532 17.4053 20.2133C17.5289 20.1734 17.6401 20.1021 17.7279 20.0063C17.8157 19.9106 17.8771 19.7937 17.9061 19.667L21.4324 4.27959C21.4629 4.14655 21.4565 4.00771 21.4139 3.87804C21.3713 3.74837 21.2942 3.63277 21.1907 3.54371C21.0873 3.45466 20.9615 3.39551 20.827 3.37265C20.6924 3.3498 20.5542 3.36409 20.4271 3.414L3.12493 10.2113C2.97414 10.2705 2.84658 10.377 2.76135 10.5148C2.67612 10.6526 2.63779 10.8142 2.6521 10.9756C2.66642 11.137 2.7326 11.2894 2.84076 11.41C2.94891 11.5307 3.09322 11.613 3.25208 11.6448L8.24987 12.6443Z" stroke="white" stroke-width="1.25" stroke-linecap="round" stroke-linejoin="round"/>
<path d="M8.25012 12.6442L21.0106 3.42822" stroke="white" stroke-width="1.25" stroke-linecap="round" stroke-linejoin="round"/>
<path d="M12.4602 16.3491L9.53045 19.2788C9.42556 19.3837 9.29193 19.4551 9.14644 19.4841C9.00096 19.513 8.85016 19.4982 8.71311 19.4414C8.57607 19.3846 8.45893 19.2885 8.37652 19.1652C8.29411 19.0418 8.25012 18.8968 8.25012 18.7485V12.6443" stroke="white" stroke-width="1.25" stroke-linecap="round" stroke-linejoin="round"/>
</svg>
