<svg width="24" height="28" viewBox="0 0 24 28" fill="none" xmlns="http://www.w3.org/2000/svg">
<path d="M10.5605 7.12218C10.891 7.1234 11.2145 7.02651 11.4899 6.84378C11.7653 6.66106 11.9802 6.40072 12.1076 6.09573C12.2349 5.79073 12.2688 5.4548 12.2051 5.1305C12.1414 4.80619 11.9828 4.50809 11.7496 4.27396C11.5163 4.03982 11.2188 3.88018 10.8947 3.81525C10.5707 3.75032 10.2346 3.78303 9.92915 3.90922C9.62369 4.03542 9.36254 4.24941 9.17879 4.52413C8.99504 4.79885 8.89696 5.12194 8.89696 5.45245C8.89448 5.67189 8.93578 5.8896 9.01843 6.09289C9.10108 6.29619 9.22343 6.48097 9.37831 6.63643C9.5332 6.79189 9.71752 6.91493 9.92051 6.99833C10.1235 7.08174 10.3411 7.12383 10.5605 7.12218Z" fill="white"/>
<path d="M9.98346 11.5128L13.6383 10.0966V8.46396L11.8944 7.80225H9.22279L7.47266 8.46396V13.4794L8.95688 14.1411L9.4578 19.3729H11.6223L11.7893 17.5177C9.63714 15.044 9.97109 11.5251 9.97109 11.5251" fill="white"/>
<path d="M10.3437 11.7726C10.3437 12.7435 10.3932 16.6519 13.6399 18.4948C16.8928 16.6396 16.9609 12.7435 16.9423 11.7726L13.6399 10.4924L10.3437 11.7726ZM13.6399 19.3482L13.4544 19.2493C9.12546 16.9302 9.58309 11.6798 9.60782 11.4634V11.2284L13.6214 9.66992L17.6349 11.2284V11.4634C17.6349 11.6798 18.1173 16.9302 13.7884 19.2493L13.5905 19.3482H13.6399Z" fill="white"/>
<path d="M23.5954 11.6118C23.5981 9.70393 23.13 7.82487 22.2325 6.14123C21.3351 4.45759 20.0361 3.0214 18.4507 1.96001C16.8654 0.898616 15.0426 0.244817 13.144 0.0565784C11.2454 -0.13166 9.32976 0.151488 7.56683 0.880903C5.80389 1.61032 4.24817 2.76347 3.03762 4.2381C1.82707 5.71274 0.999086 7.46328 0.627088 9.33454C0.255091 11.2058 0.350578 13.1399 0.905075 14.9655C1.45957 16.791 2.45595 18.4515 3.80586 19.7997C3.98548 19.9771 4.22748 20.077 4.47993 20.078C4.6039 20.0788 4.72679 20.0551 4.84155 20.0082C4.95632 19.9614 5.06067 19.8922 5.14861 19.8049C5.23656 19.7175 5.30635 19.6136 5.35398 19.4992C5.4016 19.3847 5.42612 19.262 5.42612 19.138C5.4228 18.8818 5.31832 18.6373 5.13546 18.4577C3.77697 17.0989 2.8519 15.3678 2.47722 13.4832C2.10254 11.5987 2.29508 9.64538 3.03049 7.87026C3.76589 6.09514 5.01115 4.57794 6.60879 3.5105C8.20643 2.44306 10.0847 1.87331 12.0061 1.87331C13.9276 1.87331 15.8058 2.44306 17.4035 3.5105C19.0011 4.57794 20.2464 6.09514 20.9818 7.87026C21.7172 9.64538 21.9097 11.5987 21.535 13.4832C21.1604 15.3678 20.2353 17.0989 18.8768 18.4577L10.6765 26.6642L12.0123 28L20.2188 19.7935C21.2913 18.7183 22.1414 17.4423 22.7208 16.0385C23.3002 14.6347 23.5973 13.1305 23.5954 11.6118Z" fill="white"/>
</svg>
