<svg width="18" height="18" viewBox="0 0 18 18" fill="none" xmlns="http://www.w3.org/2000/svg">
<path d="M13.5689 5.59074L10.1596 9L13.5689 12.4093C13.9439 12.7843 13.9439 13.398 13.5689 13.773C13.1939 14.148 12.5802 14.148 12.2052 13.773L8.79594 10.3637L5.38668 13.773C5.01166 14.148 4.39799 14.148 4.02297 13.773C3.64795 13.398 3.64795 12.7843 4.02297 12.4093L7.43224 9L4.02297 5.59074C3.64795 5.21572 3.64795 4.60205 4.02297 4.22703C4.39799 3.85201 5.01166 3.85201 5.38668 4.22703L8.79594 7.63629L12.2052 4.22703C12.5802 3.85201 13.1939 3.85201 13.5689 4.22703C13.9439 4.60205 13.9439 5.21572 13.5689 5.59074Z" fill="#868686" fill-opacity="0.6"/>
</svg>
