<svg width="48" height="48" viewBox="0 0 48 48" fill="none" xmlns="http://www.w3.org/2000/svg">
<mask id="mask0_215_12197" style="mask-type:alpha" maskUnits="userSpaceOnUse" x="0" y="0" width="48" height="48">
<rect width="48" height="48" fill="#D9D9D9"/>
</mask>
<g mask="url(#mask0_215_12197)">
<path d="M11.1997 42C10.733 42 10.3663 41.8167 10.0997 41.45C9.83301 41.0833 9.76634 40.6667 9.89967 40.2L19.0997 7.05C19.1997 6.71667 19.3663 6.45833 19.5997 6.275C19.833 6.09167 20.1163 6 20.4497 6C20.9163 6 21.2913 6.18333 21.5747 6.55C21.858 6.91667 21.933 7.33333 21.7997 7.8L20.4997 12.5H33.7997L35.3497 7.05C35.4497 6.71667 35.6247 6.45833 35.8747 6.275C36.1247 6.09167 36.4163 6 36.7497 6C37.2163 6 37.583 6.18333 37.8497 6.55C38.1163 6.91667 38.183 7.33333 38.0497 7.8L28.8997 40.95C28.833 41.2833 28.6747 41.5417 28.4247 41.725C28.1747 41.9083 27.883 42 27.5497 42C27.083 42 26.708 41.8167 26.4247 41.45C26.1413 41.0833 26.0663 40.6667 26.1997 40.2L27.4497 35.5H14.1497L12.5997 40.95C12.533 41.2833 12.3663 41.5417 12.0997 41.725C11.833 41.9083 11.533 42 11.1997 42ZM17.7497 22.5H31.0497L32.9997 15.5H19.6997L17.7497 22.5ZM14.9497 32.5H28.2997L30.2497 25.5H16.8997L14.9497 32.5Z" fill="white"/>
</g>
</svg>
