<svg width="48" height="48" viewBox="0 0 48 48" fill="none" xmlns="http://www.w3.org/2000/svg">
<mask id="mask0_215_12363" style="mask-type:alpha" maskUnits="userSpaceOnUse" x="0" y="0" width="48" height="48">
<rect width="48" height="48" fill="#D9D9D9"/>
</mask>
<g mask="url(#mask0_215_12363)">
<path d="M13.0386 36.5383H24.0769C24.2051 36.5383 24.3141 36.4934 24.4039 36.4036C24.4936 36.3139 24.5385 36.2049 24.5385 36.0767V33.3267C24.5385 33.1985 24.4936 33.0896 24.4039 32.9998C24.3141 32.9101 24.2051 32.8652 24.0769 32.8652H13.0386C12.9104 32.8652 12.8014 32.9101 12.7117 32.9998C12.6219 33.0896 12.577 33.1985 12.577 33.3267V36.0767C12.577 36.2049 12.6219 36.3139 12.7117 36.4036C12.8014 36.4934 12.9104 36.5383 13.0386 36.5383ZM13.327 19.1346H23.0578C23.2706 19.1346 23.4616 19.0497 23.6308 18.8799C23.8001 18.7101 23.8847 18.5185 23.8847 18.3049C23.8847 18.0914 23.8001 17.9006 23.6308 17.7327C23.4616 17.5647 23.2706 17.4807 23.0578 17.4807H13.327C13.1142 17.4807 12.9232 17.5656 12.754 17.7354C12.5847 17.9052 12.5001 18.0969 12.5001 18.3104C12.5001 18.524 12.5847 18.7147 12.754 18.8826C12.9232 19.0506 13.1142 19.1346 13.327 19.1346ZM13.327 14.5192H23.0578C23.2706 14.5192 23.4616 14.4343 23.6308 14.2645C23.8001 14.0948 23.8847 13.9031 23.8847 13.6896C23.8847 13.476 23.8001 13.2853 23.6308 13.1173C23.4616 12.9494 23.2706 12.8654 23.0578 12.8654H13.327C13.1142 12.8654 12.9232 12.9503 12.754 13.1201C12.5847 13.2899 12.5001 13.4815 12.5001 13.695C12.5001 13.9086 12.5847 14.0994 12.754 14.2673C12.9232 14.4353 13.1142 14.5192 13.327 14.5192ZM31 21.1922V18.923H35.1153C35.2948 18.923 35.4423 18.8654 35.5577 18.75C35.6731 18.6346 35.7308 18.4871 35.7308 18.3076V13.6923C35.7308 13.5128 35.6731 13.3654 35.5577 13.25C35.4423 13.1346 35.2948 13.0769 35.1153 13.0769H31V10.8077H35.1153C35.8986 10.8077 36.5753 11.0927 37.1451 11.6625C37.715 12.2324 37.9999 12.909 37.9999 13.6923V14.8654H42.0576C42.379 14.8654 42.6485 14.9742 42.866 15.1918C43.0834 15.4094 43.1922 15.679 43.1922 16.0006C43.1922 16.3104 43.0834 16.5769 42.866 16.8C42.6485 17.0231 42.379 17.1346 42.0576 17.1346H37.9999V18.3076C37.9999 19.091 37.715 19.7676 37.1451 20.3374C36.5753 20.9073 35.8986 21.1922 35.1153 21.1922H31ZM23.1923 30.596H20.9231V22.5384H28.1154C28.2949 22.5384 28.4423 22.4807 28.5577 22.3653C28.6731 22.2499 28.7308 22.1025 28.7308 21.923V10.077C28.7308 9.8975 28.6731 9.75005 28.5577 9.63465C28.4423 9.51925 28.2949 9.46155 28.1154 9.46155H12.3847C11.0587 9.46155 9.9388 9.91853 9.02487 10.8325C8.11093 11.7464 7.65397 12.8664 7.65397 14.1923V17.8077C7.65397 19.1336 8.11093 20.2536 9.02487 21.1675C9.9388 22.0815 11.0587 22.5384 12.3847 22.5384H16.1924V30.596H13.9232V24.8076H12.3847C10.4597 24.8076 8.81182 24.1222 7.44102 22.7514C6.07018 21.3806 5.38477 19.7327 5.38477 17.8077V14.1923C5.38477 12.2673 6.07018 10.6194 7.44102 9.2486C8.81182 7.8778 10.4597 7.1924 12.3847 7.1924H28.1154C28.8987 7.1924 29.5753 7.47733 30.1452 8.0472C30.7151 8.61706 31 9.29366 31 10.077V21.923C31 22.7063 30.7151 23.3829 30.1452 23.9528C29.5753 24.5227 28.8987 24.8076 28.1154 24.8076H23.1923V30.596ZM12.4809 38.8074C11.8773 38.8074 11.3642 38.5962 10.9417 38.1736C10.5191 37.7511 10.3079 37.238 10.3079 36.6344V32.7498C10.3079 32.1515 10.5191 31.643 10.9417 31.2242C11.3642 30.8054 11.8773 30.596 12.4809 30.596H24.6538C25.2521 30.596 25.7607 30.8054 26.1795 31.2242C26.5983 31.643 26.8077 32.1515 26.8077 32.7498V36.6344C26.8077 37.238 26.5983 37.7511 26.1795 38.1736C25.7607 38.5962 25.2521 38.8074 24.6538 38.8074H12.4809ZM24.0769 36.5383H12.577H24.5385H24.0769Z" fill="white"/>
</g>
</svg>
