<svg width="48" height="48" viewBox="0 0 48 48" fill="none" xmlns="http://www.w3.org/2000/svg">
<mask id="mask0_215_12305" style="mask-type:alpha" maskUnits="userSpaceOnUse" x="0" y="0" width="48" height="48">
<rect width="48" height="48" fill="#D9D9D9"/>
</mask>
<g mask="url(#mask0_215_12305)">
<path d="M22.8654 35.6115H25.1346V29.6115H31.1346V27.3423H25.1346V21.3423H22.8654V27.3423H16.8654V29.6115H22.8654V35.6115ZM7.88465 43C7.10035 43 6.4235 42.7153 5.8541 42.1459C5.2847 41.5765 5 40.8996 5 40.1153L5 15.8847C5 15.1004 5.2847 14.4235 5.8541 13.8541C6.4235 13.2847 7.10035 13 7.88465 13H17V8.88475C17 8.10045 17.2847 7.42362 17.8541 6.85425C18.4235 6.28485 19.1004 6.00015 19.8847 6.00015L28.1153 6.00015C28.8996 6.00015 29.5764 6.28485 30.1458 6.85425C30.7152 7.42362 30.9999 8.10045 30.9999 8.88475V13H40.1153C40.8996 13 41.5764 13.2847 42.1458 13.8541C42.7152 14.4235 42.9999 15.1004 42.9999 15.8847V40.1153C42.9999 40.8996 42.7152 41.5765 42.1458 42.1459C41.5764 42.7153 40.8996 43 40.1153 43H7.88465ZM7.88465 40.7308H40.1153C40.2691 40.7308 40.4102 40.6666 40.5384 40.5384C40.6666 40.4102 40.7307 40.2692 40.7307 40.1153V15.8847C40.7307 15.7308 40.6666 15.5898 40.5384 15.4616C40.4102 15.3334 40.2691 15.2692 40.1153 15.2692L7.88465 15.2692C7.73078 15.2692 7.58973 15.3334 7.4615 15.4616C7.3333 15.5898 7.2692 15.7308 7.2692 15.8847L7.2692 40.1153C7.2692 40.2692 7.3333 40.4102 7.4615 40.5384C7.58973 40.6666 7.73078 40.7308 7.88465 40.7308ZM19.2692 13H28.7307V8.88475C28.7307 8.73088 28.6666 8.58985 28.5384 8.46165C28.4102 8.33341 28.2691 8.2693 28.1153 8.2693H19.8847C19.7308 8.2693 19.5897 8.33341 19.4615 8.46165C19.3333 8.58985 19.2692 8.73088 19.2692 8.88475V13Z" fill="white"/>
</g>
</svg>
