<svg width="49" height="48" viewBox="0 0 49 48" fill="none" xmlns="http://www.w3.org/2000/svg">
<mask id="mask0_448_6583" style="mask-type:alpha" maskUnits="userSpaceOnUse" x="0" y="0" width="49" height="48">
<rect x="0.5" width="48" height="48" fill="#D9D9D9"/>
</mask>
<g mask="url(#mask0_448_6583)">
<path d="M23.3654 35.6115H25.6346V29.6115H31.6346V27.3423H25.6346V21.3423H23.3654V27.3423H17.3654V29.6115H23.3654V35.6115ZM8.38471 42.9999C7.60041 42.9999 6.92356 42.7152 6.35416 42.1458C5.78476 41.5764 5.50006 40.8996 5.50006 40.1153L5.50006 15.8847C5.50006 15.1004 5.78476 14.4235 6.35416 13.8541C6.92356 13.2847 7.60041 13 8.38471 13H17.5001V8.88472C17.5001 8.10042 17.7848 7.42359 18.3542 6.85422C18.9236 6.28482 19.6004 6.00012 20.3847 6.00012L28.6153 6.00012C29.3996 6.00012 30.0765 6.28482 30.6459 6.85422C31.2153 7.42359 31.5 8.10042 31.5 8.88472V13H40.6153C41.3996 13 42.0765 13.2847 42.6459 13.8541C43.2153 14.4235 43.5 15.1004 43.5 15.8847V40.1153C43.5 40.8996 43.2153 41.5764 42.6459 42.1458C42.0765 42.7152 41.3996 42.9999 40.6153 42.9999H8.38471ZM8.38471 40.7307H40.6153C40.7692 40.7307 40.9102 40.6666 41.0385 40.5384C41.1667 40.4102 41.2308 40.2691 41.2308 40.1153V15.8847C41.2308 15.7308 41.1667 15.5898 41.0385 15.4615C40.9102 15.3333 40.7692 15.2692 40.6153 15.2692L8.38471 15.2692C8.23084 15.2692 8.08979 15.3333 7.96156 15.4615C7.83336 15.5898 7.76926 15.7308 7.76926 15.8847L7.76926 40.1153C7.76926 40.2691 7.83336 40.4102 7.96156 40.5384C8.08979 40.6666 8.23084 40.7307 8.38471 40.7307ZM19.7693 13H29.2308V8.88472C29.2308 8.73086 29.1667 8.58982 29.0385 8.46162C28.9102 8.33339 28.7692 8.26927 28.6153 8.26927H20.3847C20.2308 8.26927 20.0898 8.33339 19.9616 8.46162C19.8334 8.58982 19.7693 8.73086 19.7693 8.88472V13Z" fill="white"/>
</g>
</svg>
