<svg width="49" height="48" viewBox="0 0 49 48" fill="none" xmlns="http://www.w3.org/2000/svg">
<mask id="mask0_448_6494" style="mask-type:alpha" maskUnits="userSpaceOnUse" x="0" y="0" width="49" height="48">
<rect x="0.5" width="48" height="48" fill="#D9D9D9"/>
</mask>
<g mask="url(#mask0_448_6494)">
<path d="M40.0381 13.6536L38.3695 10.053L34.7689 8.38443L38.3695 6.71583L40.0381 3.11523L41.7066 6.71583L45.3072 8.38443L41.7066 10.053L40.0381 13.6536ZM17.5381 13.6536L15.8695 10.053L12.2689 8.38443L15.8695 6.71583L17.5381 3.11523L19.2067 6.71583L22.8073 8.38443L19.2067 10.053L17.5381 13.6536ZM40.0381 36.1536L38.3695 32.553L34.7689 30.8844L38.3695 29.2158L40.0381 25.6152L41.7066 29.2158L45.3072 30.8844L41.7066 32.553L40.0381 36.1536ZM10.7766 42.1689L6.25357 37.6459C5.90484 37.2928 5.73047 36.866 5.73047 36.3657C5.73047 35.8654 5.90484 35.4408 6.25357 35.0921L27.515 13.8691C27.8682 13.5204 28.2949 13.346 28.7953 13.346C29.2956 13.346 29.7201 13.5204 30.0688 13.8691L34.5918 18.3921C34.9406 18.7453 35.1149 19.1721 35.1149 19.6724C35.1149 20.1727 34.9406 20.5972 34.5918 20.9459L13.3304 42.1689C12.9772 42.5176 12.5505 42.692 12.0501 42.692C11.5498 42.692 11.1253 42.5176 10.7766 42.1689ZM12.0842 39.1998L26.4227 24.7998L23.6227 21.9998L9.22267 36.3382L12.0842 39.1998Z" fill="white"/>
</g>
</svg>
