<svg width="48" height="48" viewBox="0 0 48 48" fill="none" xmlns="http://www.w3.org/2000/svg">
<mask id="mask0_448_6513" style="mask-type:alpha" maskUnits="userSpaceOnUse" x="0" y="0" width="48" height="48">
<rect width="48" height="48" fill="#D9D9D9"/>
</mask>
<g mask="url(#mask0_448_6513)">
<path d="M24.1115 33.0729L15.2461 41.9075C14.6882 42.5024 13.9994 42.7998 13.1796 42.7998C12.3598 42.7998 11.6794 42.5024 11.1384 41.9075L6.07309 36.8422C5.47823 36.2972 5.18593 35.6199 5.19619 34.8103C5.20646 34.0008 5.49876 33.3089 6.07309 32.7345L14.8962 23.8807L6.13079 15.0538C5.58976 14.5128 5.28079 13.8602 5.20389 13.0961C5.12696 12.332 5.36541 11.6794 5.91924 11.1384L11.1384 5.91924C11.6898 5.3449 12.369 5.05774 13.1762 5.05774C13.9834 5.05774 14.6733 5.3449 15.2461 5.91924L24.0922 14.7654L32.9076 5.91924C33.4732 5.3449 34.1556 5.06286 34.9549 5.07309C35.7541 5.08336 36.4409 5.3654 37.0153 5.91924L42.0614 10.9653C42.6152 11.5437 42.8973 12.2326 42.9075 13.0318C42.9178 13.8311 42.6358 14.5115 42.0614 15.073L33.246 23.9384L42.0421 32.7538C42.6293 33.3197 42.9229 34.0086 42.9229 34.8205C42.9229 35.6324 42.6358 36.3192 42.0614 36.8807L36.8999 42.0421C36.3461 42.596 35.6839 42.8473 34.9134 42.796C34.1429 42.7447 33.4807 42.4422 32.9268 41.8883L24.1115 33.0729ZM24.1148 22.3038C24.6193 22.3038 25.041 22.1332 25.3799 21.792C25.7189 21.4508 25.8884 21.0279 25.8884 20.5235C25.8884 20.0191 25.7178 19.5974 25.3765 19.2584C25.0353 18.9195 24.6125 18.75 24.1081 18.75C23.6037 18.75 23.182 18.9206 22.843 19.2618C22.5041 19.603 22.3346 20.0258 22.3346 20.5302C22.3346 21.0347 22.5052 21.4564 22.8464 21.7953C23.1876 22.1343 23.6104 22.3038 24.1148 22.3038ZM16.3654 22.4115L22.523 16.2846L13.6769 7.46924C13.5615 7.35384 13.4205 7.29614 13.2538 7.29614C13.0871 7.29614 12.9461 7.35384 12.8307 7.46924L7.61154 12.6884C7.49614 12.8038 7.43844 12.9448 7.43844 13.1115C7.43844 13.2782 7.49614 13.4192 7.61154 13.5346L16.3654 22.4115ZM20.7225 25.6653C21.2215 25.6653 21.6386 25.4947 21.9739 25.1535C22.3092 24.8123 22.4769 24.3894 22.4769 23.885C22.4769 23.3806 22.3081 22.9589 21.9706 22.6199C21.633 22.281 21.2148 22.1115 20.7158 22.1115C20.2169 22.1115 19.7965 22.2821 19.4548 22.6233C19.1131 22.9645 18.9423 23.3874 18.9423 23.8918C18.9423 24.3962 19.1129 24.8179 19.4541 25.1568C19.7953 25.4958 20.2181 25.6653 20.7225 25.6653ZM24.1148 29.0576C24.6193 29.0576 25.041 28.887 25.3799 28.5458C25.7189 28.2046 25.8884 27.7817 25.8884 27.2773C25.8884 26.7784 25.7178 26.3612 25.3765 26.0259C25.0353 25.6906 24.6125 25.523 24.1081 25.523C23.6037 25.523 23.182 25.6918 22.843 26.0293C22.5041 26.3669 22.3346 26.7851 22.3346 27.284C22.3346 27.783 22.5052 28.2033 22.8464 28.545C23.1876 28.8867 23.6104 29.0576 24.1148 29.0576ZM27.4764 25.6653C27.9808 25.6653 28.4025 25.4947 28.7414 25.1535C29.0804 24.8123 29.2499 24.3894 29.2499 23.885C29.2499 23.3806 29.0793 22.9589 28.7381 22.6199C28.3969 22.281 27.974 22.1115 27.4696 22.1115C26.9652 22.1115 26.5435 22.2821 26.2045 22.6233C25.8656 22.9645 25.6961 23.3874 25.6961 23.8918C25.6961 24.3962 25.8667 24.8179 26.2079 25.1568C26.5491 25.4958 26.972 25.6653 27.4764 25.6653ZM25.5999 31.523L34.4653 40.3883C34.5807 40.5037 34.7217 40.5614 34.8884 40.5614C35.0551 40.5614 35.1961 40.5037 35.3115 40.3883L40.5306 35.1692C40.646 35.0538 40.7037 34.9128 40.7037 34.7461C40.7037 34.5794 40.646 34.4384 40.5306 34.323L31.696 25.4884L25.5999 31.523Z" fill="white"/>
</g>
</svg>
