<svg width="49" height="48" viewBox="0 0 49 48" fill="none" xmlns="http://www.w3.org/2000/svg">
<mask id="mask0_448_6531" style="mask-type:alpha" maskUnits="userSpaceOnUse" x="0" y="0" width="49" height="48">
<rect x="0.5" width="48" height="48" fill="#D9D9D9"/>
</mask>
<g mask="url(#mask0_448_6531)">
<path d="M24.5461 37.4076C24.9897 37.3948 25.3275 37.3118 25.5595 37.1585C25.7916 37.0053 25.9076 36.7759 25.9076 36.4702C25.9076 36.1747 25.7898 35.9493 25.5542 35.7942C25.3185 35.6391 24.9722 35.5615 24.5154 35.5615C23.1282 35.5871 21.6583 35.139 20.1057 34.2172C18.5531 33.2955 17.5768 31.7179 17.1768 29.4846C17.123 29.1846 17.0024 28.9557 16.815 28.798C16.6276 28.6403 16.4209 28.5615 16.1948 28.5615C15.9008 28.5615 15.6698 28.6743 15.5019 28.8999C15.3339 29.1256 15.2769 29.3884 15.3307 29.6884C15.8307 32.4371 17.0333 34.414 18.9384 35.6191C20.8436 36.8243 22.7128 37.4204 24.5461 37.4076ZM24.4964 42.9999C20.2142 42.9999 16.6442 41.5288 13.7865 38.5865C10.9288 35.6442 9.5 31.982 9.5 27.5999C9.5 24.4974 10.7417 21.0968 13.225 17.3981C15.7083 13.6994 19.4667 9.66924 24.4999 5.30774C29.5332 9.66924 33.2916 13.6994 35.7749 17.3981C38.2582 21.0968 39.4999 24.4974 39.4999 27.5999C39.4999 31.982 38.0699 35.6442 35.2099 38.5865C32.3498 41.5288 28.7786 42.9999 24.4964 42.9999ZM24.5008 40.7307C28.1567 40.7307 31.1922 39.481 33.6076 36.9817C36.023 34.4824 37.2307 31.3545 37.2307 27.5981C37.2307 25.0173 36.148 22.0903 33.9826 18.8172C31.8172 15.5442 28.6563 12.0538 24.4999 8.34614C20.3435 12.0538 17.1827 15.5442 15.0173 18.8172C12.8519 22.0903 11.7692 25.0173 11.7692 27.5981C11.7692 31.3545 12.9772 34.4824 15.3932 36.9817C17.8092 39.481 20.845 40.7307 24.5008 40.7307Z" fill="white"/>
</g>
</svg>
