<svg width="49" height="48" viewBox="0 0 49 48" fill="none" xmlns="http://www.w3.org/2000/svg">
<path d="M22.9718 11.6538C20.0249 11.6538 17.0781 13.4791 17.0781 17.1303V40.7591C17.0781 41.8623 17.9725 42.7573 19.0763 42.7573H26.8678C27.971 42.7573 28.866 41.8629 28.866 40.7591V17.1303C28.866 13.4791 25.9192 11.6538 22.9723 11.6538H22.9718ZM27.0955 40.7591C27.0955 40.8848 26.9935 40.9874 26.8672 40.9874H19.0757C18.95 40.9874 18.8474 40.8854 18.8474 40.7591V17.1303C18.8474 15.9675 19.2509 15.0443 20.0462 14.3871C20.7877 13.7747 21.8538 13.4231 22.9712 13.4231C24.0885 13.4231 25.1546 13.7741 25.8961 14.3871C26.692 15.0443 27.0949 15.967 27.0949 17.1303V40.7591H27.0955Z" fill="white"/>
<path d="M27.0667 7.73151C26.8101 7.77045 26.6201 7.9905 26.6195 8.25008L26.6183 8.95094H25.3564V8.61349C25.3564 7.5616 24.5034 6.70853 23.4515 6.70853H22.4987C21.4468 6.70853 20.5938 7.5616 20.5938 8.61349V11.6122C22.0981 11.0541 23.8515 11.0541 25.3564 11.6122V10.3273H26.616L26.6148 10.9875C26.6148 11.247 26.8036 11.4683 27.0602 11.5078L38.4911 13.2788L38.5035 6L27.0667 7.73151ZM22.9913 10.4494C22.2869 10.4494 21.7164 9.87835 21.7164 9.17453C21.7164 8.47072 22.2875 7.89965 22.9913 7.89965C23.6951 7.89965 24.2662 8.47072 24.2662 9.17453C24.2662 9.87835 23.6951 10.4494 22.9913 10.4494Z" fill="white"/>
<path d="M20.1935 10.1055V8.67659C20.1935 8.42409 20.2431 8.1828 20.3328 7.96216H11.9743C11.7124 7.96216 11.5 8.17454 11.5 8.43648C11.5 8.62586 11.6109 8.78927 11.7708 8.86538C11.9625 8.95623 13.5979 10.1055 14.0067 10.1055H15.6415C14.9241 11.3739 14.4622 12.9537 14.3389 14.8074C14.3094 15.2498 14.5978 15.7472 14.9701 15.8917C14.9742 15.8935 14.979 15.8953 14.9831 15.897C15.3223 16.0286 15.6055 15.8156 15.6326 15.4127C15.7836 13.1425 16.5175 11.3432 17.6314 10.1055H20.1941H20.1935Z" fill="white"/>
</svg>
