<svg width="49" height="48" viewBox="0 0 49 48" fill="none" xmlns="http://www.w3.org/2000/svg">
<path d="M41.6334 33.8045L35.5742 31.2247L35.3642 30.5926L35.2115 30.1338L30.4447 15.8016C30.4447 15.8016 30.4441 15.7988 30.4435 15.7973L27.9583 8.32572C27.9481 8.29552 27.9376 8.26743 27.9271 8.23843C27.9181 8.21306 27.9091 8.18678 27.8998 8.16232C27.895 8.14994 27.8899 8.13846 27.8851 8.12607C27.8695 8.08681 27.8539 8.04784 27.8377 8.01039C27.8293 7.99106 27.8203 7.97324 27.8116 7.95451C27.7981 7.92552 27.7849 7.89592 27.7708 7.86783C27.7684 7.863 27.766 7.85877 27.7636 7.85424C27.7429 7.81376 27.7216 7.77389 27.6997 7.73523C27.3541 7.13417 26.8159 6.66087 26.1697 6.36154C25.6654 6.12776 25.0957 6 24.5002 6C23.3115 6 22.224 6.50955 21.5598 7.35285C21.4644 7.47366 21.3777 7.60143 21.3006 7.73553C21.2763 7.77752 21.2532 7.82071 21.231 7.86511C21.231 7.86541 21.2307 7.86602 21.2304 7.86632C21.2091 7.9083 21.189 7.9518 21.1692 7.9962C21.1671 8.00073 21.165 8.00496 21.1629 8.00949C21.1284 8.08802 21.0963 8.17168 21.0657 8.25867C21.0576 8.28163 21.0492 8.30367 21.0411 8.32723L18.5565 15.7973C18.5556 15.7998 18.5553 15.8022 18.5544 15.8046L15.4397 25.1694L14.3552 28.4296L13.6355 30.5926L13.4255 31.2244L7.36626 33.8042C6.21125 34.2965 6.21125 35.8049 7.36626 36.2966L21.8499 42.4631C23.5311 43.179 25.4692 43.179 27.1504 42.4631L41.634 36.2966C42.7891 35.8049 42.7885 34.2968 41.6334 33.8045ZM15.0575 31.0722L15.2654 30.447L16.6292 26.348C18.7314 26.9436 21.5283 27.2822 24.4509 27.2858H24.5491C27.4711 27.2822 30.2677 26.9436 32.3699 26.348L34.6796 33.2928C34.7333 33.4547 34.6955 33.6208 34.5758 33.7489C33.5855 34.8088 29.806 35.8822 24.4995 35.8822C19.1931 35.8822 15.4142 34.8094 14.4233 33.7489C14.3036 33.6208 14.2655 33.4547 14.3195 33.2928L15.0572 31.0737C15.0572 31.0737 15.0572 31.0725 15.0575 31.0722ZM22.4628 8.80688C22.4871 8.73408 22.512 8.66975 22.5384 8.61146C22.5576 8.56857 22.5774 8.5287 22.5987 8.49215C22.7832 8.17078 23.0757 7.91495 23.4318 7.7449C23.7471 7.59448 24.1122 7.51051 24.4995 7.51051C24.7744 7.51051 25.0381 7.5531 25.2808 7.63133C25.7668 7.78779 26.1688 8.08953 26.4019 8.49487C26.4139 8.51571 26.4256 8.53745 26.437 8.56041C26.4721 8.63139 26.5048 8.71264 26.536 8.80688L28.7338 15.4159C27.406 15.5817 25.96 15.6687 24.4993 15.6687C23.0385 15.6687 21.5922 15.582 20.2644 15.4159L22.4628 8.80688Z" fill="white"/>
</svg>
