<svg width="49" height="48" viewBox="0 0 49 48" fill="none" xmlns="http://www.w3.org/2000/svg">
<mask id="mask0_448_6476" style="mask-type:alpha" maskUnits="userSpaceOnUse" x="0" y="0" width="49" height="48">
<rect x="0.5" width="48" height="48" fill="#D9D9D9"/>
</mask>
<g mask="url(#mask0_448_6476)">
<path d="M12.3846 43C11.6003 43 10.9235 42.7153 10.3541 42.1459C9.7847 41.5765 9.5 40.8996 9.5 40.1153V7.88471C9.5 7.10041 9.7847 6.42356 10.3541 5.85416C10.9235 5.28476 11.6003 5.00006 12.3846 5.00006H29.7615L39.4999 14.7385V40.1153C39.4999 40.8996 39.2152 41.5765 38.6458 42.1459C38.0764 42.7153 37.3996 43 36.6153 43H12.3846ZM28.6269 15.7615V7.26926H12.3846C12.2308 7.26926 12.0897 7.33336 11.9615 7.46156C11.8333 7.5898 11.7692 7.73084 11.7692 7.88471V40.1153C11.7692 40.2692 11.8333 40.4102 11.9615 40.5385C12.0897 40.6667 12.2308 40.7308 12.3846 40.7308H36.6153C36.7691 40.7308 36.9102 40.6667 37.0384 40.5385C37.1666 40.4102 37.2307 40.2692 37.2307 40.1153V15.7615H28.6269Z" fill="white"/>
</g>
</svg>
